ISO-10303-21;
HEADER;
/* Generated by software containing ST-Developer
 * from STEP Tools, Inc. (www.steptools.com) 
 */
/* OPTION: using custom renumber hook */

FILE_DESCRIPTION(
/* description */ ('STEP AP242 Edition 2',
'CAx-IF Rec.Pracs.---Representation and Presentation of Product Manufa
cturing Information (PMI)---4.0---2014-10-13',
'CAx-IF Rec.Pracs.---3D Tessellated Geometry---0.4---2014-09-14','2;1',
'CAx-IF Rec.Pracs.---User Defined Attributes---1.5---2016-08-15'),
/* implementation_level */ '2;1');

FILE_NAME(
/* name */ 'RhythmPad - Part 3',
/* time_stamp */ '2026-09-26T04:36:32Z',
/* author */ (''),
/* organization */ (''),
/* preprocessor_version */ 'ST-DEVELOPER v20',
/* originating_system */ 'ONSHAPE BY PTC INC, 1.221',
/* authorisation */ '  ');

FILE_SCHEMA (('AP242_MANAGED_MODEL_BASED_3D_ENGINEERING_MIM_LF { 1 0 10303 442 3 1 4 }'));
ENDSEC;

DATA;
#10=SHAPE_REPRESENTATION_RELATIONSHIP('','',#1364,#11);
#11=ADVANCED_BREP_SHAPE_REPRESENTATION('',(#1362),#2393);
#12=TOROIDAL_SURFACE('',#1471,3.5,2.);
#13=TOROIDAL_SURFACE('',#1478,3.5,2.);
#14=TOROIDAL_SURFACE('',#1480,3.5,2.);
#15=TOROIDAL_SURFACE('',#1486,3.5,2.);
#16=TOROIDAL_SURFACE('',#1487,2.,1.);
#17=TOROIDAL_SURFACE('',#1494,2.,1.);
#18=TOROIDAL_SURFACE('',#1496,2.,1.);
#19=TOROIDAL_SURFACE('',#1502,2.,1.);
#20=TOROIDAL_SURFACE('',#1503,5.5,1.5);
#21=TOROIDAL_SURFACE('',#1510,5.5,1.5);
#22=TOROIDAL_SURFACE('',#1512,5.5,1.5);
#23=TOROIDAL_SURFACE('',#1518,5.5,1.5);
#24=TOROIDAL_SURFACE('',#1522,2.5,1.5);
#25=TOROIDAL_SURFACE('',#1524,4.5,1.5);
#26=TOROIDAL_SURFACE('',#1530,4.5,1.5);
#27=TOROIDAL_SURFACE('',#1536,4.5,1.5);
#28=TOROIDAL_SURFACE('',#1538,4.5,1.5);
#29=TOROIDAL_SURFACE('',#1544,4.5,1.5);
#30=PLANE('',#1369);
#31=PLANE('',#1373);
#32=PLANE('',#1377);
#33=PLANE('',#1384);
#34=PLANE('',#1388);
#35=PLANE('',#1392);
#36=PLANE('',#1396);
#37=PLANE('',#1400);
#38=PLANE('',#1404);
#39=PLANE('',#1408);
#40=PLANE('',#1412);
#41=PLANE('',#1416);
#42=PLANE('',#1423);
#43=PLANE('',#1427);
#44=PLANE('',#1431);
#45=PLANE('',#1435);
#46=PLANE('',#1436);
#47=PLANE('',#1449);
#48=PLANE('',#1450);
#49=PLANE('',#1451);
#50=PLANE('',#1470);
#51=CIRCLE('',#1367,1.);
#52=CIRCLE('',#1368,1.);
#53=CIRCLE('',#1371,1.);
#54=CIRCLE('',#1372,1.);
#55=CIRCLE('',#1375,1.);
#56=CIRCLE('',#1376,1.);
#57=CIRCLE('',#1379,1.);
#58=CIRCLE('',#1380,1.);
#59=CIRCLE('',#1382,1.5);
#60=CIRCLE('',#1383,1.5);
#61=CIRCLE('',#1386,1.5);
#62=CIRCLE('',#1387,1.5);
#63=CIRCLE('',#1390,1.5);
#64=CIRCLE('',#1391,1.5);
#65=CIRCLE('',#1394,1.49999999999999);
#66=CIRCLE('',#1395,1.49999999999999);
#67=CIRCLE('',#1398,6.);
#68=CIRCLE('',#1399,6.);
#69=CIRCLE('',#1402,6.);
#70=CIRCLE('',#1403,6.);
#71=CIRCLE('',#1406,6.);
#72=CIRCLE('',#1407,6.);
#73=CIRCLE('',#1410,3.);
#74=CIRCLE('',#1411,3.);
#75=CIRCLE('',#1414,4.);
#76=CIRCLE('',#1415,4.);
#77=CIRCLE('',#1418,6.);
#78=CIRCLE('',#1419,6.);
#79=CIRCLE('',#1421,4.);
#80=CIRCLE('',#1422,4.);
#81=CIRCLE('',#1425,4.);
#82=CIRCLE('',#1426,4.);
#83=CIRCLE('',#1429,4.);
#84=CIRCLE('',#1430,4.);
#85=CIRCLE('',#1433,4.);
#86=CIRCLE('',#1434,4.);
#87=CIRCLE('',#1438,1.7);
#88=CIRCLE('',#1439,1.7);
#89=CIRCLE('',#1441,1.7);
#90=CIRCLE('',#1442,1.7);
#91=CIRCLE('',#1444,1.7);
#92=CIRCLE('',#1445,1.7);
#93=CIRCLE('',#1447,1.7);
#94=CIRCLE('',#1448,1.7);
#95=CIRCLE('',#1452,4.5);
#96=CIRCLE('',#1453,4.5);
#97=CIRCLE('',#1454,4.5);
#98=CIRCLE('',#1455,2.5);
#99=CIRCLE('',#1456,4.5);
#100=CIRCLE('',#1457,4.5);
#101=CIRCLE('',#1458,5.5);
#102=CIRCLE('',#1459,5.5);
#103=CIRCLE('',#1460,5.5);
#104=CIRCLE('',#1461,5.5);
#105=CIRCLE('',#1462,2.);
#106=CIRCLE('',#1463,2.);
#107=CIRCLE('',#1464,2.);
#108=CIRCLE('',#1465,2.);
#109=CIRCLE('',#1466,3.5);
#110=CIRCLE('',#1467,3.5);
#111=CIRCLE('',#1468,3.5);
#112=CIRCLE('',#1469,3.5);
#113=CIRCLE('',#1472,2.);
#114=CIRCLE('',#1473,2.);
#115=CIRCLE('',#1475,2.);
#116=CIRCLE('',#1477,2.);
#117=CIRCLE('',#1479,2.);
#118=CIRCLE('',#1481,2.);
#119=CIRCLE('',#1483,2.);
#120=CIRCLE('',#1485,2.);
#121=CIRCLE('',#1488,1.);
#122=CIRCLE('',#1489,1.);
#123=CIRCLE('',#1491,1.);
#124=CIRCLE('',#1493,1.);
#125=CIRCLE('',#1495,1.);
#126=CIRCLE('',#1497,1.);
#127=CIRCLE('',#1499,1.);
#128=CIRCLE('',#1501,1.);
#129=CIRCLE('',#1504,1.5);
#130=CIRCLE('',#1505,1.5);
#131=CIRCLE('',#1507,1.5);
#132=CIRCLE('',#1509,1.5);
#133=CIRCLE('',#1511,1.5);
#134=CIRCLE('',#1513,1.5);
#135=CIRCLE('',#1515,1.5);
#136=CIRCLE('',#1517,1.5);
#137=CIRCLE('',#1520,1.5);
#138=CIRCLE('',#1521,1.5);
#139=CIRCLE('',#1523,1.5);
#140=CIRCLE('',#1525,1.5);
#141=CIRCLE('',#1527,1.5);
#142=CIRCLE('',#1529,1.5);
#143=CIRCLE('',#1531,1.5);
#144=CIRCLE('',#1533,1.5);
#145=CIRCLE('',#1535,1.5);
#146=CIRCLE('',#1537,1.5);
#147=CIRCLE('',#1539,1.5);
#148=CIRCLE('',#1541,1.5);
#149=CIRCLE('',#1543,1.5);
#150=ORIENTED_EDGE('',*,*,#536,.F.);
#151=ORIENTED_EDGE('',*,*,#537,.T.);
#152=ORIENTED_EDGE('',*,*,#538,.T.);
#153=ORIENTED_EDGE('',*,*,#539,.F.);
#154=ORIENTED_EDGE('',*,*,#540,.F.);
#155=ORIENTED_EDGE('',*,*,#541,.T.);
#156=ORIENTED_EDGE('',*,*,#536,.T.);
#157=ORIENTED_EDGE('',*,*,#542,.T.);
#158=ORIENTED_EDGE('',*,*,#543,.F.);
#159=ORIENTED_EDGE('',*,*,#544,.T.);
#160=ORIENTED_EDGE('',*,*,#540,.T.);
#161=ORIENTED_EDGE('',*,*,#545,.F.);
#162=ORIENTED_EDGE('',*,*,#546,.F.);
#163=ORIENTED_EDGE('',*,*,#547,.T.);
#164=ORIENTED_EDGE('',*,*,#543,.T.);
#165=ORIENTED_EDGE('',*,*,#548,.F.);
#166=ORIENTED_EDGE('',*,*,#549,.F.);
#167=ORIENTED_EDGE('',*,*,#550,.T.);
#168=ORIENTED_EDGE('',*,*,#546,.T.);
#169=ORIENTED_EDGE('',*,*,#551,.F.);
#170=ORIENTED_EDGE('',*,*,#552,.F.);
#171=ORIENTED_EDGE('',*,*,#553,.T.);
#172=ORIENTED_EDGE('',*,*,#549,.T.);
#173=ORIENTED_EDGE('',*,*,#554,.F.);
#174=ORIENTED_EDGE('',*,*,#555,.F.);
#175=ORIENTED_EDGE('',*,*,#556,.T.);
#176=ORIENTED_EDGE('',*,*,#552,.T.);
#177=ORIENTED_EDGE('',*,*,#557,.F.);
#178=ORIENTED_EDGE('',*,*,#558,.F.);
#179=ORIENTED_EDGE('',*,*,#559,.T.);
#180=ORIENTED_EDGE('',*,*,#560,.T.);
#181=ORIENTED_EDGE('',*,*,#561,.F.);
#182=ORIENTED_EDGE('',*,*,#562,.F.);
#183=ORIENTED_EDGE('',*,*,#563,.T.);
#184=ORIENTED_EDGE('',*,*,#558,.T.);
#185=ORIENTED_EDGE('',*,*,#564,.T.);
#186=ORIENTED_EDGE('',*,*,#565,.F.);
#187=ORIENTED_EDGE('',*,*,#566,.T.);
#188=ORIENTED_EDGE('',*,*,#562,.T.);
#189=ORIENTED_EDGE('',*,*,#567,.F.);
#190=ORIENTED_EDGE('',*,*,#568,.F.);
#191=ORIENTED_EDGE('',*,*,#569,.T.);
#192=ORIENTED_EDGE('',*,*,#565,.T.);
#193=ORIENTED_EDGE('',*,*,#570,.F.);
#194=ORIENTED_EDGE('',*,*,#571,.F.);
#195=ORIENTED_EDGE('',*,*,#572,.T.);
#196=ORIENTED_EDGE('',*,*,#568,.T.);
#197=ORIENTED_EDGE('',*,*,#573,.F.);
#198=ORIENTED_EDGE('',*,*,#574,.F.);
#199=ORIENTED_EDGE('',*,*,#575,.T.);
#200=ORIENTED_EDGE('',*,*,#571,.T.);
#201=ORIENTED_EDGE('',*,*,#576,.F.);
#202=ORIENTED_EDGE('',*,*,#577,.F.);
#203=ORIENTED_EDGE('',*,*,#578,.T.);
#204=ORIENTED_EDGE('',*,*,#574,.T.);
#205=ORIENTED_EDGE('',*,*,#579,.F.);
#206=ORIENTED_EDGE('',*,*,#580,.F.);
#207=ORIENTED_EDGE('',*,*,#581,.T.);
#208=ORIENTED_EDGE('',*,*,#582,.T.);
#209=ORIENTED_EDGE('',*,*,#583,.F.);
#210=ORIENTED_EDGE('',*,*,#584,.F.);
#211=ORIENTED_EDGE('',*,*,#585,.T.);
#212=ORIENTED_EDGE('',*,*,#580,.T.);
#213=ORIENTED_EDGE('',*,*,#586,.T.);
#214=ORIENTED_EDGE('',*,*,#587,.F.);
#215=ORIENTED_EDGE('',*,*,#588,.T.);
#216=ORIENTED_EDGE('',*,*,#584,.T.);
#217=ORIENTED_EDGE('',*,*,#589,.F.);
#218=ORIENTED_EDGE('',*,*,#590,.F.);
#219=ORIENTED_EDGE('',*,*,#591,.T.);
#220=ORIENTED_EDGE('',*,*,#587,.T.);
#221=ORIENTED_EDGE('',*,*,#592,.T.);
#222=ORIENTED_EDGE('',*,*,#593,.F.);
#223=ORIENTED_EDGE('',*,*,#594,.T.);
#224=ORIENTED_EDGE('',*,*,#590,.T.);
#225=ORIENTED_EDGE('',*,*,#595,.T.);
#226=ORIENTED_EDGE('',*,*,#596,.F.);
#227=ORIENTED_EDGE('',*,*,#597,.T.);
#228=ORIENTED_EDGE('',*,*,#593,.T.);
#229=ORIENTED_EDGE('',*,*,#598,.T.);
#230=ORIENTED_EDGE('',*,*,#599,.F.);
#231=ORIENTED_EDGE('',*,*,#600,.T.);
#232=ORIENTED_EDGE('',*,*,#596,.T.);
#233=ORIENTED_EDGE('',*,*,#601,.T.);
#234=ORIENTED_EDGE('',*,*,#602,.F.);
#235=ORIENTED_EDGE('',*,*,#603,.T.);
#236=ORIENTED_EDGE('',*,*,#599,.T.);
#237=ORIENTED_EDGE('',*,*,#604,.F.);
#238=ORIENTED_EDGE('',*,*,#605,.F.);
#239=ORIENTED_EDGE('',*,*,#606,.T.);
#240=ORIENTED_EDGE('',*,*,#602,.T.);
#241=ORIENTED_EDGE('',*,*,#607,.T.);
#242=ORIENTED_EDGE('',*,*,#608,.F.);
#243=ORIENTED_EDGE('',*,*,#609,.T.);
#244=ORIENTED_EDGE('',*,*,#605,.T.);
#245=ORIENTED_EDGE('',*,*,#610,.T.);
#246=ORIENTED_EDGE('',*,*,#611,.F.);
#247=ORIENTED_EDGE('',*,*,#612,.T.);
#248=ORIENTED_EDGE('',*,*,#608,.T.);
#249=ORIENTED_EDGE('',*,*,#613,.T.);
#250=ORIENTED_EDGE('',*,*,#614,.F.);
#251=ORIENTED_EDGE('',*,*,#615,.T.);
#252=ORIENTED_EDGE('',*,*,#611,.T.);
#253=ORIENTED_EDGE('',*,*,#616,.T.);
#254=ORIENTED_EDGE('',*,*,#617,.F.);
#255=ORIENTED_EDGE('',*,*,#618,.T.);
#256=ORIENTED_EDGE('',*,*,#619,.T.);
#257=ORIENTED_EDGE('',*,*,#620,.F.);
#258=ORIENTED_EDGE('',*,*,#621,.F.);
#259=ORIENTED_EDGE('',*,*,#622,.T.);
#260=ORIENTED_EDGE('',*,*,#617,.T.);
#261=ORIENTED_EDGE('',*,*,#623,.T.);
#262=ORIENTED_EDGE('',*,*,#624,.F.);
#263=ORIENTED_EDGE('',*,*,#625,.T.);
#264=ORIENTED_EDGE('',*,*,#621,.T.);
#265=ORIENTED_EDGE('',*,*,#626,.F.);
#266=ORIENTED_EDGE('',*,*,#627,.F.);
#267=ORIENTED_EDGE('',*,*,#628,.T.);
#268=ORIENTED_EDGE('',*,*,#624,.T.);
#269=ORIENTED_EDGE('',*,*,#629,.F.);
#270=ORIENTED_EDGE('',*,*,#630,.F.);
#271=ORIENTED_EDGE('',*,*,#631,.T.);
#272=ORIENTED_EDGE('',*,*,#627,.T.);
#273=ORIENTED_EDGE('',*,*,#632,.F.);
#274=ORIENTED_EDGE('',*,*,#633,.F.);
#275=ORIENTED_EDGE('',*,*,#634,.T.);
#276=ORIENTED_EDGE('',*,*,#630,.T.);
#277=ORIENTED_EDGE('',*,*,#635,.F.);
#278=ORIENTED_EDGE('',*,*,#636,.F.);
#279=ORIENTED_EDGE('',*,*,#637,.T.);
#280=ORIENTED_EDGE('',*,*,#633,.T.);
#281=ORIENTED_EDGE('',*,*,#638,.F.);
#282=ORIENTED_EDGE('',*,*,#560,.F.);
#283=ORIENTED_EDGE('',*,*,#639,.T.);
#284=ORIENTED_EDGE('',*,*,#577,.T.);
#285=ORIENTED_EDGE('',*,*,#640,.T.);
#286=ORIENTED_EDGE('',*,*,#582,.F.);
#287=ORIENTED_EDGE('',*,*,#641,.T.);
#288=ORIENTED_EDGE('',*,*,#614,.T.);
#289=ORIENTED_EDGE('',*,*,#642,.T.);
#290=ORIENTED_EDGE('',*,*,#643,.T.);
#291=ORIENTED_EDGE('',*,*,#644,.F.);
#292=ORIENTED_EDGE('',*,*,#645,.T.);
#293=ORIENTED_EDGE('',*,*,#646,.F.);
#294=ORIENTED_EDGE('',*,*,#647,.T.);
#295=ORIENTED_EDGE('',*,*,#648,.F.);
#296=ORIENTED_EDGE('',*,*,#649,.T.);
#297=ORIENTED_EDGE('',*,*,#650,.F.);
#298=ORIENTED_EDGE('',*,*,#619,.F.);
#299=ORIENTED_EDGE('',*,*,#651,.T.);
#300=ORIENTED_EDGE('',*,*,#636,.T.);
#301=ORIENTED_EDGE('',*,*,#652,.T.);
#302=ORIENTED_EDGE('',*,*,#538,.F.);
#303=ORIENTED_EDGE('',*,*,#653,.T.);
#304=ORIENTED_EDGE('',*,*,#555,.T.);
#305=ORIENTED_EDGE('',*,*,#654,.T.);
#306=ORIENTED_EDGE('',*,*,#655,.T.);
#307=ORIENTED_EDGE('',*,*,#656,.T.);
#308=ORIENTED_EDGE('',*,*,#657,.T.);
#309=ORIENTED_EDGE('',*,*,#658,.T.);
#310=ORIENTED_EDGE('',*,*,#659,.T.);
#311=ORIENTED_EDGE('',*,*,#660,.T.);
#312=ORIENTED_EDGE('',*,*,#661,.T.);
#313=ORIENTED_EDGE('',*,*,#662,.T.);
#314=ORIENTED_EDGE('',*,*,#663,.T.);
#315=ORIENTED_EDGE('',*,*,#664,.T.);
#316=ORIENTED_EDGE('',*,*,#665,.T.);
#317=ORIENTED_EDGE('',*,*,#666,.T.);
#318=ORIENTED_EDGE('',*,*,#667,.T.);
#319=ORIENTED_EDGE('',*,*,#668,.T.);
#320=ORIENTED_EDGE('',*,*,#669,.T.);
#321=ORIENTED_EDGE('',*,*,#670,.T.);
#322=ORIENTED_EDGE('',*,*,#671,.T.);
#323=ORIENTED_EDGE('',*,*,#672,.T.);
#324=ORIENTED_EDGE('',*,*,#673,.T.);
#325=ORIENTED_EDGE('',*,*,#674,.T.);
#326=ORIENTED_EDGE('',*,*,#675,.T.);
#327=ORIENTED_EDGE('',*,*,#676,.T.);
#328=ORIENTED_EDGE('',*,*,#677,.T.);
#329=ORIENTED_EDGE('',*,*,#678,.T.);
#330=ORIENTED_EDGE('',*,*,#679,.T.);
#331=ORIENTED_EDGE('',*,*,#680,.T.);
#332=ORIENTED_EDGE('',*,*,#681,.T.);
#333=ORIENTED_EDGE('',*,*,#682,.T.);
#334=ORIENTED_EDGE('',*,*,#683,.T.);
#335=ORIENTED_EDGE('',*,*,#684,.T.);
#336=ORIENTED_EDGE('',*,*,#685,.T.);
#337=ORIENTED_EDGE('',*,*,#686,.T.);
#338=ORIENTED_EDGE('',*,*,#687,.T.);
#339=ORIENTED_EDGE('',*,*,#688,.T.);
#340=ORIENTED_EDGE('',*,*,#689,.T.);
#341=ORIENTED_EDGE('',*,*,#690,.T.);
#342=ORIENTED_EDGE('',*,*,#691,.T.);
#343=ORIENTED_EDGE('',*,*,#649,.F.);
#344=ORIENTED_EDGE('',*,*,#647,.F.);
#345=ORIENTED_EDGE('',*,*,#645,.F.);
#346=ORIENTED_EDGE('',*,*,#643,.F.);
#347=ORIENTED_EDGE('',*,*,#620,.T.);
#348=ORIENTED_EDGE('',*,*,#652,.F.);
#349=ORIENTED_EDGE('',*,*,#638,.T.);
#350=ORIENTED_EDGE('',*,*,#635,.T.);
#351=ORIENTED_EDGE('',*,*,#632,.T.);
#352=ORIENTED_EDGE('',*,*,#629,.T.);
#353=ORIENTED_EDGE('',*,*,#626,.T.);
#354=ORIENTED_EDGE('',*,*,#623,.F.);
#355=ORIENTED_EDGE('',*,*,#650,.T.);
#356=ORIENTED_EDGE('',*,*,#648,.T.);
#357=ORIENTED_EDGE('',*,*,#646,.T.);
#358=ORIENTED_EDGE('',*,*,#644,.T.);
#359=ORIENTED_EDGE('',*,*,#583,.T.);
#360=ORIENTED_EDGE('',*,*,#642,.F.);
#361=ORIENTED_EDGE('',*,*,#616,.F.);
#362=ORIENTED_EDGE('',*,*,#613,.F.);
#363=ORIENTED_EDGE('',*,*,#610,.F.);
#364=ORIENTED_EDGE('',*,*,#607,.F.);
#365=ORIENTED_EDGE('',*,*,#604,.T.);
#366=ORIENTED_EDGE('',*,*,#601,.F.);
#367=ORIENTED_EDGE('',*,*,#598,.F.);
#368=ORIENTED_EDGE('',*,*,#595,.F.);
#369=ORIENTED_EDGE('',*,*,#592,.F.);
#370=ORIENTED_EDGE('',*,*,#589,.T.);
#371=ORIENTED_EDGE('',*,*,#586,.F.);
#372=ORIENTED_EDGE('',*,*,#561,.T.);
#373=ORIENTED_EDGE('',*,*,#640,.F.);
#374=ORIENTED_EDGE('',*,*,#579,.T.);
#375=ORIENTED_EDGE('',*,*,#576,.T.);
#376=ORIENTED_EDGE('',*,*,#573,.T.);
#377=ORIENTED_EDGE('',*,*,#570,.T.);
#378=ORIENTED_EDGE('',*,*,#567,.T.);
#379=ORIENTED_EDGE('',*,*,#564,.F.);
#380=ORIENTED_EDGE('',*,*,#539,.T.);
#381=ORIENTED_EDGE('',*,*,#654,.F.);
#382=ORIENTED_EDGE('',*,*,#557,.T.);
#383=ORIENTED_EDGE('',*,*,#554,.T.);
#384=ORIENTED_EDGE('',*,*,#551,.T.);
#385=ORIENTED_EDGE('',*,*,#548,.T.);
#386=ORIENTED_EDGE('',*,*,#545,.T.);
#387=ORIENTED_EDGE('',*,*,#542,.F.);
#388=ORIENTED_EDGE('',*,*,#692,.F.);
#389=ORIENTED_EDGE('',*,*,#689,.F.);
#390=ORIENTED_EDGE('',*,*,#693,.F.);
#391=ORIENTED_EDGE('',*,*,#572,.F.);
#392=ORIENTED_EDGE('',*,*,#693,.T.);
#393=ORIENTED_EDGE('',*,*,#688,.F.);
#394=ORIENTED_EDGE('',*,*,#694,.F.);
#395=ORIENTED_EDGE('',*,*,#569,.F.);
#396=ORIENTED_EDGE('',*,*,#692,.T.);
#397=ORIENTED_EDGE('',*,*,#575,.F.);
#398=ORIENTED_EDGE('',*,*,#695,.F.);
#399=ORIENTED_EDGE('',*,*,#690,.F.);
#400=ORIENTED_EDGE('',*,*,#694,.T.);
#401=ORIENTED_EDGE('',*,*,#687,.F.);
#402=ORIENTED_EDGE('',*,*,#696,.F.);
#403=ORIENTED_EDGE('',*,*,#566,.F.);
#404=ORIENTED_EDGE('',*,*,#695,.T.);
#405=ORIENTED_EDGE('',*,*,#578,.F.);
#406=ORIENTED_EDGE('',*,*,#697,.F.);
#407=ORIENTED_EDGE('',*,*,#691,.F.);
#408=ORIENTED_EDGE('',*,*,#696,.T.);
#409=ORIENTED_EDGE('',*,*,#686,.F.);
#410=ORIENTED_EDGE('',*,*,#698,.F.);
#411=ORIENTED_EDGE('',*,*,#563,.F.);
#412=ORIENTED_EDGE('',*,*,#697,.T.);
#413=ORIENTED_EDGE('',*,*,#639,.F.);
#414=ORIENTED_EDGE('',*,*,#699,.F.);
#415=ORIENTED_EDGE('',*,*,#684,.F.);
#416=ORIENTED_EDGE('',*,*,#698,.T.);
#417=ORIENTED_EDGE('',*,*,#685,.F.);
#418=ORIENTED_EDGE('',*,*,#699,.T.);
#419=ORIENTED_EDGE('',*,*,#559,.F.);
#420=ORIENTED_EDGE('',*,*,#700,.F.);
#421=ORIENTED_EDGE('',*,*,#681,.F.);
#422=ORIENTED_EDGE('',*,*,#701,.F.);
#423=ORIENTED_EDGE('',*,*,#550,.F.);
#424=ORIENTED_EDGE('',*,*,#701,.T.);
#425=ORIENTED_EDGE('',*,*,#680,.F.);
#426=ORIENTED_EDGE('',*,*,#702,.F.);
#427=ORIENTED_EDGE('',*,*,#547,.F.);
#428=ORIENTED_EDGE('',*,*,#700,.T.);
#429=ORIENTED_EDGE('',*,*,#553,.F.);
#430=ORIENTED_EDGE('',*,*,#703,.F.);
#431=ORIENTED_EDGE('',*,*,#682,.F.);
#432=ORIENTED_EDGE('',*,*,#702,.T.);
#433=ORIENTED_EDGE('',*,*,#679,.F.);
#434=ORIENTED_EDGE('',*,*,#704,.F.);
#435=ORIENTED_EDGE('',*,*,#544,.F.);
#436=ORIENTED_EDGE('',*,*,#703,.T.);
#437=ORIENTED_EDGE('',*,*,#556,.F.);
#438=ORIENTED_EDGE('',*,*,#705,.F.);
#439=ORIENTED_EDGE('',*,*,#683,.F.);
#440=ORIENTED_EDGE('',*,*,#704,.T.);
#441=ORIENTED_EDGE('',*,*,#678,.F.);
#442=ORIENTED_EDGE('',*,*,#706,.F.);
#443=ORIENTED_EDGE('',*,*,#541,.F.);
#444=ORIENTED_EDGE('',*,*,#705,.T.);
#445=ORIENTED_EDGE('',*,*,#653,.F.);
#446=ORIENTED_EDGE('',*,*,#707,.F.);
#447=ORIENTED_EDGE('',*,*,#676,.F.);
#448=ORIENTED_EDGE('',*,*,#706,.T.);
#449=ORIENTED_EDGE('',*,*,#677,.F.);
#450=ORIENTED_EDGE('',*,*,#707,.T.);
#451=ORIENTED_EDGE('',*,*,#537,.F.);
#452=ORIENTED_EDGE('',*,*,#708,.F.);
#453=ORIENTED_EDGE('',*,*,#673,.F.);
#454=ORIENTED_EDGE('',*,*,#709,.F.);
#455=ORIENTED_EDGE('',*,*,#631,.F.);
#456=ORIENTED_EDGE('',*,*,#709,.T.);
#457=ORIENTED_EDGE('',*,*,#672,.F.);
#458=ORIENTED_EDGE('',*,*,#710,.F.);
#459=ORIENTED_EDGE('',*,*,#628,.F.);
#460=ORIENTED_EDGE('',*,*,#708,.T.);
#461=ORIENTED_EDGE('',*,*,#634,.F.);
#462=ORIENTED_EDGE('',*,*,#711,.F.);
#463=ORIENTED_EDGE('',*,*,#674,.F.);
#464=ORIENTED_EDGE('',*,*,#710,.T.);
#465=ORIENTED_EDGE('',*,*,#671,.F.);
#466=ORIENTED_EDGE('',*,*,#712,.F.);
#467=ORIENTED_EDGE('',*,*,#625,.F.);
#468=ORIENTED_EDGE('',*,*,#711,.T.);
#469=ORIENTED_EDGE('',*,*,#637,.F.);
#470=ORIENTED_EDGE('',*,*,#713,.F.);
#471=ORIENTED_EDGE('',*,*,#675,.F.);
#472=ORIENTED_EDGE('',*,*,#712,.T.);
#473=ORIENTED_EDGE('',*,*,#670,.F.);
#474=ORIENTED_EDGE('',*,*,#714,.F.);
#475=ORIENTED_EDGE('',*,*,#622,.F.);
#476=ORIENTED_EDGE('',*,*,#713,.T.);
#477=ORIENTED_EDGE('',*,*,#651,.F.);
#478=ORIENTED_EDGE('',*,*,#715,.F.);
#479=ORIENTED_EDGE('',*,*,#668,.F.);
#480=ORIENTED_EDGE('',*,*,#714,.T.);
#481=ORIENTED_EDGE('',*,*,#669,.F.);
#482=ORIENTED_EDGE('',*,*,#715,.T.);
#483=ORIENTED_EDGE('',*,*,#618,.F.);
#484=ORIENTED_EDGE('',*,*,#716,.F.);
#485=ORIENTED_EDGE('',*,*,#663,.F.);
#486=ORIENTED_EDGE('',*,*,#717,.F.);
#487=ORIENTED_EDGE('',*,*,#612,.F.);
#488=ORIENTED_EDGE('',*,*,#717,.T.);
#489=ORIENTED_EDGE('',*,*,#662,.F.);
#490=ORIENTED_EDGE('',*,*,#718,.F.);
#491=ORIENTED_EDGE('',*,*,#609,.F.);
#492=ORIENTED_EDGE('',*,*,#716,.T.);
#493=ORIENTED_EDGE('',*,*,#615,.F.);
#494=ORIENTED_EDGE('',*,*,#719,.F.);
#495=ORIENTED_EDGE('',*,*,#664,.F.);
#496=ORIENTED_EDGE('',*,*,#718,.T.);
#497=ORIENTED_EDGE('',*,*,#661,.F.);
#498=ORIENTED_EDGE('',*,*,#720,.F.);
#499=ORIENTED_EDGE('',*,*,#606,.F.);
#500=ORIENTED_EDGE('',*,*,#719,.T.);
#501=ORIENTED_EDGE('',*,*,#641,.F.);
#502=ORIENTED_EDGE('',*,*,#721,.F.);
#503=ORIENTED_EDGE('',*,*,#665,.F.);
#504=ORIENTED_EDGE('',*,*,#720,.T.);
#505=ORIENTED_EDGE('',*,*,#660,.F.);
#506=ORIENTED_EDGE('',*,*,#722,.F.);
#507=ORIENTED_EDGE('',*,*,#603,.F.);
#508=ORIENTED_EDGE('',*,*,#721,.T.);
#509=ORIENTED_EDGE('',*,*,#581,.F.);
#510=ORIENTED_EDGE('',*,*,#723,.F.);
#511=ORIENTED_EDGE('',*,*,#666,.F.);
#512=ORIENTED_EDGE('',*,*,#722,.T.);
#513=ORIENTED_EDGE('',*,*,#659,.F.);
#514=ORIENTED_EDGE('',*,*,#724,.F.);
#515=ORIENTED_EDGE('',*,*,#600,.F.);
#516=ORIENTED_EDGE('',*,*,#723,.T.);
#517=ORIENTED_EDGE('',*,*,#585,.F.);
#518=ORIENTED_EDGE('',*,*,#725,.F.);
#519=ORIENTED_EDGE('',*,*,#667,.F.);
#520=ORIENTED_EDGE('',*,*,#724,.T.);
#521=ORIENTED_EDGE('',*,*,#658,.F.);
#522=ORIENTED_EDGE('',*,*,#726,.F.);
#523=ORIENTED_EDGE('',*,*,#597,.F.);
#524=ORIENTED_EDGE('',*,*,#725,.T.);
#525=ORIENTED_EDGE('',*,*,#588,.F.);
#526=ORIENTED_EDGE('',*,*,#727,.F.);
#527=ORIENTED_EDGE('',*,*,#655,.F.);
#528=ORIENTED_EDGE('',*,*,#726,.T.);
#529=ORIENTED_EDGE('',*,*,#657,.F.);
#530=ORIENTED_EDGE('',*,*,#728,.F.);
#531=ORIENTED_EDGE('',*,*,#594,.F.);
#532=ORIENTED_EDGE('',*,*,#727,.T.);
#533=ORIENTED_EDGE('',*,*,#591,.F.);
#534=ORIENTED_EDGE('',*,*,#728,.T.);
#535=ORIENTED_EDGE('',*,*,#656,.F.);
#536=EDGE_CURVE('',#729,#730,#848,.T.);
#537=EDGE_CURVE('',#729,#731,#51,.T.);
#538=EDGE_CURVE('',#731,#732,#849,.T.);
#539=EDGE_CURVE('',#730,#732,#52,.T.);
#540=EDGE_CURVE('',#733,#734,#850,.T.);
#541=EDGE_CURVE('',#733,#729,#851,.F.);
#542=EDGE_CURVE('',#730,#734,#852,.T.);
#543=EDGE_CURVE('',#735,#736,#853,.T.);
#544=EDGE_CURVE('',#735,#733,#53,.T.);
#545=EDGE_CURVE('',#736,#734,#54,.T.);
#546=EDGE_CURVE('',#737,#738,#854,.T.);
#547=EDGE_CURVE('',#737,#735,#855,.T.);
#548=EDGE_CURVE('',#738,#736,#856,.T.);
#549=EDGE_CURVE('',#739,#740,#857,.T.);
#550=EDGE_CURVE('',#739,#737,#55,.T.);
#551=EDGE_CURVE('',#740,#738,#56,.T.);
#552=EDGE_CURVE('',#741,#742,#858,.T.);
#553=EDGE_CURVE('',#741,#739,#859,.T.);
#554=EDGE_CURVE('',#742,#740,#860,.T.);
#555=EDGE_CURVE('',#743,#744,#861,.T.);
#556=EDGE_CURVE('',#743,#741,#57,.T.);
#557=EDGE_CURVE('',#744,#742,#58,.T.);
#558=EDGE_CURVE('',#745,#746,#862,.T.);
#559=EDGE_CURVE('',#745,#747,#59,.T.);
#560=EDGE_CURVE('',#747,#748,#863,.T.);
#561=EDGE_CURVE('',#746,#748,#60,.T.);
#562=EDGE_CURVE('',#749,#750,#864,.T.);
#563=EDGE_CURVE('',#749,#745,#865,.F.);
#564=EDGE_CURVE('',#746,#750,#866,.T.);
#565=EDGE_CURVE('',#751,#752,#867,.T.);
#566=EDGE_CURVE('',#751,#749,#61,.T.);
#567=EDGE_CURVE('',#752,#750,#62,.T.);
#568=EDGE_CURVE('',#753,#754,#868,.T.);
#569=EDGE_CURVE('',#753,#751,#869,.T.);
#570=EDGE_CURVE('',#754,#752,#870,.T.);
#571=EDGE_CURVE('',#755,#756,#871,.T.);
#572=EDGE_CURVE('',#755,#753,#63,.T.);
#573=EDGE_CURVE('',#756,#754,#64,.T.);
#574=EDGE_CURVE('',#757,#758,#872,.T.);
#575=EDGE_CURVE('',#757,#755,#873,.T.);
#576=EDGE_CURVE('',#758,#756,#874,.T.);
#577=EDGE_CURVE('',#759,#760,#875,.T.);
#578=EDGE_CURVE('',#759,#757,#65,.T.);
#579=EDGE_CURVE('',#760,#758,#66,.T.);
#580=EDGE_CURVE('',#761,#762,#876,.T.);
#581=EDGE_CURVE('',#761,#763,#877,.T.);
#582=EDGE_CURVE('',#763,#764,#878,.T.);
#583=EDGE_CURVE('',#762,#764,#879,.T.);
#584=EDGE_CURVE('',#765,#766,#880,.T.);
#585=EDGE_CURVE('',#765,#761,#67,.F.);
#586=EDGE_CURVE('',#762,#766,#68,.T.);
#587=EDGE_CURVE('',#767,#768,#881,.T.);
#588=EDGE_CURVE('',#767,#765,#882,.T.);
#589=EDGE_CURVE('',#768,#766,#883,.T.);
#590=EDGE_CURVE('',#769,#770,#884,.T.);
#591=EDGE_CURVE('',#769,#767,#69,.F.);
#592=EDGE_CURVE('',#768,#770,#70,.T.);
#593=EDGE_CURVE('',#771,#772,#885,.T.);
#594=EDGE_CURVE('',#771,#769,#886,.F.);
#595=EDGE_CURVE('',#770,#772,#887,.T.);
#596=EDGE_CURVE('',#773,#774,#888,.T.);
#597=EDGE_CURVE('',#773,#771,#71,.F.);
#598=EDGE_CURVE('',#772,#774,#72,.T.);
#599=EDGE_CURVE('',#775,#776,#889,.T.);
#600=EDGE_CURVE('',#775,#773,#890,.F.);
#601=EDGE_CURVE('',#774,#776,#891,.T.);
#602=EDGE_CURVE('',#777,#778,#892,.T.);
#603=EDGE_CURVE('',#777,#775,#73,.T.);
#604=EDGE_CURVE('',#778,#776,#74,.T.);
#605=EDGE_CURVE('',#779,#780,#893,.T.);
#606=EDGE_CURVE('',#779,#777,#894,.F.);
#607=EDGE_CURVE('',#778,#780,#895,.T.);
#608=EDGE_CURVE('',#781,#782,#896,.T.);
#609=EDGE_CURVE('',#781,#779,#75,.F.);
#610=EDGE_CURVE('',#780,#782,#76,.T.);
#611=EDGE_CURVE('',#783,#784,#897,.T.);
#612=EDGE_CURVE('',#783,#781,#898,.F.);
#613=EDGE_CURVE('',#782,#784,#899,.T.);
#614=EDGE_CURVE('',#785,#786,#900,.T.);
#615=EDGE_CURVE('',#785,#783,#77,.F.);
#616=EDGE_CURVE('',#784,#786,#78,.T.);
#617=EDGE_CURVE('',#787,#788,#901,.T.);
#618=EDGE_CURVE('',#787,#789,#79,.T.);
#619=EDGE_CURVE('',#789,#790,#902,.T.);
#620=EDGE_CURVE('',#788,#790,#80,.T.);
#621=EDGE_CURVE('',#791,#792,#903,.T.);
#622=EDGE_CURVE('',#791,#787,#904,.F.);
#623=EDGE_CURVE('',#788,#792,#905,.T.);
#624=EDGE_CURVE('',#793,#794,#906,.T.);
#625=EDGE_CURVE('',#793,#791,#81,.T.);
#626=EDGE_CURVE('',#794,#792,#82,.T.);
#627=EDGE_CURVE('',#795,#796,#907,.T.);
#628=EDGE_CURVE('',#795,#793,#908,.T.);
#629=EDGE_CURVE('',#796,#794,#909,.T.);
#630=EDGE_CURVE('',#797,#798,#910,.T.);
#631=EDGE_CURVE('',#797,#795,#83,.T.);
#632=EDGE_CURVE('',#798,#796,#84,.T.);
#633=EDGE_CURVE('',#799,#800,#911,.T.);
#634=EDGE_CURVE('',#799,#797,#912,.T.);
#635=EDGE_CURVE('',#800,#798,#913,.T.);
#636=EDGE_CURVE('',#801,#802,#914,.T.);
#637=EDGE_CURVE('',#801,#799,#85,.T.);
#638=EDGE_CURVE('',#802,#800,#86,.T.);
#639=EDGE_CURVE('',#747,#759,#915,.F.);
#640=EDGE_CURVE('',#760,#748,#916,.T.);
#641=EDGE_CURVE('',#763,#785,#917,.F.);
#642=EDGE_CURVE('',#786,#764,#918,.T.);
#643=EDGE_CURVE('',#803,#803,#87,.T.);
#644=EDGE_CURVE('',#804,#804,#88,.T.);
#645=EDGE_CURVE('',#805,#805,#89,.T.);
#646=EDGE_CURVE('',#806,#806,#90,.T.);
#647=EDGE_CURVE('',#807,#807,#91,.T.);
#648=EDGE_CURVE('',#808,#808,#92,.T.);
#649=EDGE_CURVE('',#809,#809,#93,.T.);
#650=EDGE_CURVE('',#810,#810,#94,.T.);
#651=EDGE_CURVE('',#789,#801,#919,.F.);
#652=EDGE_CURVE('',#802,#790,#920,.T.);
#653=EDGE_CURVE('',#731,#743,#921,.F.);
#654=EDGE_CURVE('',#744,#732,#922,.T.);
#655=EDGE_CURVE('',#811,#812,#923,.F.);
#656=EDGE_CURVE('',#812,#813,#95,.T.);
#657=EDGE_CURVE('',#813,#814,#924,.T.);
#658=EDGE_CURVE('',#814,#815,#96,.T.);
#659=EDGE_CURVE('',#815,#816,#925,.T.);
#660=EDGE_CURVE('',#816,#817,#97,.F.);
#661=EDGE_CURVE('',#817,#818,#926,.T.);
#662=EDGE_CURVE('',#818,#819,#98,.T.);
#663=EDGE_CURVE('',#819,#820,#927,.T.);
#664=EDGE_CURVE('',#820,#821,#99,.T.);
#665=EDGE_CURVE('',#821,#822,#928,.T.);
#666=EDGE_CURVE('',#822,#823,#929,.F.);
#667=EDGE_CURVE('',#823,#811,#100,.T.);
#668=EDGE_CURVE('',#824,#825,#930,.T.);
#669=EDGE_CURVE('',#825,#826,#101,.F.);
#670=EDGE_CURVE('',#826,#827,#931,.T.);
#671=EDGE_CURVE('',#827,#828,#102,.F.);
#672=EDGE_CURVE('',#828,#829,#932,.F.);
#673=EDGE_CURVE('',#829,#830,#103,.F.);
#674=EDGE_CURVE('',#830,#831,#933,.F.);
#675=EDGE_CURVE('',#831,#824,#104,.F.);
#676=EDGE_CURVE('',#832,#833,#934,.T.);
#677=EDGE_CURVE('',#833,#834,#105,.F.);
#678=EDGE_CURVE('',#834,#835,#935,.T.);
#679=EDGE_CURVE('',#835,#836,#106,.F.);
#680=EDGE_CURVE('',#836,#837,#936,.F.);
#681=EDGE_CURVE('',#837,#838,#107,.F.);
#682=EDGE_CURVE('',#838,#839,#937,.F.);
#683=EDGE_CURVE('',#839,#832,#108,.F.);
#684=EDGE_CURVE('',#840,#841,#938,.T.);
#685=EDGE_CURVE('',#841,#842,#109,.F.);
#686=EDGE_CURVE('',#842,#843,#939,.T.);
#687=EDGE_CURVE('',#843,#844,#110,.F.);
#688=EDGE_CURVE('',#844,#845,#940,.F.);
#689=EDGE_CURVE('',#845,#846,#111,.F.);
#690=EDGE_CURVE('',#846,#847,#941,.F.);
#691=EDGE_CURVE('',#847,#840,#112,.F.);
#692=EDGE_CURVE('',#846,#755,#113,.T.);
#693=EDGE_CURVE('',#753,#845,#114,.T.);
#694=EDGE_CURVE('',#751,#844,#115,.T.);
#695=EDGE_CURVE('',#847,#757,#116,.T.);
#696=EDGE_CURVE('',#749,#843,#117,.T.);
#697=EDGE_CURVE('',#840,#759,#118,.T.);
#698=EDGE_CURVE('',#745,#842,#119,.T.);
#699=EDGE_CURVE('',#841,#747,#120,.T.);
#700=EDGE_CURVE('',#838,#739,#121,.T.);
#701=EDGE_CURVE('',#737,#837,#122,.T.);
#702=EDGE_CURVE('',#735,#836,#123,.T.);
#703=EDGE_CURVE('',#839,#741,#124,.T.);
#704=EDGE_CURVE('',#733,#835,#125,.T.);
#705=EDGE_CURVE('',#832,#743,#126,.T.);
#706=EDGE_CURVE('',#729,#834,#127,.T.);
#707=EDGE_CURVE('',#833,#731,#128,.T.);
#708=EDGE_CURVE('',#830,#797,#129,.T.);
#709=EDGE_CURVE('',#795,#829,#130,.T.);
#710=EDGE_CURVE('',#793,#828,#131,.T.);
#711=EDGE_CURVE('',#831,#799,#132,.T.);
#712=EDGE_CURVE('',#791,#827,#133,.T.);
#713=EDGE_CURVE('',#824,#801,#134,.T.);
#714=EDGE_CURVE('',#787,#826,#135,.T.);
#715=EDGE_CURVE('',#825,#789,#136,.T.);
#716=EDGE_CURVE('',#820,#783,#137,.T.);
#717=EDGE_CURVE('',#781,#819,#138,.T.);
#718=EDGE_CURVE('',#779,#818,#139,.T.);
#719=EDGE_CURVE('',#821,#785,#140,.T.);
#720=EDGE_CURVE('',#777,#817,#141,.T.);
#721=EDGE_CURVE('',#822,#763,#142,.T.);
#722=EDGE_CURVE('',#775,#816,#143,.T.);
#723=EDGE_CURVE('',#823,#761,#144,.T.);
#724=EDGE_CURVE('',#773,#815,#145,.T.);
#725=EDGE_CURVE('',#811,#765,#146,.T.);
#726=EDGE_CURVE('',#771,#814,#147,.T.);
#727=EDGE_CURVE('',#812,#767,#148,.T.);
#728=EDGE_CURVE('',#769,#813,#149,.T.);
#729=VERTEX_POINT('',#2002);
#730=VERTEX_POINT('',#2003);
#731=VERTEX_POINT('',#2005);
#732=VERTEX_POINT('',#2007);
#733=VERTEX_POINT('',#2011);
#734=VERTEX_POINT('',#2012);
#735=VERTEX_POINT('',#2017);
#736=VERTEX_POINT('',#2018);
#737=VERTEX_POINT('',#2023);
#738=VERTEX_POINT('',#2024);
#739=VERTEX_POINT('',#2029);
#740=VERTEX_POINT('',#2030);
#741=VERTEX_POINT('',#2035);
#742=VERTEX_POINT('',#2036);
#743=VERTEX_POINT('',#2041);
#744=VERTEX_POINT('',#2042);
#745=VERTEX_POINT('',#2047);
#746=VERTEX_POINT('',#2048);
#747=VERTEX_POINT('',#2050);
#748=VERTEX_POINT('',#2052);
#749=VERTEX_POINT('',#2056);
#750=VERTEX_POINT('',#2057);
#751=VERTEX_POINT('',#2062);
#752=VERTEX_POINT('',#2063);
#753=VERTEX_POINT('',#2068);
#754=VERTEX_POINT('',#2069);
#755=VERTEX_POINT('',#2074);
#756=VERTEX_POINT('',#2075);
#757=VERTEX_POINT('',#2080);
#758=VERTEX_POINT('',#2081);
#759=VERTEX_POINT('',#2086);
#760=VERTEX_POINT('',#2087);
#761=VERTEX_POINT('',#2092);
#762=VERTEX_POINT('',#2093);
#763=VERTEX_POINT('',#2095);
#764=VERTEX_POINT('',#2097);
#765=VERTEX_POINT('',#2101);
#766=VERTEX_POINT('',#2102);
#767=VERTEX_POINT('',#2107);
#768=VERTEX_POINT('',#2108);
#769=VERTEX_POINT('',#2113);
#770=VERTEX_POINT('',#2114);
#771=VERTEX_POINT('',#2119);
#772=VERTEX_POINT('',#2120);
#773=VERTEX_POINT('',#2125);
#774=VERTEX_POINT('',#2126);
#775=VERTEX_POINT('',#2131);
#776=VERTEX_POINT('',#2132);
#777=VERTEX_POINT('',#2137);
#778=VERTEX_POINT('',#2138);
#779=VERTEX_POINT('',#2143);
#780=VERTEX_POINT('',#2144);
#781=VERTEX_POINT('',#2149);
#782=VERTEX_POINT('',#2150);
#783=VERTEX_POINT('',#2155);
#784=VERTEX_POINT('',#2156);
#785=VERTEX_POINT('',#2161);
#786=VERTEX_POINT('',#2162);
#787=VERTEX_POINT('',#2167);
#788=VERTEX_POINT('',#2168);
#789=VERTEX_POINT('',#2170);
#790=VERTEX_POINT('',#2172);
#791=VERTEX_POINT('',#2176);
#792=VERTEX_POINT('',#2177);
#793=VERTEX_POINT('',#2182);
#794=VERTEX_POINT('',#2183);
#795=VERTEX_POINT('',#2188);
#796=VERTEX_POINT('',#2189);
#797=VERTEX_POINT('',#2194);
#798=VERTEX_POINT('',#2195);
#799=VERTEX_POINT('',#2200);
#800=VERTEX_POINT('',#2201);
#801=VERTEX_POINT('',#2206);
#802=VERTEX_POINT('',#2207);
#803=VERTEX_POINT('',#2218);
#804=VERTEX_POINT('',#2220);
#805=VERTEX_POINT('',#2223);
#806=VERTEX_POINT('',#2225);
#807=VERTEX_POINT('',#2228);
#808=VERTEX_POINT('',#2230);
#809=VERTEX_POINT('',#2233);
#810=VERTEX_POINT('',#2235);
#811=VERTEX_POINT('',#2244);
#812=VERTEX_POINT('',#2245);
#813=VERTEX_POINT('',#2247);
#814=VERTEX_POINT('',#2249);
#815=VERTEX_POINT('',#2251);
#816=VERTEX_POINT('',#2253);
#817=VERTEX_POINT('',#2255);
#818=VERTEX_POINT('',#2257);
#819=VERTEX_POINT('',#2259);
#820=VERTEX_POINT('',#2261);
#821=VERTEX_POINT('',#2263);
#822=VERTEX_POINT('',#2265);
#823=VERTEX_POINT('',#2267);
#824=VERTEX_POINT('',#2270);
#825=VERTEX_POINT('',#2271);
#826=VERTEX_POINT('',#2273);
#827=VERTEX_POINT('',#2275);
#828=VERTEX_POINT('',#2277);
#829=VERTEX_POINT('',#2279);
#830=VERTEX_POINT('',#2281);
#831=VERTEX_POINT('',#2283);
#832=VERTEX_POINT('',#2286);
#833=VERTEX_POINT('',#2287);
#834=VERTEX_POINT('',#2289);
#835=VERTEX_POINT('',#2291);
#836=VERTEX_POINT('',#2293);
#837=VERTEX_POINT('',#2295);
#838=VERTEX_POINT('',#2297);
#839=VERTEX_POINT('',#2299);
#840=VERTEX_POINT('',#2302);
#841=VERTEX_POINT('',#2303);
#842=VERTEX_POINT('',#2305);
#843=VERTEX_POINT('',#2307);
#844=VERTEX_POINT('',#2309);
#845=VERTEX_POINT('',#2311);
#846=VERTEX_POINT('',#2313);
#847=VERTEX_POINT('',#2315);
#848=LINE('',#2001,#942);
#849=LINE('',#2006,#943);
#850=LINE('',#2010,#944);
#851=LINE('',#2013,#945);
#852=LINE('',#2014,#946);
#853=LINE('',#2016,#947);
#854=LINE('',#2022,#948);
#855=LINE('',#2025,#949);
#856=LINE('',#2026,#950);
#857=LINE('',#2028,#951);
#858=LINE('',#2034,#952);
#859=LINE('',#2037,#953);
#860=LINE('',#2038,#954);
#861=LINE('',#2040,#955);
#862=LINE('',#2046,#956);
#863=LINE('',#2051,#957);
#864=LINE('',#2055,#958);
#865=LINE('',#2058,#959);
#866=LINE('',#2059,#960);
#867=LINE('',#2061,#961);
#868=LINE('',#2067,#962);
#869=LINE('',#2070,#963);
#870=LINE('',#2071,#964);
#871=LINE('',#2073,#965);
#872=LINE('',#2079,#966);
#873=LINE('',#2082,#967);
#874=LINE('',#2083,#968);
#875=LINE('',#2085,#969);
#876=LINE('',#2091,#970);
#877=LINE('',#2094,#971);
#878=LINE('',#2096,#972);
#879=LINE('',#2098,#973);
#880=LINE('',#2100,#974);
#881=LINE('',#2106,#975);
#882=LINE('',#2109,#976);
#883=LINE('',#2110,#977);
#884=LINE('',#2112,#978);
#885=LINE('',#2118,#979);
#886=LINE('',#2121,#980);
#887=LINE('',#2122,#981);
#888=LINE('',#2124,#982);
#889=LINE('',#2130,#983);
#890=LINE('',#2133,#984);
#891=LINE('',#2134,#985);
#892=LINE('',#2136,#986);
#893=LINE('',#2142,#987);
#894=LINE('',#2145,#988);
#895=LINE('',#2146,#989);
#896=LINE('',#2148,#990);
#897=LINE('',#2154,#991);
#898=LINE('',#2157,#992);
#899=LINE('',#2158,#993);
#900=LINE('',#2160,#994);
#901=LINE('',#2166,#995);
#902=LINE('',#2171,#996);
#903=LINE('',#2175,#997);
#904=LINE('',#2178,#998);
#905=LINE('',#2179,#999);
#906=LINE('',#2181,#1000);
#907=LINE('',#2187,#1001);
#908=LINE('',#2190,#1002);
#909=LINE('',#2191,#1003);
#910=LINE('',#2193,#1004);
#911=LINE('',#2199,#1005);
#912=LINE('',#2202,#1006);
#913=LINE('',#2203,#1007);
#914=LINE('',#2205,#1008);
#915=LINE('',#2211,#1009);
#916=LINE('',#2212,#1010);
#917=LINE('',#2214,#1011);
#918=LINE('',#2215,#1012);
#919=LINE('',#2237,#1013);
#920=LINE('',#2238,#1014);
#921=LINE('',#2240,#1015);
#922=LINE('',#2241,#1016);
#923=LINE('',#2243,#1017);
#924=LINE('',#2248,#1018);
#925=LINE('',#2252,#1019);
#926=LINE('',#2256,#1020);
#927=LINE('',#2260,#1021);
#928=LINE('',#2264,#1022);
#929=LINE('',#2266,#1023);
#930=LINE('',#2269,#1024);
#931=LINE('',#2274,#1025);
#932=LINE('',#2278,#1026);
#933=LINE('',#2282,#1027);
#934=LINE('',#2285,#1028);
#935=LINE('',#2290,#1029);
#936=LINE('',#2294,#1030);
#937=LINE('',#2298,#1031);
#938=LINE('',#2301,#1032);
#939=LINE('',#2306,#1033);
#940=LINE('',#2310,#1034);
#941=LINE('',#2314,#1035);
#942=VECTOR('',#1549,1000.);
#943=VECTOR('',#1552,1000.);
#944=VECTOR('',#1557,1000.);
#945=VECTOR('',#1558,1000.);
#946=VECTOR('',#1559,1000.);
#947=VECTOR('',#1562,1000.);
#948=VECTOR('',#1569,1000.);
#949=VECTOR('',#1570,1000.);
#950=VECTOR('',#1571,1000.);
#951=VECTOR('',#1574,1000.);
#952=VECTOR('',#1581,1000.);
#953=VECTOR('',#1582,1000.);
#954=VECTOR('',#1583,1000.);
#955=VECTOR('',#1586,1000.);
#956=VECTOR('',#1593,1000.);
#957=VECTOR('',#1596,1000.);
#958=VECTOR('',#1601,1000.);
#959=VECTOR('',#1602,1000.);
#960=VECTOR('',#1603,1000.);
#961=VECTOR('',#1606,1000.);
#962=VECTOR('',#1613,1000.);
#963=VECTOR('',#1614,1000.);
#964=VECTOR('',#1615,1000.);
#965=VECTOR('',#1618,1000.);
#966=VECTOR('',#1625,1000.);
#967=VECTOR('',#1626,1000.);
#968=VECTOR('',#1627,1000.);
#969=VECTOR('',#1630,1000.);
#970=VECTOR('',#1637,1000.);
#971=VECTOR('',#1638,1000.);
#972=VECTOR('',#1639,1000.);
#973=VECTOR('',#1640,1000.);
#974=VECTOR('',#1643,1000.);
#975=VECTOR('',#1650,1000.);
#976=VECTOR('',#1651,1000.);
#977=VECTOR('',#1652,1000.);
#978=VECTOR('',#1655,1000.);
#979=VECTOR('',#1662,1000.);
#980=VECTOR('',#1663,1000.);
#981=VECTOR('',#1664,1000.);
#982=VECTOR('',#1667,1000.);
#983=VECTOR('',#1674,1000.);
#984=VECTOR('',#1675,1000.);
#985=VECTOR('',#1676,1000.);
#986=VECTOR('',#1679,1000.);
#987=VECTOR('',#1686,1000.);
#988=VECTOR('',#1687,1000.);
#989=VECTOR('',#1688,1000.);
#990=VECTOR('',#1691,1000.);
#991=VECTOR('',#1698,1000.);
#992=VECTOR('',#1699,1000.);
#993=VECTOR('',#1700,1000.);
#994=VECTOR('',#1703,1000.);
#995=VECTOR('',#1710,1000.);
#996=VECTOR('',#1713,1000.);
#997=VECTOR('',#1718,1000.);
#998=VECTOR('',#1719,1000.);
#999=VECTOR('',#1720,1000.);
#1000=VECTOR('',#1723,1000.);
#1001=VECTOR('',#1730,1000.);
#1002=VECTOR('',#1731,1000.);
#1003=VECTOR('',#1732,1000.);
#1004=VECTOR('',#1735,1000.);
#1005=VECTOR('',#1742,1000.);
#1006=VECTOR('',#1743,1000.);
#1007=VECTOR('',#1744,1000.);
#1008=VECTOR('',#1747,1000.);
#1009=VECTOR('',#1754,1000.);
#1010=VECTOR('',#1755,1000.);
#1011=VECTOR('',#1758,1000.);
#1012=VECTOR('',#1759,1000.);
#1013=VECTOR('',#1786,1000.);
#1014=VECTOR('',#1787,1000.);
#1015=VECTOR('',#1790,1000.);
#1016=VECTOR('',#1791,1000.);
#1017=VECTOR('',#1794,1000.);
#1018=VECTOR('',#1797,1000.);
#1019=VECTOR('',#1800,1000.);
#1020=VECTOR('',#1803,1000.);
#1021=VECTOR('',#1806,1000.);
#1022=VECTOR('',#1809,1000.);
#1023=VECTOR('',#1810,1000.);
#1024=VECTOR('',#1813,1000.);
#1025=VECTOR('',#1816,1000.);
#1026=VECTOR('',#1819,1000.);
#1027=VECTOR('',#1822,1000.);
#1028=VECTOR('',#1825,1000.);
#1029=VECTOR('',#1828,1000.);
#1030=VECTOR('',#1831,1000.);
#1031=VECTOR('',#1834,1000.);
#1032=VECTOR('',#1837,1000.);
#1033=VECTOR('',#1840,1000.);
#1034=VECTOR('',#1843,1000.);
#1035=VECTOR('',#1846,1000.);
#1036=EDGE_LOOP('',(#150,#151,#152,#153));
#1037=EDGE_LOOP('',(#154,#155,#156,#157));
#1038=EDGE_LOOP('',(#158,#159,#160,#161));
#1039=EDGE_LOOP('',(#162,#163,#164,#165));
#1040=EDGE_LOOP('',(#166,#167,#168,#169));
#1041=EDGE_LOOP('',(#170,#171,#172,#173));
#1042=EDGE_LOOP('',(#174,#175,#176,#177));
#1043=EDGE_LOOP('',(#178,#179,#180,#181));
#1044=EDGE_LOOP('',(#182,#183,#184,#185));
#1045=EDGE_LOOP('',(#186,#187,#188,#189));
#1046=EDGE_LOOP('',(#190,#191,#192,#193));
#1047=EDGE_LOOP('',(#194,#195,#196,#197));
#1048=EDGE_LOOP('',(#198,#199,#200,#201));
#1049=EDGE_LOOP('',(#202,#203,#204,#205));
#1050=EDGE_LOOP('',(#206,#207,#208,#209));
#1051=EDGE_LOOP('',(#210,#211,#212,#213));
#1052=EDGE_LOOP('',(#214,#215,#216,#217));
#1053=EDGE_LOOP('',(#218,#219,#220,#221));
#1054=EDGE_LOOP('',(#222,#223,#224,#225));
#1055=EDGE_LOOP('',(#226,#227,#228,#229));
#1056=EDGE_LOOP('',(#230,#231,#232,#233));
#1057=EDGE_LOOP('',(#234,#235,#236,#237));
#1058=EDGE_LOOP('',(#238,#239,#240,#241));
#1059=EDGE_LOOP('',(#242,#243,#244,#245));
#1060=EDGE_LOOP('',(#246,#247,#248,#249));
#1061=EDGE_LOOP('',(#250,#251,#252,#253));
#1062=EDGE_LOOP('',(#254,#255,#256,#257));
#1063=EDGE_LOOP('',(#258,#259,#260,#261));
#1064=EDGE_LOOP('',(#262,#263,#264,#265));
#1065=EDGE_LOOP('',(#266,#267,#268,#269));
#1066=EDGE_LOOP('',(#270,#271,#272,#273));
#1067=EDGE_LOOP('',(#274,#275,#276,#277));
#1068=EDGE_LOOP('',(#278,#279,#280,#281));
#1069=EDGE_LOOP('',(#282,#283,#284,#285));
#1070=EDGE_LOOP('',(#286,#287,#288,#289));
#1071=EDGE_LOOP('',(#290));
#1072=EDGE_LOOP('',(#291));
#1073=EDGE_LOOP('',(#292));
#1074=EDGE_LOOP('',(#293));
#1075=EDGE_LOOP('',(#294));
#1076=EDGE_LOOP('',(#295));
#1077=EDGE_LOOP('',(#296));
#1078=EDGE_LOOP('',(#297));
#1079=EDGE_LOOP('',(#298,#299,#300,#301));
#1080=EDGE_LOOP('',(#302,#303,#304,#305));
#1081=EDGE_LOOP('',(#306,#307,#308,#309,#310,#311,#312,#313,#314,#315,#316,
#317,#318));
#1082=EDGE_LOOP('',(#319,#320,#321,#322,#323,#324,#325,#326));
#1083=EDGE_LOOP('',(#327,#328,#329,#330,#331,#332,#333,#334));
#1084=EDGE_LOOP('',(#335,#336,#337,#338,#339,#340,#341,#342));
#1085=EDGE_LOOP('',(#343));
#1086=EDGE_LOOP('',(#344));
#1087=EDGE_LOOP('',(#345));
#1088=EDGE_LOOP('',(#346));
#1089=EDGE_LOOP('',(#347,#348,#349,#350,#351,#352,#353,#354));
#1090=EDGE_LOOP('',(#355));
#1091=EDGE_LOOP('',(#356));
#1092=EDGE_LOOP('',(#357));
#1093=EDGE_LOOP('',(#358));
#1094=EDGE_LOOP('',(#359,#360,#361,#362,#363,#364,#365,#366,#367,#368,#369,
#370,#371));
#1095=EDGE_LOOP('',(#372,#373,#374,#375,#376,#377,#378,#379));
#1096=EDGE_LOOP('',(#380,#381,#382,#383,#384,#385,#386,#387));
#1097=EDGE_LOOP('',(#388,#389,#390,#391));
#1098=EDGE_LOOP('',(#392,#393,#394,#395));
#1099=EDGE_LOOP('',(#396,#397,#398,#399));
#1100=EDGE_LOOP('',(#400,#401,#402,#403));
#1101=EDGE_LOOP('',(#404,#405,#406,#407));
#1102=EDGE_LOOP('',(#408,#409,#410,#411));
#1103=EDGE_LOOP('',(#412,#413,#414,#415));
#1104=EDGE_LOOP('',(#416,#417,#418,#419));
#1105=EDGE_LOOP('',(#420,#421,#422,#423));
#1106=EDGE_LOOP('',(#424,#425,#426,#427));
#1107=EDGE_LOOP('',(#428,#429,#430,#431));
#1108=EDGE_LOOP('',(#432,#433,#434,#435));
#1109=EDGE_LOOP('',(#436,#437,#438,#439));
#1110=EDGE_LOOP('',(#440,#441,#442,#443));
#1111=EDGE_LOOP('',(#444,#445,#446,#447));
#1112=EDGE_LOOP('',(#448,#449,#450,#451));
#1113=EDGE_LOOP('',(#452,#453,#454,#455));
#1114=EDGE_LOOP('',(#456,#457,#458,#459));
#1115=EDGE_LOOP('',(#460,#461,#462,#463));
#1116=EDGE_LOOP('',(#464,#465,#466,#467));
#1117=EDGE_LOOP('',(#468,#469,#470,#471));
#1118=EDGE_LOOP('',(#472,#473,#474,#475));
#1119=EDGE_LOOP('',(#476,#477,#478,#479));
#1120=EDGE_LOOP('',(#480,#481,#482,#483));
#1121=EDGE_LOOP('',(#484,#485,#486,#487));
#1122=EDGE_LOOP('',(#488,#489,#490,#491));
#1123=EDGE_LOOP('',(#492,#493,#494,#495));
#1124=EDGE_LOOP('',(#496,#497,#498,#499));
#1125=EDGE_LOOP('',(#500,#501,#502,#503));
#1126=EDGE_LOOP('',(#504,#505,#506,#507));
#1127=EDGE_LOOP('',(#508,#509,#510,#511));
#1128=EDGE_LOOP('',(#512,#513,#514,#515));
#1129=EDGE_LOOP('',(#516,#517,#518,#519));
#1130=EDGE_LOOP('',(#520,#521,#522,#523));
#1131=EDGE_LOOP('',(#524,#525,#526,#527));
#1132=EDGE_LOOP('',(#528,#529,#530,#531));
#1133=EDGE_LOOP('',(#532,#533,#534,#535));
#1134=FACE_BOUND('',#1036,.T.);
#1135=FACE_BOUND('',#1037,.T.);
#1136=FACE_BOUND('',#1038,.T.);
#1137=FACE_BOUND('',#1039,.T.);
#1138=FACE_BOUND('',#1040,.T.);
#1139=FACE_BOUND('',#1041,.T.);
#1140=FACE_BOUND('',#1042,.T.);
#1141=FACE_BOUND('',#1043,.T.);
#1142=FACE_BOUND('',#1044,.T.);
#1143=FACE_BOUND('',#1045,.T.);
#1144=FACE_BOUND('',#1046,.T.);
#1145=FACE_BOUND('',#1047,.T.);
#1146=FACE_BOUND('',#1048,.T.);
#1147=FACE_BOUND('',#1049,.T.);
#1148=FACE_BOUND('',#1050,.T.);
#1149=FACE_BOUND('',#1051,.T.);
#1150=FACE_BOUND('',#1052,.T.);
#1151=FACE_BOUND('',#1053,.T.);
#1152=FACE_BOUND('',#1054,.T.);
#1153=FACE_BOUND('',#1055,.T.);
#1154=FACE_BOUND('',#1056,.T.);
#1155=FACE_BOUND('',#1057,.T.);
#1156=FACE_BOUND('',#1058,.T.);
#1157=FACE_BOUND('',#1059,.T.);
#1158=FACE_BOUND('',#1060,.T.);
#1159=FACE_BOUND('',#1061,.T.);
#1160=FACE_BOUND('',#1062,.T.);
#1161=FACE_BOUND('',#1063,.T.);
#1162=FACE_BOUND('',#1064,.T.);
#1163=FACE_BOUND('',#1065,.T.);
#1164=FACE_BOUND('',#1066,.T.);
#1165=FACE_BOUND('',#1067,.T.);
#1166=FACE_BOUND('',#1068,.T.);
#1167=FACE_BOUND('',#1069,.T.);
#1168=FACE_BOUND('',#1070,.T.);
#1169=FACE_BOUND('',#1071,.T.);
#1170=FACE_BOUND('',#1072,.T.);
#1171=FACE_BOUND('',#1073,.T.);
#1172=FACE_BOUND('',#1074,.T.);
#1173=FACE_BOUND('',#1075,.T.);
#1174=FACE_BOUND('',#1076,.T.);
#1175=FACE_BOUND('',#1077,.T.);
#1176=FACE_BOUND('',#1078,.T.);
#1177=FACE_BOUND('',#1079,.T.);
#1178=FACE_BOUND('',#1080,.T.);
#1179=FACE_BOUND('',#1081,.T.);
#1180=FACE_BOUND('',#1082,.T.);
#1181=FACE_BOUND('',#1083,.T.);
#1182=FACE_BOUND('',#1084,.T.);
#1183=FACE_BOUND('',#1085,.T.);
#1184=FACE_BOUND('',#1086,.T.);
#1185=FACE_BOUND('',#1087,.T.);
#1186=FACE_BOUND('',#1088,.T.);
#1187=FACE_BOUND('',#1089,.T.);
#1188=FACE_BOUND('',#1090,.T.);
#1189=FACE_BOUND('',#1091,.T.);
#1190=FACE_BOUND('',#1092,.T.);
#1191=FACE_BOUND('',#1093,.T.);
#1192=FACE_BOUND('',#1094,.T.);
#1193=FACE_BOUND('',#1095,.T.);
#1194=FACE_BOUND('',#1096,.T.);
#1195=FACE_BOUND('',#1097,.T.);
#1196=FACE_BOUND('',#1098,.T.);
#1197=FACE_BOUND('',#1099,.T.);
#1198=FACE_BOUND('',#1100,.T.);
#1199=FACE_BOUND('',#1101,.T.);
#1200=FACE_BOUND('',#1102,.T.);
#1201=FACE_BOUND('',#1103,.T.);
#1202=FACE_BOUND('',#1104,.T.);
#1203=FACE_BOUND('',#1105,.T.);
#1204=FACE_BOUND('',#1106,.T.);
#1205=FACE_BOUND('',#1107,.T.);
#1206=FACE_BOUND('',#1108,.T.);
#1207=FACE_BOUND('',#1109,.T.);
#1208=FACE_BOUND('',#1110,.T.);
#1209=FACE_BOUND('',#1111,.T.);
#1210=FACE_BOUND('',#1112,.T.);
#1211=FACE_BOUND('',#1113,.T.);
#1212=FACE_BOUND('',#1114,.T.);
#1213=FACE_BOUND('',#1115,.T.);
#1214=FACE_BOUND('',#1116,.T.);
#1215=FACE_BOUND('',#1117,.T.);
#1216=FACE_BOUND('',#1118,.T.);
#1217=FACE_BOUND('',#1119,.T.);
#1218=FACE_BOUND('',#1120,.T.);
#1219=FACE_BOUND('',#1121,.T.);
#1220=FACE_BOUND('',#1122,.T.);
#1221=FACE_BOUND('',#1123,.T.);
#1222=FACE_BOUND('',#1124,.T.);
#1223=FACE_BOUND('',#1125,.T.);
#1224=FACE_BOUND('',#1126,.T.);
#1225=FACE_BOUND('',#1127,.T.);
#1226=FACE_BOUND('',#1128,.T.);
#1227=FACE_BOUND('',#1129,.T.);
#1228=FACE_BOUND('',#1130,.T.);
#1229=FACE_BOUND('',#1131,.T.);
#1230=FACE_BOUND('',#1132,.T.);
#1231=FACE_BOUND('',#1133,.T.);
#1232=CYLINDRICAL_SURFACE('',#1366,1.);
#1233=CYLINDRICAL_SURFACE('',#1370,1.);
#1234=CYLINDRICAL_SURFACE('',#1374,1.);
#1235=CYLINDRICAL_SURFACE('',#1378,1.);
#1236=CYLINDRICAL_SURFACE('',#1381,1.5);
#1237=CYLINDRICAL_SURFACE('',#1385,1.5);
#1238=CYLINDRICAL_SURFACE('',#1389,1.5);
#1239=CYLINDRICAL_SURFACE('',#1393,1.49999999999999);
#1240=CYLINDRICAL_SURFACE('',#1397,6.);
#1241=CYLINDRICAL_SURFACE('',#1401,6.);
#1242=CYLINDRICAL_SURFACE('',#1405,6.);
#1243=CYLINDRICAL_SURFACE('',#1409,3.);
#1244=CYLINDRICAL_SURFACE('',#1413,4.);
#1245=CYLINDRICAL_SURFACE('',#1417,6.);
#1246=CYLINDRICAL_SURFACE('',#1420,4.);
#1247=CYLINDRICAL_SURFACE('',#1424,4.);
#1248=CYLINDRICAL_SURFACE('',#1428,4.);
#1249=CYLINDRICAL_SURFACE('',#1432,4.);
#1250=CYLINDRICAL_SURFACE('',#1437,1.7);
#1251=CYLINDRICAL_SURFACE('',#1440,1.7);
#1252=CYLINDRICAL_SURFACE('',#1443,1.7);
#1253=CYLINDRICAL_SURFACE('',#1446,1.7);
#1254=CYLINDRICAL_SURFACE('',#1474,2.);
#1255=CYLINDRICAL_SURFACE('',#1476,2.);
#1256=CYLINDRICAL_SURFACE('',#1482,2.);
#1257=CYLINDRICAL_SURFACE('',#1484,2.);
#1258=CYLINDRICAL_SURFACE('',#1490,1.);
#1259=CYLINDRICAL_SURFACE('',#1492,1.);
#1260=CYLINDRICAL_SURFACE('',#1498,1.);
#1261=CYLINDRICAL_SURFACE('',#1500,1.);
#1262=CYLINDRICAL_SURFACE('',#1506,1.5);
#1263=CYLINDRICAL_SURFACE('',#1508,1.5);
#1264=CYLINDRICAL_SURFACE('',#1514,1.5);
#1265=CYLINDRICAL_SURFACE('',#1516,1.5);
#1266=CYLINDRICAL_SURFACE('',#1519,1.5);
#1267=CYLINDRICAL_SURFACE('',#1526,1.5);
#1268=CYLINDRICAL_SURFACE('',#1528,1.5);
#1269=CYLINDRICAL_SURFACE('',#1532,1.5);
#1270=CYLINDRICAL_SURFACE('',#1534,1.5);
#1271=CYLINDRICAL_SURFACE('',#1540,1.5);
#1272=CYLINDRICAL_SURFACE('',#1542,1.5);
#1273=ADVANCED_FACE('',(#1134),#1232,.F.);
#1274=ADVANCED_FACE('',(#1135),#30,.F.);
#1275=ADVANCED_FACE('',(#1136),#1233,.F.);
#1276=ADVANCED_FACE('',(#1137),#31,.T.);
#1277=ADVANCED_FACE('',(#1138),#1234,.F.);
#1278=ADVANCED_FACE('',(#1139),#32,.T.);
#1279=ADVANCED_FACE('',(#1140),#1235,.F.);
#1280=ADVANCED_FACE('',(#1141),#1236,.F.);
#1281=ADVANCED_FACE('',(#1142),#33,.F.);
#1282=ADVANCED_FACE('',(#1143),#1237,.F.);
#1283=ADVANCED_FACE('',(#1144),#34,.T.);
#1284=ADVANCED_FACE('',(#1145),#1238,.F.);
#1285=ADVANCED_FACE('',(#1146),#35,.T.);
#1286=ADVANCED_FACE('',(#1147),#1239,.F.);
#1287=ADVANCED_FACE('',(#1148),#36,.T.);
#1288=ADVANCED_FACE('',(#1149),#1240,.T.);
#1289=ADVANCED_FACE('',(#1150),#37,.T.);
#1290=ADVANCED_FACE('',(#1151),#1241,.T.);
#1291=ADVANCED_FACE('',(#1152),#38,.F.);
#1292=ADVANCED_FACE('',(#1153),#1242,.T.);
#1293=ADVANCED_FACE('',(#1154),#39,.F.);
#1294=ADVANCED_FACE('',(#1155),#1243,.F.);
#1295=ADVANCED_FACE('',(#1156),#40,.F.);
#1296=ADVANCED_FACE('',(#1157),#1244,.T.);
#1297=ADVANCED_FACE('',(#1158),#41,.F.);
#1298=ADVANCED_FACE('',(#1159),#1245,.T.);
#1299=ADVANCED_FACE('',(#1160),#1246,.F.);
#1300=ADVANCED_FACE('',(#1161),#42,.F.);
#1301=ADVANCED_FACE('',(#1162),#1247,.F.);
#1302=ADVANCED_FACE('',(#1163),#43,.T.);
#1303=ADVANCED_FACE('',(#1164),#1248,.F.);
#1304=ADVANCED_FACE('',(#1165),#44,.T.);
#1305=ADVANCED_FACE('',(#1166),#1249,.F.);
#1306=ADVANCED_FACE('',(#1167),#45,.F.);
#1307=ADVANCED_FACE('',(#1168),#46,.F.);
#1308=ADVANCED_FACE('',(#1169,#1170),#1250,.F.);
#1309=ADVANCED_FACE('',(#1171,#1172),#1251,.F.);
#1310=ADVANCED_FACE('',(#1173,#1174),#1252,.F.);
#1311=ADVANCED_FACE('',(#1175,#1176),#1253,.F.);
#1312=ADVANCED_FACE('',(#1177),#47,.F.);
#1313=ADVANCED_FACE('',(#1178),#48,.F.);
#1314=ADVANCED_FACE('',(#1179,#1180,#1181,#1182,#1183,#1184,#1185,#1186),
#49,.T.);
#1315=ADVANCED_FACE('',(#1187,#1188,#1189,#1190,#1191,#1192,#1193,#1194),
#50,.F.);
#1316=ADVANCED_FACE('',(#1195),#12,.T.);
#1317=ADVANCED_FACE('',(#1196),#1254,.T.);
#1318=ADVANCED_FACE('',(#1197),#1255,.T.);
#1319=ADVANCED_FACE('',(#1198),#13,.T.);
#1320=ADVANCED_FACE('',(#1199),#14,.T.);
#1321=ADVANCED_FACE('',(#1200),#1256,.T.);
#1322=ADVANCED_FACE('',(#1201),#1257,.T.);
#1323=ADVANCED_FACE('',(#1202),#15,.T.);
#1324=ADVANCED_FACE('',(#1203),#16,.T.);
#1325=ADVANCED_FACE('',(#1204),#1258,.T.);
#1326=ADVANCED_FACE('',(#1205),#1259,.T.);
#1327=ADVANCED_FACE('',(#1206),#17,.T.);
#1328=ADVANCED_FACE('',(#1207),#18,.T.);
#1329=ADVANCED_FACE('',(#1208),#1260,.T.);
#1330=ADVANCED_FACE('',(#1209),#1261,.T.);
#1331=ADVANCED_FACE('',(#1210),#19,.T.);
#1332=ADVANCED_FACE('',(#1211),#20,.T.);
#1333=ADVANCED_FACE('',(#1212),#1262,.T.);
#1334=ADVANCED_FACE('',(#1213),#1263,.T.);
#1335=ADVANCED_FACE('',(#1214),#21,.T.);
#1336=ADVANCED_FACE('',(#1215),#22,.T.);
#1337=ADVANCED_FACE('',(#1216),#1264,.T.);
#1338=ADVANCED_FACE('',(#1217),#1265,.T.);
#1339=ADVANCED_FACE('',(#1218),#23,.T.);
#1340=ADVANCED_FACE('',(#1219),#1266,.T.);
#1341=ADVANCED_FACE('',(#1220),#24,.T.);
#1342=ADVANCED_FACE('',(#1221),#25,.T.);
#1343=ADVANCED_FACE('',(#1222),#1267,.T.);
#1344=ADVANCED_FACE('',(#1223),#1268,.T.);
#1345=ADVANCED_FACE('',(#1224),#26,.T.);
#1346=ADVANCED_FACE('',(#1225),#1269,.T.);
#1347=ADVANCED_FACE('',(#1226),#1270,.T.);
#1348=ADVANCED_FACE('',(#1227),#27,.T.);
#1349=ADVANCED_FACE('',(#1228),#28,.T.);
#1350=ADVANCED_FACE('',(#1229),#1271,.T.);
#1351=ADVANCED_FACE('',(#1230),#1272,.T.);
#1352=ADVANCED_FACE('',(#1231),#29,.T.);
#1353=CLOSED_SHELL('',(#1273,#1274,#1275,#1276,#1277,#1278,#1279,#1280,
#1281,#1282,#1283,#1284,#1285,#1286,#1287,#1288,#1289,#1290,#1291,#1292,
#1293,#1294,#1295,#1296,#1297,#1298,#1299,#1300,#1301,#1302,#1303,#1304,
#1305,#1306,#1307,#1308,#1309,#1310,#1311,#1312,#1313,#1314,#1315,#1316,
#1317,#1318,#1319,#1320,#1321,#1322,#1323,#1324,#1325,#1326,#1327,#1328,
#1329,#1330,#1331,#1332,#1333,#1334,#1335,#1336,#1337,#1338,#1339,#1340,
#1341,#1342,#1343,#1344,#1345,#1346,#1347,#1348,#1349,#1350,#1351,#1352));
#1354=STYLED_ITEM('',(#1355),#1362);
#1355=PRESENTATION_STYLE_ASSIGNMENT((#1356));
#1356=SURFACE_STYLE_USAGE(.BOTH.,#1357);
#1357=SURFACE_SIDE_STYLE('',(#1358));
#1358=SURFACE_STYLE_FILL_AREA(#1359);
#1359=FILL_AREA_STYLE('',(#1360));
#1360=FILL_AREA_STYLE_COLOUR('',#1361);
#1361=COLOUR_RGB('',0.917647058823529,0.917647058823529,0.917647058823529);
#1362=MANIFOLD_SOLID_BREP('Part 3',#1353);
#1363=SHAPE_DEFINITION_REPRESENTATION(#2398,#1364);
#1364=SHAPE_REPRESENTATION('Part 3',(#1365),#2393);
#1365=AXIS2_PLACEMENT_3D('',#1999,#1545,#1546);
#1366=AXIS2_PLACEMENT_3D('',#2000,#1547,#1548);
#1367=AXIS2_PLACEMENT_3D('',#2004,#1550,#1551);
#1368=AXIS2_PLACEMENT_3D('',#2008,#1553,#1554);
#1369=AXIS2_PLACEMENT_3D('',#2009,#1555,#1556);
#1370=AXIS2_PLACEMENT_3D('',#2015,#1560,#1561);
#1371=AXIS2_PLACEMENT_3D('',#2019,#1563,#1564);
#1372=AXIS2_PLACEMENT_3D('',#2020,#1565,#1566);
#1373=AXIS2_PLACEMENT_3D('',#2021,#1567,#1568);
#1374=AXIS2_PLACEMENT_3D('',#2027,#1572,#1573);
#1375=AXIS2_PLACEMENT_3D('',#2031,#1575,#1576);
#1376=AXIS2_PLACEMENT_3D('',#2032,#1577,#1578);
#1377=AXIS2_PLACEMENT_3D('',#2033,#1579,#1580);
#1378=AXIS2_PLACEMENT_3D('',#2039,#1584,#1585);
#1379=AXIS2_PLACEMENT_3D('',#2043,#1587,#1588);
#1380=AXIS2_PLACEMENT_3D('',#2044,#1589,#1590);
#1381=AXIS2_PLACEMENT_3D('',#2045,#1591,#1592);
#1382=AXIS2_PLACEMENT_3D('',#2049,#1594,#1595);
#1383=AXIS2_PLACEMENT_3D('',#2053,#1597,#1598);
#1384=AXIS2_PLACEMENT_3D('',#2054,#1599,#1600);
#1385=AXIS2_PLACEMENT_3D('',#2060,#1604,#1605);
#1386=AXIS2_PLACEMENT_3D('',#2064,#1607,#1608);
#1387=AXIS2_PLACEMENT_3D('',#2065,#1609,#1610);
#1388=AXIS2_PLACEMENT_3D('',#2066,#1611,#1612);
#1389=AXIS2_PLACEMENT_3D('',#2072,#1616,#1617);
#1390=AXIS2_PLACEMENT_3D('',#2076,#1619,#1620);
#1391=AXIS2_PLACEMENT_3D('',#2077,#1621,#1622);
#1392=AXIS2_PLACEMENT_3D('',#2078,#1623,#1624);
#1393=AXIS2_PLACEMENT_3D('',#2084,#1628,#1629);
#1394=AXIS2_PLACEMENT_3D('',#2088,#1631,#1632);
#1395=AXIS2_PLACEMENT_3D('',#2089,#1633,#1634);
#1396=AXIS2_PLACEMENT_3D('',#2090,#1635,#1636);
#1397=AXIS2_PLACEMENT_3D('',#2099,#1641,#1642);
#1398=AXIS2_PLACEMENT_3D('',#2103,#1644,#1645);
#1399=AXIS2_PLACEMENT_3D('',#2104,#1646,#1647);
#1400=AXIS2_PLACEMENT_3D('',#2105,#1648,#1649);
#1401=AXIS2_PLACEMENT_3D('',#2111,#1653,#1654);
#1402=AXIS2_PLACEMENT_3D('',#2115,#1656,#1657);
#1403=AXIS2_PLACEMENT_3D('',#2116,#1658,#1659);
#1404=AXIS2_PLACEMENT_3D('',#2117,#1660,#1661);
#1405=AXIS2_PLACEMENT_3D('',#2123,#1665,#1666);
#1406=AXIS2_PLACEMENT_3D('',#2127,#1668,#1669);
#1407=AXIS2_PLACEMENT_3D('',#2128,#1670,#1671);
#1408=AXIS2_PLACEMENT_3D('',#2129,#1672,#1673);
#1409=AXIS2_PLACEMENT_3D('',#2135,#1677,#1678);
#1410=AXIS2_PLACEMENT_3D('',#2139,#1680,#1681);
#1411=AXIS2_PLACEMENT_3D('',#2140,#1682,#1683);
#1412=AXIS2_PLACEMENT_3D('',#2141,#1684,#1685);
#1413=AXIS2_PLACEMENT_3D('',#2147,#1689,#1690);
#1414=AXIS2_PLACEMENT_3D('',#2151,#1692,#1693);
#1415=AXIS2_PLACEMENT_3D('',#2152,#1694,#1695);
#1416=AXIS2_PLACEMENT_3D('',#2153,#1696,#1697);
#1417=AXIS2_PLACEMENT_3D('',#2159,#1701,#1702);
#1418=AXIS2_PLACEMENT_3D('',#2163,#1704,#1705);
#1419=AXIS2_PLACEMENT_3D('',#2164,#1706,#1707);
#1420=AXIS2_PLACEMENT_3D('',#2165,#1708,#1709);
#1421=AXIS2_PLACEMENT_3D('',#2169,#1711,#1712);
#1422=AXIS2_PLACEMENT_3D('',#2173,#1714,#1715);
#1423=AXIS2_PLACEMENT_3D('',#2174,#1716,#1717);
#1424=AXIS2_PLACEMENT_3D('',#2180,#1721,#1722);
#1425=AXIS2_PLACEMENT_3D('',#2184,#1724,#1725);
#1426=AXIS2_PLACEMENT_3D('',#2185,#1726,#1727);
#1427=AXIS2_PLACEMENT_3D('',#2186,#1728,#1729);
#1428=AXIS2_PLACEMENT_3D('',#2192,#1733,#1734);
#1429=AXIS2_PLACEMENT_3D('',#2196,#1736,#1737);
#1430=AXIS2_PLACEMENT_3D('',#2197,#1738,#1739);
#1431=AXIS2_PLACEMENT_3D('',#2198,#1740,#1741);
#1432=AXIS2_PLACEMENT_3D('',#2204,#1745,#1746);
#1433=AXIS2_PLACEMENT_3D('',#2208,#1748,#1749);
#1434=AXIS2_PLACEMENT_3D('',#2209,#1750,#1751);
#1435=AXIS2_PLACEMENT_3D('',#2210,#1752,#1753);
#1436=AXIS2_PLACEMENT_3D('',#2213,#1756,#1757);
#1437=AXIS2_PLACEMENT_3D('',#2216,#1760,#1761);
#1438=AXIS2_PLACEMENT_3D('',#2217,#1762,#1763);
#1439=AXIS2_PLACEMENT_3D('',#2219,#1764,#1765);
#1440=AXIS2_PLACEMENT_3D('',#2221,#1766,#1767);
#1441=AXIS2_PLACEMENT_3D('',#2222,#1768,#1769);
#1442=AXIS2_PLACEMENT_3D('',#2224,#1770,#1771);
#1443=AXIS2_PLACEMENT_3D('',#2226,#1772,#1773);
#1444=AXIS2_PLACEMENT_3D('',#2227,#1774,#1775);
#1445=AXIS2_PLACEMENT_3D('',#2229,#1776,#1777);
#1446=AXIS2_PLACEMENT_3D('',#2231,#1778,#1779);
#1447=AXIS2_PLACEMENT_3D('',#2232,#1780,#1781);
#1448=AXIS2_PLACEMENT_3D('',#2234,#1782,#1783);
#1449=AXIS2_PLACEMENT_3D('',#2236,#1784,#1785);
#1450=AXIS2_PLACEMENT_3D('',#2239,#1788,#1789);
#1451=AXIS2_PLACEMENT_3D('',#2242,#1792,#1793);
#1452=AXIS2_PLACEMENT_3D('',#2246,#1795,#1796);
#1453=AXIS2_PLACEMENT_3D('',#2250,#1798,#1799);
#1454=AXIS2_PLACEMENT_3D('',#2254,#1801,#1802);
#1455=AXIS2_PLACEMENT_3D('',#2258,#1804,#1805);
#1456=AXIS2_PLACEMENT_3D('',#2262,#1807,#1808);
#1457=AXIS2_PLACEMENT_3D('',#2268,#1811,#1812);
#1458=AXIS2_PLACEMENT_3D('',#2272,#1814,#1815);
#1459=AXIS2_PLACEMENT_3D('',#2276,#1817,#1818);
#1460=AXIS2_PLACEMENT_3D('',#2280,#1820,#1821);
#1461=AXIS2_PLACEMENT_3D('',#2284,#1823,#1824);
#1462=AXIS2_PLACEMENT_3D('',#2288,#1826,#1827);
#1463=AXIS2_PLACEMENT_3D('',#2292,#1829,#1830);
#1464=AXIS2_PLACEMENT_3D('',#2296,#1832,#1833);
#1465=AXIS2_PLACEMENT_3D('',#2300,#1835,#1836);
#1466=AXIS2_PLACEMENT_3D('',#2304,#1838,#1839);
#1467=AXIS2_PLACEMENT_3D('',#2308,#1841,#1842);
#1468=AXIS2_PLACEMENT_3D('',#2312,#1844,#1845);
#1469=AXIS2_PLACEMENT_3D('',#2316,#1847,#1848);
#1470=AXIS2_PLACEMENT_3D('',#2317,#1849,#1850);
#1471=AXIS2_PLACEMENT_3D('',#2318,#1851,#1852);
#1472=AXIS2_PLACEMENT_3D('',#2319,#1853,#1854);
#1473=AXIS2_PLACEMENT_3D('',#2320,#1855,#1856);
#1474=AXIS2_PLACEMENT_3D('',#2321,#1857,#1858);
#1475=AXIS2_PLACEMENT_3D('',#2322,#1859,#1860);
#1476=AXIS2_PLACEMENT_3D('',#2323,#1861,#1862);
#1477=AXIS2_PLACEMENT_3D('',#2324,#1863,#1864);
#1478=AXIS2_PLACEMENT_3D('',#2325,#1865,#1866);
#1479=AXIS2_PLACEMENT_3D('',#2326,#1867,#1868);
#1480=AXIS2_PLACEMENT_3D('',#2327,#1869,#1870);
#1481=AXIS2_PLACEMENT_3D('',#2328,#1871,#1872);
#1482=AXIS2_PLACEMENT_3D('',#2329,#1873,#1874);
#1483=AXIS2_PLACEMENT_3D('',#2330,#1875,#1876);
#1484=AXIS2_PLACEMENT_3D('',#2331,#1877,#1878);
#1485=AXIS2_PLACEMENT_3D('',#2332,#1879,#1880);
#1486=AXIS2_PLACEMENT_3D('',#2333,#1881,#1882);
#1487=AXIS2_PLACEMENT_3D('',#2334,#1883,#1884);
#1488=AXIS2_PLACEMENT_3D('',#2335,#1885,#1886);
#1489=AXIS2_PLACEMENT_3D('',#2336,#1887,#1888);
#1490=AXIS2_PLACEMENT_3D('',#2337,#1889,#1890);
#1491=AXIS2_PLACEMENT_3D('',#2338,#1891,#1892);
#1492=AXIS2_PLACEMENT_3D('',#2339,#1893,#1894);
#1493=AXIS2_PLACEMENT_3D('',#2340,#1895,#1896);
#1494=AXIS2_PLACEMENT_3D('',#2341,#1897,#1898);
#1495=AXIS2_PLACEMENT_3D('',#2342,#1899,#1900);
#1496=AXIS2_PLACEMENT_3D('',#2343,#1901,#1902);
#1497=AXIS2_PLACEMENT_3D('',#2344,#1903,#1904);
#1498=AXIS2_PLACEMENT_3D('',#2345,#1905,#1906);
#1499=AXIS2_PLACEMENT_3D('',#2346,#1907,#1908);
#1500=AXIS2_PLACEMENT_3D('',#2347,#1909,#1910);
#1501=AXIS2_PLACEMENT_3D('',#2348,#1911,#1912);
#1502=AXIS2_PLACEMENT_3D('',#2349,#1913,#1914);
#1503=AXIS2_PLACEMENT_3D('',#2350,#1915,#1916);
#1504=AXIS2_PLACEMENT_3D('',#2351,#1917,#1918);
#1505=AXIS2_PLACEMENT_3D('',#2352,#1919,#1920);
#1506=AXIS2_PLACEMENT_3D('',#2353,#1921,#1922);
#1507=AXIS2_PLACEMENT_3D('',#2354,#1923,#1924);
#1508=AXIS2_PLACEMENT_3D('',#2355,#1925,#1926);
#1509=AXIS2_PLACEMENT_3D('',#2356,#1927,#1928);
#1510=AXIS2_PLACEMENT_3D('',#2357,#1929,#1930);
#1511=AXIS2_PLACEMENT_3D('',#2358,#1931,#1932);
#1512=AXIS2_PLACEMENT_3D('',#2359,#1933,#1934);
#1513=AXIS2_PLACEMENT_3D('',#2360,#1935,#1936);
#1514=AXIS2_PLACEMENT_3D('',#2361,#1937,#1938);
#1515=AXIS2_PLACEMENT_3D('',#2362,#1939,#1940);
#1516=AXIS2_PLACEMENT_3D('',#2363,#1941,#1942);
#1517=AXIS2_PLACEMENT_3D('',#2364,#1943,#1944);
#1518=AXIS2_PLACEMENT_3D('',#2365,#1945,#1946);
#1519=AXIS2_PLACEMENT_3D('',#2366,#1947,#1948);
#1520=AXIS2_PLACEMENT_3D('',#2367,#1949,#1950);
#1521=AXIS2_PLACEMENT_3D('',#2368,#1951,#1952);
#1522=AXIS2_PLACEMENT_3D('',#2369,#1953,#1954);
#1523=AXIS2_PLACEMENT_3D('',#2370,#1955,#1956);
#1524=AXIS2_PLACEMENT_3D('',#2371,#1957,#1958);
#1525=AXIS2_PLACEMENT_3D('',#2372,#1959,#1960);
#1526=AXIS2_PLACEMENT_3D('',#2373,#1961,#1962);
#1527=AXIS2_PLACEMENT_3D('',#2374,#1963,#1964);
#1528=AXIS2_PLACEMENT_3D('',#2375,#1965,#1966);
#1529=AXIS2_PLACEMENT_3D('',#2376,#1967,#1968);
#1530=AXIS2_PLACEMENT_3D('',#2377,#1969,#1970);
#1531=AXIS2_PLACEMENT_3D('',#2378,#1971,#1972);
#1532=AXIS2_PLACEMENT_3D('',#2379,#1973,#1974);
#1533=AXIS2_PLACEMENT_3D('',#2380,#1975,#1976);
#1534=AXIS2_PLACEMENT_3D('',#2381,#1977,#1978);
#1535=AXIS2_PLACEMENT_3D('',#2382,#1979,#1980);
#1536=AXIS2_PLACEMENT_3D('',#2383,#1981,#1982);
#1537=AXIS2_PLACEMENT_3D('',#2384,#1983,#1984);
#1538=AXIS2_PLACEMENT_3D('',#2385,#1985,#1986);
#1539=AXIS2_PLACEMENT_3D('',#2386,#1987,#1988);
#1540=AXIS2_PLACEMENT_3D('',#2387,#1989,#1990);
#1541=AXIS2_PLACEMENT_3D('',#2388,#1991,#1992);
#1542=AXIS2_PLACEMENT_3D('',#2389,#1993,#1994);
#1543=AXIS2_PLACEMENT_3D('',#2390,#1995,#1996);
#1544=AXIS2_PLACEMENT_3D('',#2391,#1997,#1998);
#1545=DIRECTION('',(0.,0.,1.));
#1546=DIRECTION('',(1.,0.,0.));
#1547=DIRECTION('',(0.,0.,-1.));
#1548=DIRECTION('',(-1.,0.,0.));
#1549=DIRECTION('',(0.,0.,-1.));
#1550=DIRECTION('',(0.,0.,1.));
#1551=DIRECTION('',(1.,0.,0.));
#1552=DIRECTION('',(0.,0.,-1.));
#1553=DIRECTION('',(0.,0.,1.));
#1554=DIRECTION('',(0.,1.,0.));
#1555=DIRECTION('',(0.,1.,0.));
#1556=DIRECTION('',(0.,0.,1.));
#1557=DIRECTION('',(0.,0.,-1.));
#1558=DIRECTION('',(1.,0.,0.));
#1559=DIRECTION('',(1.,0.,0.));
#1560=DIRECTION('',(0.,0.,-1.));
#1561=DIRECTION('',(-1.,0.,0.));
#1562=DIRECTION('',(0.,0.,-1.));
#1563=DIRECTION('',(0.,0.,1.));
#1564=DIRECTION('',(1.,0.,0.));
#1565=DIRECTION('',(0.,0.,1.));
#1566=DIRECTION('',(1.,0.,0.));
#1567=DIRECTION('',(-1.,0.,0.));
#1568=DIRECTION('',(0.,0.,1.));
#1569=DIRECTION('',(0.,0.,-1.));
#1570=DIRECTION('',(0.,1.,0.));
#1571=DIRECTION('',(0.,1.,0.));
#1572=DIRECTION('',(0.,0.,-1.));
#1573=DIRECTION('',(-1.,0.,0.));
#1574=DIRECTION('',(0.,0.,-1.));
#1575=DIRECTION('',(0.,0.,1.));
#1576=DIRECTION('',(1.,0.,0.));
#1577=DIRECTION('',(0.,0.,1.));
#1578=DIRECTION('',(-6.93889390390727E-15,-1.,0.));
#1579=DIRECTION('',(0.,1.,0.));
#1580=DIRECTION('',(0.,0.,1.));
#1581=DIRECTION('',(0.,0.,-1.));
#1582=DIRECTION('',(1.,0.,0.));
#1583=DIRECTION('',(1.,0.,0.));
#1584=DIRECTION('',(0.,0.,-1.));
#1585=DIRECTION('',(-1.,0.,0.));
#1586=DIRECTION('',(0.,0.,-1.));
#1587=DIRECTION('',(0.,0.,1.));
#1588=DIRECTION('',(1.,0.,0.));
#1589=DIRECTION('',(0.,0.,1.));
#1590=DIRECTION('',(-1.,0.,0.));
#1591=DIRECTION('',(0.,0.,-1.));
#1592=DIRECTION('',(-1.,0.,0.));
#1593=DIRECTION('',(0.,0.,-1.));
#1594=DIRECTION('',(0.,0.,1.));
#1595=DIRECTION('',(1.,0.,0.));
#1596=DIRECTION('',(0.,0.,-1.));
#1597=DIRECTION('',(0.,0.,1.));
#1598=DIRECTION('',(1.,0.,0.));
#1599=DIRECTION('',(1.,0.,0.));
#1600=DIRECTION('',(0.,0.,-1.));
#1601=DIRECTION('',(0.,0.,-1.));
#1602=DIRECTION('',(0.,-1.,0.));
#1603=DIRECTION('',(0.,-1.,0.));
#1604=DIRECTION('',(0.,0.,-1.));
#1605=DIRECTION('',(-1.,0.,0.));
#1606=DIRECTION('',(0.,0.,-1.));
#1607=DIRECTION('',(0.,0.,1.));
#1608=DIRECTION('',(1.,0.,0.));
#1609=DIRECTION('',(0.,0.,1.));
#1610=DIRECTION('',(4.62592926927146E-15,-1.,0.));
#1611=DIRECTION('',(0.,1.,0.));
#1612=DIRECTION('',(0.,0.,1.));
#1613=DIRECTION('',(0.,0.,-1.));
#1614=DIRECTION('',(1.,0.,0.));
#1615=DIRECTION('',(1.,0.,0.));
#1616=DIRECTION('',(0.,0.,-1.));
#1617=DIRECTION('',(-1.,0.,0.));
#1618=DIRECTION('',(0.,0.,-1.));
#1619=DIRECTION('',(0.,0.,1.));
#1620=DIRECTION('',(1.,0.,0.));
#1621=DIRECTION('',(0.,0.,1.));
#1622=DIRECTION('',(-1.,0.,0.));
#1623=DIRECTION('',(1.,0.,0.));
#1624=DIRECTION('',(0.,0.,-1.));
#1625=DIRECTION('',(0.,0.,-1.));
#1626=DIRECTION('',(0.,-1.,0.));
#1627=DIRECTION('',(0.,-1.,0.));
#1628=DIRECTION('',(0.,0.,-1.));
#1629=DIRECTION('',(-1.,0.,0.));
#1630=DIRECTION('',(0.,0.,-1.));
#1631=DIRECTION('',(0.,0.,1.));
#1632=DIRECTION('',(1.,0.,0.));
#1633=DIRECTION('',(0.,0.,1.));
#1634=DIRECTION('',(1.38777878078146E-14,1.,2.31296463463576E-15));
#1635=DIRECTION('',(1.44560289664734E-16,-1.,0.));
#1636=DIRECTION('',(1.,1.44560289664734E-16,0.));
#1637=DIRECTION('',(0.,0.,-1.));
#1638=DIRECTION('',(-1.,-1.44560289664734E-16,0.));
#1639=DIRECTION('',(0.,0.,-1.));
#1640=DIRECTION('',(-1.,-1.44560289664734E-16,0.));
#1641=DIRECTION('',(0.,0.,-1.));
#1642=DIRECTION('',(-1.,0.,0.));
#1643=DIRECTION('',(0.,0.,-1.));
#1644=DIRECTION('',(0.,0.,1.));
#1645=DIRECTION('',(1.,0.,0.));
#1646=DIRECTION('',(0.,0.,1.));
#1647=DIRECTION('',(0.,-1.,0.));
#1648=DIRECTION('',(1.,0.,0.));
#1649=DIRECTION('',(0.,0.,-1.));
#1650=DIRECTION('',(0.,0.,-1.));
#1651=DIRECTION('',(0.,-1.,0.));
#1652=DIRECTION('',(0.,-1.,0.));
#1653=DIRECTION('',(0.,0.,-1.));
#1654=DIRECTION('',(-1.,0.,0.));
#1655=DIRECTION('',(0.,0.,-1.));
#1656=DIRECTION('',(0.,0.,1.));
#1657=DIRECTION('',(1.,0.,0.));
#1658=DIRECTION('',(0.,0.,1.));
#1659=DIRECTION('',(1.,0.,0.));
#1660=DIRECTION('',(1.54197642309049E-16,-1.,0.));
#1661=DIRECTION('',(1.,1.54197642309049E-16,0.));
#1662=DIRECTION('',(0.,0.,-1.));
#1663=DIRECTION('',(-1.,-1.54197642309049E-16,0.));
#1664=DIRECTION('',(-1.,-1.54197642309049E-16,0.));
#1665=DIRECTION('',(0.,0.,-1.));
#1666=DIRECTION('',(-1.,0.,0.));
#1667=DIRECTION('',(0.,0.,-1.));
#1668=DIRECTION('',(0.,0.,1.));
#1669=DIRECTION('',(1.,0.,0.));
#1670=DIRECTION('',(0.,0.,1.));
#1671=DIRECTION('',(0.,1.,0.));
#1672=DIRECTION('',(1.,0.,0.));
#1673=DIRECTION('',(0.,0.,-1.));
#1674=DIRECTION('',(0.,0.,-1.));
#1675=DIRECTION('',(0.,-1.,0.));
#1676=DIRECTION('',(0.,-1.,0.));
#1677=DIRECTION('',(0.,0.,-1.));
#1678=DIRECTION('',(-1.,0.,0.));
#1679=DIRECTION('',(0.,0.,-1.));
#1680=DIRECTION('',(0.,0.,1.));
#1681=DIRECTION('',(1.,0.,0.));
#1682=DIRECTION('',(0.,0.,1.));
#1683=DIRECTION('',(0.549511146713812,-0.835486385069961,0.));
#1684=DIRECTION('',(0.549511146713814,-0.83548638506996,0.));
#1685=DIRECTION('',(0.83548638506996,0.549511146713814,0.));
#1686=DIRECTION('',(0.,0.,-1.));
#1687=DIRECTION('',(-0.83548638506996,-0.549511146713814,0.));
#1688=DIRECTION('',(-0.83548638506996,-0.549511146713814,0.));
#1689=DIRECTION('',(0.,0.,-1.));
#1690=DIRECTION('',(-1.,0.,0.));
#1691=DIRECTION('',(0.,0.,-1.));
#1692=DIRECTION('',(0.,0.,1.));
#1693=DIRECTION('',(1.,0.,0.));
#1694=DIRECTION('',(0.,0.,1.));
#1695=DIRECTION('',(-0.549511146713811,0.835486385069962,0.));
#1696=DIRECTION('',(1.,2.9626028704491E-16,0.));
#1697=DIRECTION('',(-2.9626028704491E-16,1.,0.));
#1698=DIRECTION('',(0.,0.,-1.));
#1699=DIRECTION('',(2.9626028704491E-16,-1.,0.));
#1700=DIRECTION('',(2.9626028704491E-16,-1.,0.));
#1701=DIRECTION('',(0.,0.,-1.));
#1702=DIRECTION('',(-1.,0.,0.));
#1703=DIRECTION('',(0.,0.,-1.));
#1704=DIRECTION('',(0.,0.,1.));
#1705=DIRECTION('',(1.,0.,0.));
#1706=DIRECTION('',(0.,0.,1.));
#1707=DIRECTION('',(-1.,2.31296463463575E-15,0.));
#1708=DIRECTION('',(0.,0.,-1.));
#1709=DIRECTION('',(-1.,0.,0.));
#1710=DIRECTION('',(0.,0.,-1.));
#1711=DIRECTION('',(0.,0.,1.));
#1712=DIRECTION('',(1.,0.,0.));
#1713=DIRECTION('',(0.,0.,-1.));
#1714=DIRECTION('',(0.,0.,1.));
#1715=DIRECTION('',(0.,1.,0.));
#1716=DIRECTION('',(0.,1.,0.));
#1717=DIRECTION('',(0.,0.,1.));
#1718=DIRECTION('',(0.,0.,-1.));
#1719=DIRECTION('',(1.,0.,0.));
#1720=DIRECTION('',(1.,0.,0.));
#1721=DIRECTION('',(0.,0.,-1.));
#1722=DIRECTION('',(-1.,0.,0.));
#1723=DIRECTION('',(0.,0.,-1.));
#1724=DIRECTION('',(0.,0.,1.));
#1725=DIRECTION('',(1.,0.,0.));
#1726=DIRECTION('',(0.,0.,1.));
#1727=DIRECTION('',(1.,3.03576608295942E-15,0.));
#1728=DIRECTION('',(-1.,-2.51182803708792E-16,0.));
#1729=DIRECTION('',(2.51182803708792E-16,-1.,0.));
#1730=DIRECTION('',(0.,0.,-1.));
#1731=DIRECTION('',(-2.51182803708792E-16,1.,0.));
#1732=DIRECTION('',(-2.51182803708792E-16,1.,0.));
#1733=DIRECTION('',(0.,0.,-1.));
#1734=DIRECTION('',(-1.,0.,0.));
#1735=DIRECTION('',(0.,0.,-1.));
#1736=DIRECTION('',(0.,0.,1.));
#1737=DIRECTION('',(1.,0.,0.));
#1738=DIRECTION('',(0.,0.,1.));
#1739=DIRECTION('',(3.46944695195358E-15,-1.,0.));
#1740=DIRECTION('',(0.,1.,0.));
#1741=DIRECTION('',(0.,0.,1.));
#1742=DIRECTION('',(0.,0.,-1.));
#1743=DIRECTION('',(1.,0.,0.));
#1744=DIRECTION('',(1.,0.,0.));
#1745=DIRECTION('',(0.,0.,-1.));
#1746=DIRECTION('',(-1.,0.,0.));
#1747=DIRECTION('',(0.,0.,-1.));
#1748=DIRECTION('',(0.,0.,1.));
#1749=DIRECTION('',(1.,0.,0.));
#1750=DIRECTION('',(0.,0.,1.));
#1751=DIRECTION('',(-1.,-8.67361737988395E-15,-8.67361737988395E-16));
#1752=DIRECTION('',(0.,1.,0.));
#1753=DIRECTION('',(0.,0.,1.));
#1754=DIRECTION('',(1.,0.,0.));
#1755=DIRECTION('',(1.,0.,0.));
#1756=DIRECTION('',(-2.21571923050912E-7,0.999999999999975,0.));
#1757=DIRECTION('',(-0.999999999999975,-2.21571923050912E-7,0.));
#1758=DIRECTION('',(0.999999999999975,2.21571923050912E-7,0.));
#1759=DIRECTION('',(0.999999999999976,2.21571923050912E-7,0.));
#1760=DIRECTION('',(0.,0.,-1.));
#1761=DIRECTION('',(-1.,0.,0.));
#1762=DIRECTION('',(0.,0.,1.));
#1763=DIRECTION('',(1.,0.,0.));
#1764=DIRECTION('',(0.,0.,1.));
#1765=DIRECTION('',(1.,0.,0.));
#1766=DIRECTION('',(0.,0.,-1.));
#1767=DIRECTION('',(-1.,0.,0.));
#1768=DIRECTION('',(0.,0.,1.));
#1769=DIRECTION('',(1.,0.,0.));
#1770=DIRECTION('',(0.,0.,1.));
#1771=DIRECTION('',(1.,0.,0.));
#1772=DIRECTION('',(0.,0.,-1.));
#1773=DIRECTION('',(-1.,0.,0.));
#1774=DIRECTION('',(0.,0.,1.));
#1775=DIRECTION('',(1.,0.,0.));
#1776=DIRECTION('',(0.,0.,1.));
#1777=DIRECTION('',(1.,0.,0.));
#1778=DIRECTION('',(0.,0.,-1.));
#1779=DIRECTION('',(-1.,0.,0.));
#1780=DIRECTION('',(0.,0.,1.));
#1781=DIRECTION('',(1.,0.,0.));
#1782=DIRECTION('',(0.,0.,1.));
#1783=DIRECTION('',(1.,0.,0.));
#1784=DIRECTION('',(-1.,0.,0.));
#1785=DIRECTION('',(0.,0.,1.));
#1786=DIRECTION('',(0.,1.,0.));
#1787=DIRECTION('',(0.,1.,0.));
#1788=DIRECTION('',(-1.,0.,0.));
#1789=DIRECTION('',(0.,0.,1.));
#1790=DIRECTION('',(0.,1.,0.));
#1791=DIRECTION('',(0.,1.,0.));
#1792=DIRECTION('',(0.,0.,1.));
#1793=DIRECTION('',(1.,0.,0.));
#1794=DIRECTION('',(0.,-1.,0.));
#1795=DIRECTION('',(0.,0.,1.));
#1796=DIRECTION('',(1.,0.,0.));
#1797=DIRECTION('',(-1.,-1.54197642309049E-16,0.));
#1798=DIRECTION('',(0.,0.,1.));
#1799=DIRECTION('',(1.,0.,0.));
#1800=DIRECTION('',(0.,-1.,0.));
#1801=DIRECTION('',(0.,0.,1.));
#1802=DIRECTION('',(1.,0.,0.));
#1803=DIRECTION('',(-0.83548638506996,-0.549511146713814,0.));
#1804=DIRECTION('',(0.,0.,1.));
#1805=DIRECTION('',(1.,0.,0.));
#1806=DIRECTION('',(2.9626028704491E-16,-1.,0.));
#1807=DIRECTION('',(0.,0.,1.));
#1808=DIRECTION('',(1.,0.,0.));
#1809=DIRECTION('',(0.999999999999975,2.21571923050912E-7,0.));
#1810=DIRECTION('',(-1.,-1.44560289664734E-16,0.));
#1811=DIRECTION('',(0.,0.,1.));
#1812=DIRECTION('',(1.,0.,0.));
#1813=DIRECTION('',(0.,1.,0.));
#1814=DIRECTION('',(0.,0.,1.));
#1815=DIRECTION('',(1.,0.,0.));
#1816=DIRECTION('',(1.,0.,0.));
#1817=DIRECTION('',(0.,0.,1.));
#1818=DIRECTION('',(1.,0.,0.));
#1819=DIRECTION('',(-2.51182803708792E-16,1.,0.));
#1820=DIRECTION('',(0.,0.,1.));
#1821=DIRECTION('',(1.,0.,0.));
#1822=DIRECTION('',(1.,0.,0.));
#1823=DIRECTION('',(0.,0.,1.));
#1824=DIRECTION('',(1.,0.,0.));
#1825=DIRECTION('',(0.,1.,0.));
#1826=DIRECTION('',(0.,0.,1.));
#1827=DIRECTION('',(1.,0.,0.));
#1828=DIRECTION('',(1.,0.,0.));
#1829=DIRECTION('',(0.,0.,1.));
#1830=DIRECTION('',(1.,0.,0.));
#1831=DIRECTION('',(0.,1.,0.));
#1832=DIRECTION('',(0.,0.,1.));
#1833=DIRECTION('',(1.,0.,0.));
#1834=DIRECTION('',(1.,0.,0.));
#1835=DIRECTION('',(0.,0.,1.));
#1836=DIRECTION('',(1.,0.,0.));
#1837=DIRECTION('',(1.,0.,0.));
#1838=DIRECTION('',(0.,0.,1.));
#1839=DIRECTION('',(1.,0.,0.));
#1840=DIRECTION('',(0.,-1.,0.));
#1841=DIRECTION('',(0.,0.,1.));
#1842=DIRECTION('',(1.,0.,0.));
#1843=DIRECTION('',(1.,0.,0.));
#1844=DIRECTION('',(0.,0.,1.));
#1845=DIRECTION('',(1.,0.,0.));
#1846=DIRECTION('',(0.,-1.,0.));
#1847=DIRECTION('',(0.,0.,1.));
#1848=DIRECTION('',(1.,0.,0.));
#1849=DIRECTION('',(0.,0.,1.));
#1850=DIRECTION('',(1.,0.,0.));
#1851=DIRECTION('',(0.,0.,1.));
#1852=DIRECTION('',(1.,0.,0.));
#1853=DIRECTION('',(0.,1.,0.));
#1854=DIRECTION('',(0.,0.,1.));
#1855=DIRECTION('',(1.,3.46944695195361E-15,0.));
#1856=DIRECTION('',(-3.46944695195361E-15,1.,0.));
#1857=DIRECTION('',(1.,0.,0.));
#1858=DIRECTION('',(0.,0.,-1.));
#1859=DIRECTION('',(1.,0.,0.));
#1860=DIRECTION('',(0.,0.,-1.));
#1861=DIRECTION('',(0.,-1.,0.));
#1862=DIRECTION('',(0.,0.,-1.));
#1863=DIRECTION('',(-1.04083408558608E-14,1.,0.));
#1864=DIRECTION('',(-1.,-1.04083408558608E-14,0.));
#1865=DIRECTION('',(0.,0.,1.));
#1866=DIRECTION('',(1.,0.,0.));
#1867=DIRECTION('',(5.20417042793042E-15,1.,0.));
#1868=DIRECTION('',(-1.,5.20417042793042E-15,0.));
#1869=DIRECTION('',(0.,0.,1.));
#1870=DIRECTION('',(1.,0.,0.));
#1871=DIRECTION('',(1.,0.,0.));
#1872=DIRECTION('',(0.,0.,-1.));
#1873=DIRECTION('',(0.,1.,0.));
#1874=DIRECTION('',(0.,0.,1.));
#1875=DIRECTION('',(0.,1.,0.));
#1876=DIRECTION('',(0.,0.,1.));
#1877=DIRECTION('',(-1.,0.,0.));
#1878=DIRECTION('',(0.,0.,1.));
#1879=DIRECTION('',(1.,0.,0.));
#1880=DIRECTION('',(0.,0.,-1.));
#1881=DIRECTION('',(0.,0.,1.));
#1882=DIRECTION('',(1.,0.,0.));
#1883=DIRECTION('',(0.,0.,1.));
#1884=DIRECTION('',(1.,0.,0.));
#1885=DIRECTION('',(-1.,0.,0.));
#1886=DIRECTION('',(0.,0.,1.));
#1887=DIRECTION('',(-6.93889390390722E-15,1.,-2.40741243048404E-29));
#1888=DIRECTION('',(-1.,-6.93889390390722E-15,0.));
#1889=DIRECTION('',(0.,1.,0.));
#1890=DIRECTION('',(0.,0.,1.));
#1891=DIRECTION('',(0.,1.,0.));
#1892=DIRECTION('',(0.,0.,1.));
#1893=DIRECTION('',(1.,0.,0.));
#1894=DIRECTION('',(0.,0.,-1.));
#1895=DIRECTION('',(-1.,-4.33680868994202E-16,0.));
#1896=DIRECTION('',(4.33680868994202E-16,-1.,0.));
#1897=DIRECTION('',(0.,0.,1.));
#1898=DIRECTION('',(1.,0.,0.));
#1899=DIRECTION('',(-1.,0.,0.));
#1900=DIRECTION('',(0.,0.,1.));
#1901=DIRECTION('',(0.,0.,1.));
#1902=DIRECTION('',(1.,0.,0.));
#1903=DIRECTION('',(0.,1.,0.));
#1904=DIRECTION('',(0.,0.,1.));
#1905=DIRECTION('',(-1.,0.,0.));
#1906=DIRECTION('',(0.,0.,1.));
#1907=DIRECTION('',(-1.,0.,4.33680868994202E-16));
#1908=DIRECTION('',(4.33680868994202E-16,0.,1.));
#1909=DIRECTION('',(0.,-1.,0.));
#1910=DIRECTION('',(0.,0.,-1.));
#1911=DIRECTION('',(0.,1.,0.));
#1912=DIRECTION('',(0.,0.,1.));
#1913=DIRECTION('',(0.,0.,1.));
#1914=DIRECTION('',(1.,0.,0.));
#1915=DIRECTION('',(0.,0.,1.));
#1916=DIRECTION('',(1.,0.,0.));
#1917=DIRECTION('',(-1.,0.,0.));
#1918=DIRECTION('',(0.,0.,1.));
#1919=DIRECTION('',(4.62592926927148E-15,1.,0.));
#1920=DIRECTION('',(-1.,4.62592926927148E-15,0.));
#1921=DIRECTION('',(-2.51182803708792E-16,1.,0.));
#1922=DIRECTION('',(-1.,-2.51182803708792E-16,0.));
#1923=DIRECTION('',(0.,1.,0.));
#1924=DIRECTION('',(0.,0.,1.));
#1925=DIRECTION('',(1.,0.,0.));
#1926=DIRECTION('',(0.,0.,-1.));
#1927=DIRECTION('',(-1.,9.25185853854296E-15,0.));
#1928=DIRECTION('',(-9.25185853854296E-15,-1.,0.));
#1929=DIRECTION('',(0.,0.,1.));
#1930=DIRECTION('',(1.,0.,0.));
#1931=DIRECTION('',(-1.,0.,0.));
#1932=DIRECTION('',(0.,0.,1.));
#1933=DIRECTION('',(0.,0.,1.));
#1934=DIRECTION('',(1.,0.,0.));
#1935=DIRECTION('',(0.,1.,0.));
#1936=DIRECTION('',(0.,0.,1.));
#1937=DIRECTION('',(-1.,0.,0.));
#1938=DIRECTION('',(0.,0.,1.));
#1939=DIRECTION('',(-1.,0.,0.));
#1940=DIRECTION('',(0.,0.,1.));
#1941=DIRECTION('',(0.,-1.,0.));
#1942=DIRECTION('',(0.,0.,-1.));
#1943=DIRECTION('',(5.78241158658935E-15,1.,0.));
#1944=DIRECTION('',(-1.,5.78241158658935E-15,0.));
#1945=DIRECTION('',(0.,0.,1.));
#1946=DIRECTION('',(1.,0.,0.));
#1947=DIRECTION('',(-2.9626028704491E-16,1.,0.));
#1948=DIRECTION('',(-1.,-2.9626028704491E-16,0.));
#1949=DIRECTION('',(0.,-1.,0.));
#1950=DIRECTION('',(0.,0.,-1.));
#1951=DIRECTION('',(-2.89120579329468E-16,1.,2.89120579329468E-16));
#1952=DIRECTION('',(0.,-2.89120579329468E-16,1.));
#1953=DIRECTION('',(0.,0.,1.));
#1954=DIRECTION('',(1.,0.,0.));
#1955=DIRECTION('',(0.835486385069962,0.549511146713811,-4.87276408403662E-15));
#1956=DIRECTION('',(-0.549511146713811,0.835486385069962,0.));
#1957=DIRECTION('',(0.,0.,1.));
#1958=DIRECTION('',(1.,0.,0.));
#1959=DIRECTION('',(0.999999999999975,2.21571922846369E-7,0.));
#1960=DIRECTION('',(-2.21571922846369E-7,0.999999999999975,0.));
#1961=DIRECTION('',(0.83548638506996,0.549511146713814,0.));
#1962=DIRECTION('',(-0.549511146713814,0.83548638506996,0.));
#1963=DIRECTION('',(0.835486385069959,0.549511146713815,4.81815080928834E-15));
#1964=DIRECTION('',(-0.549511146713815,0.83548638506996,0.));
#1965=DIRECTION('',(-0.999999999999975,-2.21571923050912E-7,0.));
#1966=DIRECTION('',(2.21571923050912E-7,-0.999999999999975,0.));
#1967=DIRECTION('',(0.999999999999975,2.21571922846369E-7,0.));
#1968=DIRECTION('',(-2.21571922846369E-7,0.999999999999975,0.));
#1969=DIRECTION('',(0.,0.,1.));
#1970=DIRECTION('',(1.,0.,0.));
#1971=DIRECTION('',(0.,1.,0.));
#1972=DIRECTION('',(0.,0.,1.));
#1973=DIRECTION('',(-1.,-1.44560289664734E-16,0.));
#1974=DIRECTION('',(1.44560289664734E-16,-1.,0.));
#1975=DIRECTION('',(1.,0.,0.));
#1976=DIRECTION('',(0.,0.,-1.));
#1977=DIRECTION('',(0.,1.,0.));
#1978=DIRECTION('',(0.,0.,1.));
#1979=DIRECTION('',(0.,1.,0.));
#1980=DIRECTION('',(0.,0.,1.));
#1981=DIRECTION('',(0.,0.,1.));
#1982=DIRECTION('',(1.,0.,0.));
#1983=DIRECTION('',(0.,1.,0.));
#1984=DIRECTION('',(0.,0.,1.));
#1985=DIRECTION('',(0.,0.,1.));
#1986=DIRECTION('',(1.,0.,0.));
#1987=DIRECTION('',(1.,0.,0.));
#1988=DIRECTION('',(0.,0.,-1.));
#1989=DIRECTION('',(0.,-1.,0.));
#1990=DIRECTION('',(0.,0.,-1.));
#1991=DIRECTION('',(0.,1.,0.));
#1992=DIRECTION('',(0.,0.,1.));
#1993=DIRECTION('',(1.,1.54197642309049E-16,0.));
#1994=DIRECTION('',(-1.54197642309049E-16,1.,0.));
#1995=DIRECTION('',(1.,0.,0.));
#1996=DIRECTION('',(0.,0.,-1.));
#1997=DIRECTION('',(0.,0.,1.));
#1998=DIRECTION('',(1.,0.,0.));
#1999=CARTESIAN_POINT('',(0.,0.,0.));
#2000=CARTESIAN_POINT('',(2.89002559128245,32.3376809753619,19.));
#2001=CARTESIAN_POINT('',(2.89002559128245,33.337680975362,19.));
#2002=CARTESIAN_POINT('',(2.89002559128245,33.337680975362,18.));
#2003=CARTESIAN_POINT('',(2.89002559128245,33.337680975362,15.));
#2004=CARTESIAN_POINT('',(2.89002559128245,32.3376809753619,18.));
#2005=CARTESIAN_POINT('',(1.89002559128245,32.3376809753619,18.));
#2006=CARTESIAN_POINT('',(1.89002559128245,32.3376809753619,19.));
#2007=CARTESIAN_POINT('',(1.89002559128245,32.3376809753619,15.));
#2008=CARTESIAN_POINT('',(2.89002559128245,32.3376809753619,15.));
#2009=CARTESIAN_POINT('',(13.3900255912824,33.337680975362,19.));
#2010=CARTESIAN_POINT('',(23.8900255912824,33.337680975362,19.));
#2011=CARTESIAN_POINT('',(23.8900255912824,33.337680975362,18.));
#2012=CARTESIAN_POINT('',(23.8900255912824,33.337680975362,15.));
#2013=CARTESIAN_POINT('',(2.89002559128245,33.337680975362,18.));
#2014=CARTESIAN_POINT('',(13.3900255912824,33.337680975362,15.));
#2015=CARTESIAN_POINT('',(23.8900255912824,32.3376809753619,19.));
#2016=CARTESIAN_POINT('',(24.8900255912824,32.3376809753619,19.));
#2017=CARTESIAN_POINT('',(24.8900255912824,32.3376809753619,18.));
#2018=CARTESIAN_POINT('',(24.8900255912824,32.3376809753619,15.));
#2019=CARTESIAN_POINT('',(23.8900255912824,32.3376809753619,18.));
#2020=CARTESIAN_POINT('',(23.8900255912824,32.3376809753619,15.));
#2021=CARTESIAN_POINT('',(24.8900255912824,29.8376809753619,19.));
#2022=CARTESIAN_POINT('',(24.8900255912824,27.337680975362,19.));
#2023=CARTESIAN_POINT('',(24.8900255912824,27.337680975362,18.));
#2024=CARTESIAN_POINT('',(24.8900255912824,27.337680975362,15.));
#2025=CARTESIAN_POINT('',(24.8900255912824,29.8376809753619,18.));
#2026=CARTESIAN_POINT('',(24.8900255912824,29.8376809753619,15.));
#2027=CARTESIAN_POINT('',(23.8900255912824,27.337680975362,19.));
#2028=CARTESIAN_POINT('',(23.8900255912824,26.3376809753619,19.));
#2029=CARTESIAN_POINT('',(23.8900255912824,26.3376809753619,18.));
#2030=CARTESIAN_POINT('',(23.8900255912824,26.3376809753619,15.));
#2031=CARTESIAN_POINT('',(23.8900255912824,27.337680975362,18.));
#2032=CARTESIAN_POINT('',(23.8900255912824,27.337680975362,15.));
#2033=CARTESIAN_POINT('',(13.3900255912824,26.3376809753619,19.));
#2034=CARTESIAN_POINT('',(2.89002559128245,26.3376809753619,19.));
#2035=CARTESIAN_POINT('',(2.89002559128245,26.3376809753619,18.));
#2036=CARTESIAN_POINT('',(2.89002559128245,26.3376809753619,15.));
#2037=CARTESIAN_POINT('',(13.3900255912824,26.3376809753619,18.));
#2038=CARTESIAN_POINT('',(13.3900255912824,26.3376809753619,15.));
#2039=CARTESIAN_POINT('',(2.89002559128245,27.337680975362,19.));
#2040=CARTESIAN_POINT('',(1.89002559128245,27.337680975362,19.));
#2041=CARTESIAN_POINT('',(1.89002559128245,27.337680975362,18.));
#2042=CARTESIAN_POINT('',(1.89002559128245,27.337680975362,15.));
#2043=CARTESIAN_POINT('',(2.89002559128245,27.337680975362,18.));
#2044=CARTESIAN_POINT('',(2.89002559128245,27.337680975362,15.));
#2045=CARTESIAN_POINT('',(-22.1985,41.2567959427833,19.));
#2046=CARTESIAN_POINT('',(-20.6985,41.2567959427833,19.));
#2047=CARTESIAN_POINT('',(-20.6985,41.2567959427833,17.));
#2048=CARTESIAN_POINT('',(-20.6985,41.2567959427833,15.));
#2049=CARTESIAN_POINT('',(-22.1985,41.2567959427833,17.));
#2050=CARTESIAN_POINT('',(-22.1985,42.7567959427833,17.));
#2051=CARTESIAN_POINT('',(-22.1985,42.7567959427833,19.));
#2052=CARTESIAN_POINT('',(-22.1985,42.7567959427833,15.));
#2053=CARTESIAN_POINT('',(-22.1985,41.2567959427833,15.));
#2054=CARTESIAN_POINT('',(-20.6985,32.2567959427834,19.));
#2055=CARTESIAN_POINT('',(-20.6985,23.2567959427833,19.));
#2056=CARTESIAN_POINT('',(-20.6985,23.2567959427833,17.));
#2057=CARTESIAN_POINT('',(-20.6985,23.2567959427833,15.));
#2058=CARTESIAN_POINT('',(-20.6985,41.2567959427833,17.));
#2059=CARTESIAN_POINT('',(-20.6985,32.2567959427834,15.));
#2060=CARTESIAN_POINT('',(-22.1985,23.2567959427833,19.));
#2061=CARTESIAN_POINT('',(-22.1985,21.7567959427833,19.));
#2062=CARTESIAN_POINT('',(-22.1985,21.7567959427833,17.));
#2063=CARTESIAN_POINT('',(-22.1985,21.7567959427833,15.));
#2064=CARTESIAN_POINT('',(-22.1985,23.2567959427833,17.));
#2065=CARTESIAN_POINT('',(-22.1985,23.2567959427833,15.));
#2066=CARTESIAN_POINT('',(-29.1985,21.7567959427833,19.));
#2067=CARTESIAN_POINT('',(-36.1985,21.7567959427833,19.));
#2068=CARTESIAN_POINT('',(-36.1985,21.7567959427833,17.));
#2069=CARTESIAN_POINT('',(-36.1985,21.7567959427833,15.));
#2070=CARTESIAN_POINT('',(-29.1985,21.7567959427833,17.));
#2071=CARTESIAN_POINT('',(-29.1985,21.7567959427833,15.));
#2072=CARTESIAN_POINT('',(-36.1985,23.2567959427833,19.));
#2073=CARTESIAN_POINT('',(-37.6985,23.2567959427833,19.));
#2074=CARTESIAN_POINT('',(-37.6985,23.2567959427833,17.));
#2075=CARTESIAN_POINT('',(-37.6985,23.2567959427833,15.));
#2076=CARTESIAN_POINT('',(-36.1985,23.2567959427833,17.));
#2077=CARTESIAN_POINT('',(-36.1985,23.2567959427833,15.));
#2078=CARTESIAN_POINT('',(-37.6985,32.2567959427834,19.));
#2079=CARTESIAN_POINT('',(-37.6985,41.2567959427833,19.));
#2080=CARTESIAN_POINT('',(-37.6985,41.2567959427833,17.));
#2081=CARTESIAN_POINT('',(-37.6985,41.2567959427833,15.));
#2082=CARTESIAN_POINT('',(-37.6985,32.2567959427834,17.));
#2083=CARTESIAN_POINT('',(-37.6985,32.2567959427834,15.));
#2084=CARTESIAN_POINT('',(-36.1985,41.2567959427833,19.));
#2085=CARTESIAN_POINT('',(-36.1985,42.7567959427833,19.));
#2086=CARTESIAN_POINT('',(-36.1985,42.7567959427833,17.));
#2087=CARTESIAN_POINT('',(-36.1985,42.7567959427833,15.));
#2088=CARTESIAN_POINT('',(-36.1985,41.2567959427833,17.));
#2089=CARTESIAN_POINT('',(-36.1985,41.2567959427833,15.));
#2090=CARTESIAN_POINT('',(-3.,-55.,19.));
#2091=CARTESIAN_POINT('',(45.,-55.,19.));
#2092=CARTESIAN_POINT('',(45.,-55.,17.5));
#2093=CARTESIAN_POINT('',(45.,-55.,15.));
#2094=CARTESIAN_POINT('',(-3.,-55.,17.5));
#2095=CARTESIAN_POINT('',(-51.,-55.,17.5));
#2096=CARTESIAN_POINT('',(-51.,-55.,19.));
#2097=CARTESIAN_POINT('',(-51.,-55.,15.));
#2098=CARTESIAN_POINT('',(-3.,-55.,15.));
#2099=CARTESIAN_POINT('',(45.,-49.,19.));
#2100=CARTESIAN_POINT('',(51.,-49.,19.));
#2101=CARTESIAN_POINT('',(51.,-49.,17.5));
#2102=CARTESIAN_POINT('',(51.,-49.,15.));
#2103=CARTESIAN_POINT('',(45.,-49.,17.5));
#2104=CARTESIAN_POINT('',(45.,-49.,15.));
#2105=CARTESIAN_POINT('',(51.,6.93889390390723E-15,19.));
#2106=CARTESIAN_POINT('',(51.,49.,19.));
#2107=CARTESIAN_POINT('',(51.,49.,17.5));
#2108=CARTESIAN_POINT('',(51.,49.,15.));
#2109=CARTESIAN_POINT('',(51.,6.93889390390723E-15,17.5));
#2110=CARTESIAN_POINT('',(51.,6.93889390390723E-15,15.));
#2111=CARTESIAN_POINT('',(45.,49.,19.));
#2112=CARTESIAN_POINT('',(45.,55.,19.));
#2113=CARTESIAN_POINT('',(45.,55.,17.5));
#2114=CARTESIAN_POINT('',(45.,55.,15.));
#2115=CARTESIAN_POINT('',(45.,49.,17.5));
#2116=CARTESIAN_POINT('',(45.,49.,15.));
#2117=CARTESIAN_POINT('',(0.,55.,19.));
#2118=CARTESIAN_POINT('',(-45.,55.,19.));
#2119=CARTESIAN_POINT('',(-45.,55.,17.5));
#2120=CARTESIAN_POINT('',(-45.,55.,15.));
#2121=CARTESIAN_POINT('',(45.,55.,17.5));
#2122=CARTESIAN_POINT('',(0.,55.,15.));
#2123=CARTESIAN_POINT('',(-45.,49.,19.));
#2124=CARTESIAN_POINT('',(-51.,49.,19.));
#2125=CARTESIAN_POINT('',(-51.,49.,17.5));
#2126=CARTESIAN_POINT('',(-51.,49.,15.));
#2127=CARTESIAN_POINT('',(-45.,49.,17.5));
#2128=CARTESIAN_POINT('',(-45.,49.,15.));
#2129=CARTESIAN_POINT('',(-51.,28.5973606209174,19.));
#2130=CARTESIAN_POINT('',(-51.,8.19472124183493,19.));
#2131=CARTESIAN_POINT('',(-51.,8.19472124183493,17.5));
#2132=CARTESIAN_POINT('',(-51.,8.19472124183493,15.));
#2133=CARTESIAN_POINT('',(-51.,49.,17.5));
#2134=CARTESIAN_POINT('',(-51.,28.5973606209174,15.));
#2135=CARTESIAN_POINT('',(-54.,8.19472124183493,19.));
#2136=CARTESIAN_POINT('',(-52.3514665598586,5.68826208662505,19.));
#2137=CARTESIAN_POINT('',(-52.3514665598586,5.68826208662505,17.5));
#2138=CARTESIAN_POINT('',(-52.3514665598586,5.68826208662505,15.));
#2139=CARTESIAN_POINT('',(-54.,8.19472124183493,17.5));
#2140=CARTESIAN_POINT('',(-54.,8.19472124183493,15.));
#2141=CARTESIAN_POINT('',(-55.7747555733569,3.43671675332468,19.));
#2142=CARTESIAN_POINT('',(-59.1980445868552,1.1851714200243,19.));
#2143=CARTESIAN_POINT('',(-59.1980445868552,1.1851714200243,17.5));
#2144=CARTESIAN_POINT('',(-59.1980445868552,1.1851714200243,15.));
#2145=CARTESIAN_POINT('',(-52.3514665598586,5.68826208662505,17.5));
#2146=CARTESIAN_POINT('',(-55.7747555733569,3.43671675332468,15.));
#2147=CARTESIAN_POINT('',(-57.,-2.15677412025555,19.));
#2148=CARTESIAN_POINT('',(-61.,-2.15677412025555,19.));
#2149=CARTESIAN_POINT('',(-61.,-2.15677412025555,17.5));
#2150=CARTESIAN_POINT('',(-61.,-2.15677412025555,15.));
#2151=CARTESIAN_POINT('',(-57.,-2.15677412025555,17.5));
#2152=CARTESIAN_POINT('',(-57.,-2.15677412025555,15.));
#2153=CARTESIAN_POINT('',(-61.,-25.5783875032715,19.));
#2154=CARTESIAN_POINT('',(-61.,-49.0000008862876,19.));
#2155=CARTESIAN_POINT('',(-61.,-49.0000008862876,17.5));
#2156=CARTESIAN_POINT('',(-61.,-49.0000008862876,15.));
#2157=CARTESIAN_POINT('',(-61.,-2.15677412025555,17.5));
#2158=CARTESIAN_POINT('',(-61.,-25.5783875032715,15.));
#2159=CARTESIAN_POINT('',(-55.,-49.0000008862876,19.));
#2160=CARTESIAN_POINT('',(-54.9999986705685,-55.0000008862874,19.));
#2161=CARTESIAN_POINT('',(-54.9999986705685,-55.0000008862874,17.5));
#2162=CARTESIAN_POINT('',(-54.9999986705685,-55.0000008862874,15.));
#2163=CARTESIAN_POINT('',(-55.,-49.0000008862876,17.5));
#2164=CARTESIAN_POINT('',(-55.,-49.0000008862876,15.));
#2165=CARTESIAN_POINT('',(-42.1876563338424,13.2450964474175,19.));
#2166=CARTESIAN_POINT('',(-42.1876563338424,17.2450964474175,19.));
#2167=CARTESIAN_POINT('',(-42.1876563338424,17.2450964474175,17.5));
#2168=CARTESIAN_POINT('',(-42.1876563338424,17.2450964474175,15.));
#2169=CARTESIAN_POINT('',(-42.1876563338424,13.2450964474175,17.5));
#2170=CARTESIAN_POINT('',(-46.1876563338424,13.2450964474175,17.5));
#2171=CARTESIAN_POINT('',(-46.1876563338424,13.2450964474175,19.));
#2172=CARTESIAN_POINT('',(-46.1876563338424,13.2450964474175,15.));
#2173=CARTESIAN_POINT('',(-42.1876563338424,13.2450964474175,15.));
#2174=CARTESIAN_POINT('',(-0.187656333842392,17.2450964474175,19.));
#2175=CARTESIAN_POINT('',(41.8123436661576,17.2450964474175,19.));
#2176=CARTESIAN_POINT('',(41.8123436661576,17.2450964474175,17.5));
#2177=CARTESIAN_POINT('',(41.8123436661576,17.2450964474175,15.));
#2178=CARTESIAN_POINT('',(-42.1876563338424,17.2450964474175,17.5));
#2179=CARTESIAN_POINT('',(-0.187656333842392,17.2450964474175,15.));
#2180=CARTESIAN_POINT('',(41.8123436661576,13.2450964474175,19.));
#2181=CARTESIAN_POINT('',(45.8123436661576,13.2450964474175,19.));
#2182=CARTESIAN_POINT('',(45.8123436661576,13.2450964474175,17.5));
#2183=CARTESIAN_POINT('',(45.8123436661576,13.2450964474175,15.));
#2184=CARTESIAN_POINT('',(41.8123436661576,13.2450964474175,17.5));
#2185=CARTESIAN_POINT('',(41.8123436661576,13.2450964474175,15.));
#2186=CARTESIAN_POINT('',(45.8123436661576,-14.3797799432124,19.));
#2187=CARTESIAN_POINT('',(45.8123436661576,-42.0046563338423,19.));
#2188=CARTESIAN_POINT('',(45.8123436661576,-42.0046563338423,17.5));
#2189=CARTESIAN_POINT('',(45.8123436661576,-42.0046563338423,15.));
#2190=CARTESIAN_POINT('',(45.8123436661576,-14.3797799432124,17.5));
#2191=CARTESIAN_POINT('',(45.8123436661576,-14.3797799432124,15.));
#2192=CARTESIAN_POINT('',(41.8123436661576,-42.0046563338423,19.));
#2193=CARTESIAN_POINT('',(41.8123436661576,-46.0046563338424,19.));
#2194=CARTESIAN_POINT('',(41.8123436661576,-46.0046563338424,17.5));
#2195=CARTESIAN_POINT('',(41.8123436661576,-46.0046563338424,15.));
#2196=CARTESIAN_POINT('',(41.8123436661576,-42.0046563338423,17.5));
#2197=CARTESIAN_POINT('',(41.8123436661576,-42.0046563338423,15.));
#2198=CARTESIAN_POINT('',(-0.187656333842379,-46.0046563338424,19.));
#2199=CARTESIAN_POINT('',(-42.1876563338424,-46.0046563338424,19.));
#2200=CARTESIAN_POINT('',(-42.1876563338424,-46.0046563338424,17.5));
#2201=CARTESIAN_POINT('',(-42.1876563338424,-46.0046563338424,15.));
#2202=CARTESIAN_POINT('',(-0.187656333842379,-46.0046563338424,17.5));
#2203=CARTESIAN_POINT('',(-0.187656333842379,-46.0046563338424,15.));
#2204=CARTESIAN_POINT('',(-42.1876563338424,-42.0046563338423,19.));
#2205=CARTESIAN_POINT('',(-46.1876563338424,-42.0046563338423,19.));
#2206=CARTESIAN_POINT('',(-46.1876563338424,-42.0046563338423,17.5));
#2207=CARTESIAN_POINT('',(-46.1876563338424,-42.0046563338423,15.));
#2208=CARTESIAN_POINT('',(-42.1876563338424,-42.0046563338423,17.5));
#2209=CARTESIAN_POINT('',(-42.1876563338424,-42.0046563338423,15.));
#2210=CARTESIAN_POINT('',(-29.1985,42.7567959427833,19.));
#2211=CARTESIAN_POINT('',(-36.1985,42.7567959427833,17.));
#2212=CARTESIAN_POINT('',(-29.1985,42.7567959427833,15.));
#2213=CARTESIAN_POINT('',(-52.9999993352842,-55.0000004431437,19.));
#2214=CARTESIAN_POINT('',(-54.9999986705685,-55.0000008862874,17.5));
#2215=CARTESIAN_POINT('',(-52.9999993352842,-55.0000004431437,15.));
#2216=CARTESIAN_POINT('',(45.,49.,19.));
#2217=CARTESIAN_POINT('',(45.,49.,19.));
#2218=CARTESIAN_POINT('',(46.7,49.,19.));
#2219=CARTESIAN_POINT('',(45.,49.,15.));
#2220=CARTESIAN_POINT('',(46.7,49.,15.));
#2221=CARTESIAN_POINT('',(45.,-49.,19.));
#2222=CARTESIAN_POINT('',(45.,-49.,19.));
#2223=CARTESIAN_POINT('',(46.7,-49.,19.));
#2224=CARTESIAN_POINT('',(45.,-49.,15.));
#2225=CARTESIAN_POINT('',(46.7,-49.,15.));
#2226=CARTESIAN_POINT('',(-45.,49.,19.));
#2227=CARTESIAN_POINT('',(-45.,49.,19.));
#2228=CARTESIAN_POINT('',(-43.3,49.,19.));
#2229=CARTESIAN_POINT('',(-45.,49.,15.));
#2230=CARTESIAN_POINT('',(-43.3,49.,15.));
#2231=CARTESIAN_POINT('',(-54.9999986705685,-49.,19.));
#2232=CARTESIAN_POINT('',(-54.9999986705685,-49.,19.));
#2233=CARTESIAN_POINT('',(-53.2999986705685,-49.,19.));
#2234=CARTESIAN_POINT('',(-54.9999986705685,-49.,15.));
#2235=CARTESIAN_POINT('',(-53.2999986705685,-49.,15.));
#2236=CARTESIAN_POINT('',(-46.1876563338424,-14.3797799432124,19.));
#2237=CARTESIAN_POINT('',(-46.1876563338424,-42.0046563338423,17.5));
#2238=CARTESIAN_POINT('',(-46.1876563338424,-14.3797799432124,15.));
#2239=CARTESIAN_POINT('',(1.89002559128245,29.8376809753619,19.));
#2240=CARTESIAN_POINT('',(1.89002559128245,27.337680975362,18.));
#2241=CARTESIAN_POINT('',(1.89002559128245,29.8376809753619,15.));
#2242=CARTESIAN_POINT('',(-5.00000066471577,-4.43143841066807E-7,19.));
#2243=CARTESIAN_POINT('',(49.5,-4.43143841066807E-7,19.));
#2244=CARTESIAN_POINT('',(49.5,-49.,19.));
#2245=CARTESIAN_POINT('',(49.5,49.,19.));
#2246=CARTESIAN_POINT('',(45.,49.,19.));
#2247=CARTESIAN_POINT('',(45.,53.5,19.));
#2248=CARTESIAN_POINT('',(-45.,53.5,19.));
#2249=CARTESIAN_POINT('',(-45.,53.5,19.));
#2250=CARTESIAN_POINT('',(-45.,49.,19.));
#2251=CARTESIAN_POINT('',(-49.5,49.,19.));
#2252=CARTESIAN_POINT('',(-49.5,8.19472124183493,19.));
#2253=CARTESIAN_POINT('',(-49.5,8.19472124183493,19.));
#2254=CARTESIAN_POINT('',(-54.,8.19472124183493,19.));
#2255=CARTESIAN_POINT('',(-51.5271998397878,4.43503250902012,19.));
#2256=CARTESIAN_POINT('',(-58.3737778667845,-0.0680581575806492,19.));
#2257=CARTESIAN_POINT('',(-58.3737778667845,-0.0680581575806513,19.));
#2258=CARTESIAN_POINT('',(-57.,-2.15677412025555,19.));
#2259=CARTESIAN_POINT('',(-59.5,-2.15677412025555,19.));
#2260=CARTESIAN_POINT('',(-59.5,-49.0000008862876,19.));
#2261=CARTESIAN_POINT('',(-59.5,-49.0000008862876,19.));
#2262=CARTESIAN_POINT('',(-55.,-49.0000008862876,19.));
#2263=CARTESIAN_POINT('',(-54.9999990029263,-53.5000008862874,19.));
#2264=CARTESIAN_POINT('',(-51.0000003323579,-53.5,19.));
#2265=CARTESIAN_POINT('',(-51.0000003323579,-53.5,19.));
#2266=CARTESIAN_POINT('',(-5.00000066471576,-53.5,19.));
#2267=CARTESIAN_POINT('',(45.,-53.5,19.));
#2268=CARTESIAN_POINT('',(45.,-49.,19.));
#2269=CARTESIAN_POINT('',(-47.6876563338424,13.2450964474175,19.));
#2270=CARTESIAN_POINT('',(-47.6876563338424,-42.0046563338423,19.));
#2271=CARTESIAN_POINT('',(-47.6876563338424,13.2450964474176,19.));
#2272=CARTESIAN_POINT('',(-42.1876563338424,13.2450964474175,19.));
#2273=CARTESIAN_POINT('',(-42.1876563338424,18.7450964474175,19.));
#2274=CARTESIAN_POINT('',(41.8123436661576,18.7450964474175,19.));
#2275=CARTESIAN_POINT('',(41.8123436661576,18.7450964474175,19.));
#2276=CARTESIAN_POINT('',(41.8123436661576,13.2450964474175,19.));
#2277=CARTESIAN_POINT('',(47.3123436661576,13.2450964474175,19.));
#2278=CARTESIAN_POINT('',(47.3123436661576,-4.43143827926845E-7,19.));
#2279=CARTESIAN_POINT('',(47.3123436661576,-42.0046563338424,19.));
#2280=CARTESIAN_POINT('',(41.8123436661576,-42.0046563338423,19.));
#2281=CARTESIAN_POINT('',(41.8123436661576,-47.5046563338424,19.));
#2282=CARTESIAN_POINT('',(-5.00000066471577,-47.5046563338424,19.));
#2283=CARTESIAN_POINT('',(-42.1876563338424,-47.5046563338424,19.));
#2284=CARTESIAN_POINT('',(-42.1876563338424,-42.0046563338423,19.));
#2285=CARTESIAN_POINT('',(0.890025591282449,32.3376809753619,19.));
#2286=CARTESIAN_POINT('',(0.890025591282449,27.337680975362,19.));
#2287=CARTESIAN_POINT('',(0.890025591282449,32.3376809753619,19.));
#2288=CARTESIAN_POINT('',(2.89002559128245,32.3376809753619,19.));
#2289=CARTESIAN_POINT('',(2.89002559128245,34.337680975362,19.));
#2290=CARTESIAN_POINT('',(23.8900255912824,34.337680975362,19.));
#2291=CARTESIAN_POINT('',(23.8900255912824,34.337680975362,19.));
#2292=CARTESIAN_POINT('',(23.8900255912824,32.3376809753619,19.));
#2293=CARTESIAN_POINT('',(25.8900255912825,32.3376809753619,19.));
#2294=CARTESIAN_POINT('',(25.8900255912825,-4.43143841066807E-7,19.));
#2295=CARTESIAN_POINT('',(25.8900255912825,27.337680975362,19.));
#2296=CARTESIAN_POINT('',(23.8900255912824,27.337680975362,19.));
#2297=CARTESIAN_POINT('',(23.8900255912824,25.3376809753619,19.));
#2298=CARTESIAN_POINT('',(-5.00000066471577,25.3376809753619,19.));
#2299=CARTESIAN_POINT('',(2.89002559128245,25.3376809753619,19.));
#2300=CARTESIAN_POINT('',(2.89002559128245,27.337680975362,19.));
#2301=CARTESIAN_POINT('',(-22.1985,44.7567959427834,19.));
#2302=CARTESIAN_POINT('',(-36.1985,44.7567959427834,19.));
#2303=CARTESIAN_POINT('',(-22.1985,44.7567959427834,19.));
#2304=CARTESIAN_POINT('',(-22.1985,41.2567959427833,19.));
#2305=CARTESIAN_POINT('',(-18.6985,41.2567959427833,19.));
#2306=CARTESIAN_POINT('',(-18.6985,23.2567959427833,19.));
#2307=CARTESIAN_POINT('',(-18.6985,23.2567959427833,19.));
#2308=CARTESIAN_POINT('',(-22.1985,23.2567959427833,19.));
#2309=CARTESIAN_POINT('',(-22.1985,19.7567959427833,19.));
#2310=CARTESIAN_POINT('',(-5.00000066471577,19.7567959427833,19.));
#2311=CARTESIAN_POINT('',(-36.1985,19.7567959427833,19.));
#2312=CARTESIAN_POINT('',(-36.1985,23.2567959427833,19.));
#2313=CARTESIAN_POINT('',(-39.6985,23.2567959427833,19.));
#2314=CARTESIAN_POINT('',(-39.6985,-4.43143841066807E-7,19.));
#2315=CARTESIAN_POINT('',(-39.6985,41.2567959427833,19.));
#2316=CARTESIAN_POINT('',(-36.1985,41.2567959427833,19.));
#2317=CARTESIAN_POINT('',(-5.00000066471577,-4.43143841066807E-7,15.));
#2318=CARTESIAN_POINT('',(-36.1985,23.2567959427833,17.));
#2319=CARTESIAN_POINT('',(-39.6985,23.2567959427833,17.));
#2320=CARTESIAN_POINT('',(-36.1985,19.7567959427833,17.));
#2321=CARTESIAN_POINT('',(-29.1985,19.7567959427833,17.));
#2322=CARTESIAN_POINT('',(-22.1985,19.7567959427833,17.));
#2323=CARTESIAN_POINT('',(-39.6985,32.2567959427834,17.));
#2324=CARTESIAN_POINT('',(-39.6985,41.2567959427833,17.));
#2325=CARTESIAN_POINT('',(-22.1985,23.2567959427833,17.));
#2326=CARTESIAN_POINT('',(-18.6985,23.2567959427833,17.));
#2327=CARTESIAN_POINT('',(-36.1985,41.2567959427833,17.));
#2328=CARTESIAN_POINT('',(-36.1985,44.7567959427834,17.));
#2329=CARTESIAN_POINT('',(-18.6985,-4.43143841066807E-7,17.));
#2330=CARTESIAN_POINT('',(-18.6985,41.2567959427833,17.));
#2331=CARTESIAN_POINT('',(-5.00000066471577,44.7567959427834,17.));
#2332=CARTESIAN_POINT('',(-22.1985,44.7567959427834,17.));
#2333=CARTESIAN_POINT('',(-22.1985,41.2567959427833,17.));
#2334=CARTESIAN_POINT('',(23.8900255912824,27.337680975362,18.));
#2335=CARTESIAN_POINT('',(23.8900255912824,25.3376809753619,18.));
#2336=CARTESIAN_POINT('',(25.8900255912825,27.337680975362,18.));
#2337=CARTESIAN_POINT('',(25.8900255912825,29.8376809753619,18.));
#2338=CARTESIAN_POINT('',(25.8900255912825,32.3376809753619,18.));
#2339=CARTESIAN_POINT('',(13.3900255912824,25.3376809753619,18.));
#2340=CARTESIAN_POINT('',(2.89002559128245,25.3376809753619,18.));
#2341=CARTESIAN_POINT('',(23.8900255912824,32.3376809753619,18.));
#2342=CARTESIAN_POINT('',(23.8900255912824,34.337680975362,18.));
#2343=CARTESIAN_POINT('',(2.89002559128245,27.337680975362,18.));
#2344=CARTESIAN_POINT('',(0.890025591282449,27.337680975362,18.));
#2345=CARTESIAN_POINT('',(-5.00000066471577,34.337680975362,18.));
#2346=CARTESIAN_POINT('',(2.89002559128245,34.337680975362,18.));
#2347=CARTESIAN_POINT('',(0.890025591282449,-4.43143841066807E-7,18.));
#2348=CARTESIAN_POINT('',(0.890025591282449,32.3376809753619,18.));
#2349=CARTESIAN_POINT('',(2.89002559128245,32.3376809753619,18.));
#2350=CARTESIAN_POINT('',(41.8123436661576,-42.0046563338423,17.5));
#2351=CARTESIAN_POINT('',(41.8123436661576,-47.5046563338424,17.5));
#2352=CARTESIAN_POINT('',(47.3123436661576,-42.0046563338424,17.5));
#2353=CARTESIAN_POINT('',(47.3123436661576,-14.3797799432124,17.5));
#2354=CARTESIAN_POINT('',(47.3123436661576,13.2450964474175,17.5));
#2355=CARTESIAN_POINT('',(-0.187656333842379,-47.5046563338424,17.5));
#2356=CARTESIAN_POINT('',(-42.1876563338424,-47.5046563338424,17.5));
#2357=CARTESIAN_POINT('',(41.8123436661576,13.2450964474175,17.5));
#2358=CARTESIAN_POINT('',(41.8123436661576,18.7450964474175,17.5));
#2359=CARTESIAN_POINT('',(-42.1876563338424,-42.0046563338423,17.5));
#2360=CARTESIAN_POINT('',(-47.6876563338424,-42.0046563338423,17.5));
#2361=CARTESIAN_POINT('',(-5.00000066471577,18.7450964474175,17.5));
#2362=CARTESIAN_POINT('',(-42.1876563338424,18.7450964474175,17.5));
#2363=CARTESIAN_POINT('',(-47.6876563338424,-4.43143841066807E-7,17.5));
#2364=CARTESIAN_POINT('',(-47.6876563338424,13.2450964474176,17.5));
#2365=CARTESIAN_POINT('',(-42.1876563338424,13.2450964474175,17.5));
#2366=CARTESIAN_POINT('',(-59.5,-4.43143857212992E-7,17.5));
#2367=CARTESIAN_POINT('',(-59.5,-49.0000008862876,17.5));
#2368=CARTESIAN_POINT('',(-59.5,-2.15677412025555,17.5));
#2369=CARTESIAN_POINT('',(-57.,-2.15677412025555,17.5));
#2370=CARTESIAN_POINT('',(-58.3737778667845,-0.068058157580654,17.5));
#2371=CARTESIAN_POINT('',(-55.,-49.0000008862876,17.5));
#2372=CARTESIAN_POINT('',(-54.9999990029263,-53.5000008862875,17.5));
#2373=CARTESIAN_POINT('',(-21.0856339676901,24.4568785487252,17.5));
#2374=CARTESIAN_POINT('',(-51.5271998397878,4.43503250902012,17.5));
#2375=CARTESIAN_POINT('',(-4.99998881062024,-53.499989807689,17.5));
#2376=CARTESIAN_POINT('',(-51.0000003323579,-53.5,17.5));
#2377=CARTESIAN_POINT('',(-54.,8.19472124183493,17.5));
#2378=CARTESIAN_POINT('',(-49.5,8.19472124183493,17.5));
#2379=CARTESIAN_POINT('',(-3.,-53.5,17.5));
#2380=CARTESIAN_POINT('',(45.,-53.5,17.5));
#2381=CARTESIAN_POINT('',(-49.5,-4.43143841066807E-7,17.5));
#2382=CARTESIAN_POINT('',(-49.5,49.,17.5));
#2383=CARTESIAN_POINT('',(45.,-49.,17.5));
#2384=CARTESIAN_POINT('',(49.5,-49.,17.5));
#2385=CARTESIAN_POINT('',(-45.,49.,17.5));
#2386=CARTESIAN_POINT('',(-45.,53.5,17.5));
#2387=CARTESIAN_POINT('',(49.5,6.93889390390723E-15,17.5));
#2388=CARTESIAN_POINT('',(49.5,49.,17.5));
#2389=CARTESIAN_POINT('',(-5.00000066471578,53.5,17.5));
#2390=CARTESIAN_POINT('',(45.,53.5,17.5));
#2391=CARTESIAN_POINT('',(45.,49.,17.5));
#2392=MECHANICAL_DESIGN_GEOMETRIC_PRESENTATION_REPRESENTATION('',(#1354),
#2393);
#2393=(
GEOMETRIC_REPRESENTATION_CONTEXT(3)
GLOBAL_UNCERTAINTY_ASSIGNED_CONTEXT((#2394))
GLOBAL_UNIT_ASSIGNED_CONTEXT((#2397,#2396,#2395))
REPRESENTATION_CONTEXT('Part 3','TOP_LEVEL_ASSEMBLY_PART')
);
#2394=UNCERTAINTY_MEASURE_WITH_UNIT(LENGTH_MEASURE(1.E-5),#2397,
'DISTANCE_ACCURACY_VALUE','Maximum Tolerance applied to model');
#2395=(
NAMED_UNIT(*)
SI_UNIT($,.STERADIAN.)
SOLID_ANGLE_UNIT()
);
#2396=(
NAMED_UNIT(*)
PLANE_ANGLE_UNIT()
SI_UNIT($,.RADIAN.)
);
#2397=(
LENGTH_UNIT()
NAMED_UNIT(*)
SI_UNIT(.MILLI.,.METRE.)
);
#2398=PRODUCT_DEFINITION_SHAPE('','',#2399);
#2399=PRODUCT_DEFINITION('','',#2401,#2400);
#2400=PRODUCT_DEFINITION_CONTEXT('',#2407,'design');
#2401=PRODUCT_DEFINITION_FORMATION_WITH_SPECIFIED_SOURCE('','',#2403,
 .NOT_KNOWN.);
#2402=PRODUCT_RELATED_PRODUCT_CATEGORY('','',(#2403));
#2403=PRODUCT('Part 3','Part 3','Part 3',(#2405));
#2404=PRODUCT_CATEGORY('','');
#2405=PRODUCT_CONTEXT('',#2407,'mechanical');
#2406=APPLICATION_PROTOCOL_DEFINITION('international standard',
'ap242_managed_model_based_3d_engineering',2020,#2407);
#2407=APPLICATION_CONTEXT('managed model based 3d engineering');
ENDSEC;
END-ISO-10303-21;
