ISO-10303-21;
HEADER;
/* Generated by software containing ST-Developer
 * from STEP Tools, Inc. (www.steptools.com) 
 */
/* OPTION: using custom renumber hook */

FILE_DESCRIPTION(
/* description */ ('STEP AP242 Edition 2',
'CAx-IF Rec.Pracs.---Representation and Presentation of Product Manufa
cturing Information (PMI)---4.0---2014-10-13',
'CAx-IF Rec.Pracs.---3D Tessellated Geometry---0.4---2014-09-14','2;1',
'CAx-IF Rec.Pracs.---User Defined Attributes---1.5---2016-08-15'),
/* implementation_level */ '2;1');

FILE_NAME(
/* name */ 'RhythmPad - Part 1',
/* time_stamp */ '2026-09-26T04:35:03Z',
/* author */ (''),
/* organization */ (''),
/* preprocessor_version */ 'ST-DEVELOPER v20',
/* originating_system */ 'ONSHAPE BY PTC INC, 1.221',
/* authorisation */ '  ');

FILE_SCHEMA (('AP242_MANAGED_MODEL_BASED_3D_ENGINEERING_MIM_LF { 1 0 10303 442 3 1 4 }'));
ENDSEC;

DATA;
#10=SHAPE_REPRESENTATION_RELATIONSHIP('','',#754,#11);
#11=ADVANCED_BREP_SHAPE_REPRESENTATION('',(#752),#1276);
#12=CYLINDRICAL_SURFACE('',#789,6.);
#13=CYLINDRICAL_SURFACE('',#791,6.);
#14=CYLINDRICAL_SURFACE('',#792,6.);
#15=CYLINDRICAL_SURFACE('',#794,3.);
#16=CYLINDRICAL_SURFACE('',#796,4.);
#17=CYLINDRICAL_SURFACE('',#798,6.);
#18=CYLINDRICAL_SURFACE('',#800,1.7);
#19=CYLINDRICAL_SURFACE('',#802,1.7);
#20=CYLINDRICAL_SURFACE('',#804,1.7);
#21=CYLINDRICAL_SURFACE('',#806,1.7);
#22=CYLINDRICAL_SURFACE('',#809,2.35);
#23=CYLINDRICAL_SURFACE('',#813,2.35);
#24=CYLINDRICAL_SURFACE('',#817,2.35);
#25=CYLINDRICAL_SURFACE('',#821,2.35);
#26=CYLINDRICAL_SURFACE('',#825,3.);
#27=CYLINDRICAL_SURFACE('',#828,3.);
#28=CYLINDRICAL_SURFACE('',#831,3.);
#29=CYLINDRICAL_SURFACE('',#834,3.);
#30=CYLINDRICAL_SURFACE('',#838,1.);
#31=CYLINDRICAL_SURFACE('',#839,1.);
#32=CIRCLE('',#757,1.);
#33=CIRCLE('',#759,1.);
#34=CIRCLE('',#760,1.);
#35=CIRCLE('',#762,1.7);
#36=CIRCLE('',#763,1.7);
#37=CIRCLE('',#764,1.7);
#38=CIRCLE('',#765,1.7);
#39=CIRCLE('',#766,6.);
#40=CIRCLE('',#767,3.);
#41=CIRCLE('',#768,4.);
#42=CIRCLE('',#769,6.);
#43=CIRCLE('',#770,6.);
#44=CIRCLE('',#771,6.);
#45=CIRCLE('',#773,3.);
#46=CIRCLE('',#774,3.);
#47=CIRCLE('',#775,3.);
#48=CIRCLE('',#776,3.);
#49=CIRCLE('',#777,6.);
#50=CIRCLE('',#778,4.);
#51=CIRCLE('',#779,3.);
#52=CIRCLE('',#780,6.);
#53=CIRCLE('',#781,6.);
#54=CIRCLE('',#782,6.);
#55=CIRCLE('',#785,1.);
#56=CIRCLE('',#801,1.7);
#57=CIRCLE('',#803,1.7);
#58=CIRCLE('',#805,1.7);
#59=CIRCLE('',#807,1.7);
#60=CIRCLE('',#810,2.35);
#61=CIRCLE('',#811,2.35);
#62=CIRCLE('',#814,2.35);
#63=CIRCLE('',#815,2.35);
#64=CIRCLE('',#818,2.35);
#65=CIRCLE('',#819,2.35);
#66=CIRCLE('',#822,2.35);
#67=CIRCLE('',#823,2.35);
#68=CIRCLE('',#826,3.);
#69=CIRCLE('',#829,3.);
#70=CIRCLE('',#832,3.);
#71=CIRCLE('',#835,3.);
#72=ORIENTED_EDGE('',*,*,#258,.F.);
#73=ORIENTED_EDGE('',*,*,#259,.F.);
#74=ORIENTED_EDGE('',*,*,#260,.F.);
#75=ORIENTED_EDGE('',*,*,#261,.F.);
#76=ORIENTED_EDGE('',*,*,#262,.T.);
#77=ORIENTED_EDGE('',*,*,#263,.F.);
#78=ORIENTED_EDGE('',*,*,#264,.F.);
#79=ORIENTED_EDGE('',*,*,#265,.T.);
#80=ORIENTED_EDGE('',*,*,#266,.T.);
#81=ORIENTED_EDGE('',*,*,#267,.F.);
#82=ORIENTED_EDGE('',*,*,#268,.F.);
#83=ORIENTED_EDGE('',*,*,#269,.T.);
#84=ORIENTED_EDGE('',*,*,#270,.F.);
#85=ORIENTED_EDGE('',*,*,#271,.F.);
#86=ORIENTED_EDGE('',*,*,#272,.F.);
#87=ORIENTED_EDGE('',*,*,#273,.F.);
#88=ORIENTED_EDGE('',*,*,#274,.F.);
#89=ORIENTED_EDGE('',*,*,#275,.F.);
#90=ORIENTED_EDGE('',*,*,#276,.F.);
#91=ORIENTED_EDGE('',*,*,#277,.F.);
#92=ORIENTED_EDGE('',*,*,#278,.T.);
#93=ORIENTED_EDGE('',*,*,#268,.T.);
#94=ORIENTED_EDGE('',*,*,#279,.T.);
#95=ORIENTED_EDGE('',*,*,#280,.T.);
#96=ORIENTED_EDGE('',*,*,#281,.F.);
#97=ORIENTED_EDGE('',*,*,#282,.T.);
#98=ORIENTED_EDGE('',*,*,#283,.T.);
#99=ORIENTED_EDGE('',*,*,#284,.T.);
#100=ORIENTED_EDGE('',*,*,#285,.T.);
#101=ORIENTED_EDGE('',*,*,#286,.T.);
#102=ORIENTED_EDGE('',*,*,#287,.F.);
#103=ORIENTED_EDGE('',*,*,#288,.T.);
#104=ORIENTED_EDGE('',*,*,#289,.F.);
#105=ORIENTED_EDGE('',*,*,#290,.T.);
#106=ORIENTED_EDGE('',*,*,#264,.T.);
#107=ORIENTED_EDGE('',*,*,#291,.F.);
#108=ORIENTED_EDGE('',*,*,#262,.F.);
#109=ORIENTED_EDGE('',*,*,#292,.T.);
#110=ORIENTED_EDGE('',*,*,#293,.T.);
#111=ORIENTED_EDGE('',*,*,#294,.F.);
#112=ORIENTED_EDGE('',*,*,#295,.T.);
#113=ORIENTED_EDGE('',*,*,#296,.T.);
#114=ORIENTED_EDGE('',*,*,#297,.T.);
#115=ORIENTED_EDGE('',*,*,#298,.T.);
#116=ORIENTED_EDGE('',*,*,#299,.T.);
#117=ORIENTED_EDGE('',*,*,#300,.F.);
#118=ORIENTED_EDGE('',*,*,#301,.F.);
#119=ORIENTED_EDGE('',*,*,#302,.F.);
#120=ORIENTED_EDGE('',*,*,#303,.F.);
#121=ORIENTED_EDGE('',*,*,#304,.F.);
#122=ORIENTED_EDGE('',*,*,#305,.T.);
#123=ORIENTED_EDGE('',*,*,#306,.F.);
#124=ORIENTED_EDGE('',*,*,#307,.F.);
#125=ORIENTED_EDGE('',*,*,#266,.F.);
#126=ORIENTED_EDGE('',*,*,#308,.F.);
#127=ORIENTED_EDGE('',*,*,#309,.T.);
#128=ORIENTED_EDGE('',*,*,#310,.F.);
#129=ORIENTED_EDGE('',*,*,#261,.T.);
#130=ORIENTED_EDGE('',*,*,#311,.T.);
#131=ORIENTED_EDGE('',*,*,#312,.F.);
#132=ORIENTED_EDGE('',*,*,#292,.F.);
#133=ORIENTED_EDGE('',*,*,#313,.F.);
#134=ORIENTED_EDGE('',*,*,#314,.T.);
#135=ORIENTED_EDGE('',*,*,#277,.T.);
#136=ORIENTED_EDGE('',*,*,#315,.T.);
#137=ORIENTED_EDGE('',*,*,#316,.F.);
#138=ORIENTED_EDGE('',*,*,#317,.F.);
#139=ORIENTED_EDGE('',*,*,#315,.F.);
#140=ORIENTED_EDGE('',*,*,#294,.T.);
#141=ORIENTED_EDGE('',*,*,#318,.T.);
#142=ORIENTED_EDGE('',*,*,#312,.T.);
#143=ORIENTED_EDGE('',*,*,#319,.T.);
#144=ORIENTED_EDGE('',*,*,#318,.F.);
#145=ORIENTED_EDGE('',*,*,#293,.F.);
#146=ORIENTED_EDGE('',*,*,#299,.F.);
#147=ORIENTED_EDGE('',*,*,#320,.F.);
#148=ORIENTED_EDGE('',*,*,#287,.T.);
#149=ORIENTED_EDGE('',*,*,#321,.T.);
#150=ORIENTED_EDGE('',*,*,#310,.T.);
#151=ORIENTED_EDGE('',*,*,#322,.F.);
#152=ORIENTED_EDGE('',*,*,#288,.F.);
#153=ORIENTED_EDGE('',*,*,#320,.T.);
#154=ORIENTED_EDGE('',*,*,#309,.F.);
#155=ORIENTED_EDGE('',*,*,#323,.F.);
#156=ORIENTED_EDGE('',*,*,#289,.T.);
#157=ORIENTED_EDGE('',*,*,#322,.T.);
#158=ORIENTED_EDGE('',*,*,#308,.T.);
#159=ORIENTED_EDGE('',*,*,#265,.F.);
#160=ORIENTED_EDGE('',*,*,#290,.F.);
#161=ORIENTED_EDGE('',*,*,#323,.T.);
#162=ORIENTED_EDGE('',*,*,#307,.T.);
#163=ORIENTED_EDGE('',*,*,#324,.F.);
#164=ORIENTED_EDGE('',*,*,#279,.F.);
#165=ORIENTED_EDGE('',*,*,#267,.T.);
#166=ORIENTED_EDGE('',*,*,#306,.T.);
#167=ORIENTED_EDGE('',*,*,#325,.F.);
#168=ORIENTED_EDGE('',*,*,#280,.F.);
#169=ORIENTED_EDGE('',*,*,#324,.T.);
#170=ORIENTED_EDGE('',*,*,#305,.F.);
#171=ORIENTED_EDGE('',*,*,#326,.F.);
#172=ORIENTED_EDGE('',*,*,#281,.T.);
#173=ORIENTED_EDGE('',*,*,#325,.T.);
#174=ORIENTED_EDGE('',*,*,#304,.T.);
#175=ORIENTED_EDGE('',*,*,#327,.F.);
#176=ORIENTED_EDGE('',*,*,#282,.F.);
#177=ORIENTED_EDGE('',*,*,#326,.T.);
#178=ORIENTED_EDGE('',*,*,#303,.T.);
#179=ORIENTED_EDGE('',*,*,#328,.F.);
#180=ORIENTED_EDGE('',*,*,#283,.F.);
#181=ORIENTED_EDGE('',*,*,#327,.T.);
#182=ORIENTED_EDGE('',*,*,#302,.T.);
#183=ORIENTED_EDGE('',*,*,#329,.F.);
#184=ORIENTED_EDGE('',*,*,#284,.F.);
#185=ORIENTED_EDGE('',*,*,#328,.T.);
#186=ORIENTED_EDGE('',*,*,#301,.T.);
#187=ORIENTED_EDGE('',*,*,#330,.F.);
#188=ORIENTED_EDGE('',*,*,#285,.F.);
#189=ORIENTED_EDGE('',*,*,#329,.T.);
#190=ORIENTED_EDGE('',*,*,#300,.T.);
#191=ORIENTED_EDGE('',*,*,#321,.F.);
#192=ORIENTED_EDGE('',*,*,#286,.F.);
#193=ORIENTED_EDGE('',*,*,#330,.T.);
#194=ORIENTED_EDGE('',*,*,#331,.F.);
#195=ORIENTED_EDGE('',*,*,#276,.T.);
#196=ORIENTED_EDGE('',*,*,#332,.F.);
#197=ORIENTED_EDGE('',*,*,#275,.T.);
#198=ORIENTED_EDGE('',*,*,#333,.F.);
#199=ORIENTED_EDGE('',*,*,#274,.T.);
#200=ORIENTED_EDGE('',*,*,#334,.F.);
#201=ORIENTED_EDGE('',*,*,#273,.T.);
#202=ORIENTED_EDGE('',*,*,#260,.T.);
#203=ORIENTED_EDGE('',*,*,#335,.T.);
#204=ORIENTED_EDGE('',*,*,#271,.T.);
#205=ORIENTED_EDGE('',*,*,#336,.F.);
#206=ORIENTED_EDGE('',*,*,#316,.T.);
#207=ORIENTED_EDGE('',*,*,#317,.T.);
#208=ORIENTED_EDGE('',*,*,#319,.F.);
#209=ORIENTED_EDGE('',*,*,#311,.F.);
#210=ORIENTED_EDGE('',*,*,#337,.F.);
#211=ORIENTED_EDGE('',*,*,#338,.T.);
#212=ORIENTED_EDGE('',*,*,#334,.T.);
#213=ORIENTED_EDGE('',*,*,#338,.F.);
#214=ORIENTED_EDGE('',*,*,#339,.F.);
#215=ORIENTED_EDGE('',*,*,#340,.T.);
#216=ORIENTED_EDGE('',*,*,#333,.T.);
#217=ORIENTED_EDGE('',*,*,#340,.F.);
#218=ORIENTED_EDGE('',*,*,#341,.F.);
#219=ORIENTED_EDGE('',*,*,#342,.T.);
#220=ORIENTED_EDGE('',*,*,#332,.T.);
#221=ORIENTED_EDGE('',*,*,#342,.F.);
#222=ORIENTED_EDGE('',*,*,#343,.F.);
#223=ORIENTED_EDGE('',*,*,#344,.T.);
#224=ORIENTED_EDGE('',*,*,#331,.T.);
#225=ORIENTED_EDGE('',*,*,#344,.F.);
#226=ORIENTED_EDGE('',*,*,#345,.T.);
#227=ORIENTED_EDGE('',*,*,#297,.F.);
#228=ORIENTED_EDGE('',*,*,#343,.T.);
#229=ORIENTED_EDGE('',*,*,#345,.F.);
#230=ORIENTED_EDGE('',*,*,#346,.T.);
#231=ORIENTED_EDGE('',*,*,#296,.F.);
#232=ORIENTED_EDGE('',*,*,#341,.T.);
#233=ORIENTED_EDGE('',*,*,#346,.F.);
#234=ORIENTED_EDGE('',*,*,#347,.T.);
#235=ORIENTED_EDGE('',*,*,#298,.F.);
#236=ORIENTED_EDGE('',*,*,#339,.T.);
#237=ORIENTED_EDGE('',*,*,#347,.F.);
#238=ORIENTED_EDGE('',*,*,#348,.T.);
#239=ORIENTED_EDGE('',*,*,#295,.F.);
#240=ORIENTED_EDGE('',*,*,#337,.T.);
#241=ORIENTED_EDGE('',*,*,#348,.F.);
#242=ORIENTED_EDGE('',*,*,#258,.T.);
#243=ORIENTED_EDGE('',*,*,#291,.T.);
#244=ORIENTED_EDGE('',*,*,#263,.T.);
#245=ORIENTED_EDGE('',*,*,#349,.F.);
#246=ORIENTED_EDGE('',*,*,#259,.T.);
#247=ORIENTED_EDGE('',*,*,#349,.T.);
#248=ORIENTED_EDGE('',*,*,#272,.T.);
#249=ORIENTED_EDGE('',*,*,#335,.F.);
#250=ORIENTED_EDGE('',*,*,#313,.T.);
#251=ORIENTED_EDGE('',*,*,#336,.T.);
#252=ORIENTED_EDGE('',*,*,#270,.T.);
#253=ORIENTED_EDGE('',*,*,#350,.F.);
#254=ORIENTED_EDGE('',*,*,#350,.T.);
#255=ORIENTED_EDGE('',*,*,#269,.F.);
#256=ORIENTED_EDGE('',*,*,#278,.F.);
#257=ORIENTED_EDGE('',*,*,#314,.F.);
#258=EDGE_CURVE('',#351,#352,#421,.T.);
#259=EDGE_CURVE('',#353,#351,#32,.T.);
#260=EDGE_CURVE('',#354,#353,#422,.T.);
#261=EDGE_CURVE('',#355,#354,#423,.T.);
#262=EDGE_CURVE('',#355,#352,#424,.T.);
#263=EDGE_CURVE('',#356,#357,#425,.T.);
#264=EDGE_CURVE('',#358,#356,#426,.T.);
#265=EDGE_CURVE('',#358,#359,#427,.T.);
#266=EDGE_CURVE('',#359,#360,#428,.T.);
#267=EDGE_CURVE('',#361,#360,#429,.T.);
#268=EDGE_CURVE('',#362,#361,#430,.T.);
#269=EDGE_CURVE('',#362,#363,#431,.T.);
#270=EDGE_CURVE('',#364,#363,#33,.T.);
#271=EDGE_CURVE('',#365,#364,#432,.T.);
#272=EDGE_CURVE('',#357,#365,#34,.T.);
#273=EDGE_CURVE('',#366,#366,#35,.T.);
#274=EDGE_CURVE('',#367,#367,#36,.T.);
#275=EDGE_CURVE('',#368,#368,#37,.T.);
#276=EDGE_CURVE('',#369,#369,#38,.T.);
#277=EDGE_CURVE('',#370,#371,#433,.T.);
#278=EDGE_CURVE('',#370,#362,#434,.T.);
#279=EDGE_CURVE('',#361,#372,#39,.T.);
#280=EDGE_CURVE('',#372,#373,#435,.T.);
#281=EDGE_CURVE('',#374,#373,#40,.T.);
#282=EDGE_CURVE('',#374,#375,#436,.T.);
#283=EDGE_CURVE('',#375,#376,#41,.T.);
#284=EDGE_CURVE('',#376,#377,#437,.T.);
#285=EDGE_CURVE('',#377,#378,#42,.T.);
#286=EDGE_CURVE('',#378,#379,#438,.T.);
#287=EDGE_CURVE('',#380,#379,#439,.T.);
#288=EDGE_CURVE('',#380,#381,#43,.T.);
#289=EDGE_CURVE('',#382,#381,#440,.T.);
#290=EDGE_CURVE('',#382,#358,#44,.T.);
#291=EDGE_CURVE('',#352,#356,#441,.T.);
#292=EDGE_CURVE('',#355,#383,#442,.T.);
#293=EDGE_CURVE('',#383,#384,#443,.T.);
#294=EDGE_CURVE('',#371,#384,#444,.T.);
#295=EDGE_CURVE('',#385,#385,#45,.T.);
#296=EDGE_CURVE('',#386,#386,#46,.T.);
#297=EDGE_CURVE('',#387,#387,#47,.T.);
#298=EDGE_CURVE('',#388,#388,#48,.T.);
#299=EDGE_CURVE('',#389,#390,#445,.T.);
#300=EDGE_CURVE('',#391,#390,#446,.T.);
#301=EDGE_CURVE('',#392,#391,#49,.T.);
#302=EDGE_CURVE('',#393,#392,#447,.T.);
#303=EDGE_CURVE('',#394,#393,#50,.T.);
#304=EDGE_CURVE('',#395,#394,#448,.T.);
#305=EDGE_CURVE('',#395,#396,#51,.T.);
#306=EDGE_CURVE('',#397,#396,#449,.T.);
#307=EDGE_CURVE('',#360,#397,#52,.T.);
#308=EDGE_CURVE('',#398,#359,#53,.T.);
#309=EDGE_CURVE('',#398,#399,#450,.T.);
#310=EDGE_CURVE('',#389,#399,#54,.T.);
#311=EDGE_CURVE('',#354,#400,#451,.T.);
#312=EDGE_CURVE('',#383,#400,#452,.T.);
#313=EDGE_CURVE('',#401,#402,#55,.T.);
#314=EDGE_CURVE('',#401,#370,#453,.T.);
#315=EDGE_CURVE('',#371,#403,#454,.T.);
#316=EDGE_CURVE('',#402,#403,#455,.T.);
#317=EDGE_CURVE('',#403,#404,#456,.T.);
#318=EDGE_CURVE('',#384,#404,#457,.T.);
#319=EDGE_CURVE('',#400,#404,#458,.T.);
#320=EDGE_CURVE('',#380,#389,#459,.T.);
#321=EDGE_CURVE('',#379,#390,#460,.T.);
#322=EDGE_CURVE('',#381,#399,#461,.T.);
#323=EDGE_CURVE('',#382,#398,#462,.T.);
#324=EDGE_CURVE('',#372,#397,#463,.T.);
#325=EDGE_CURVE('',#373,#396,#464,.T.);
#326=EDGE_CURVE('',#374,#395,#465,.T.);
#327=EDGE_CURVE('',#375,#394,#466,.T.);
#328=EDGE_CURVE('',#376,#393,#467,.T.);
#329=EDGE_CURVE('',#377,#392,#468,.T.);
#330=EDGE_CURVE('',#378,#391,#469,.T.);
#331=EDGE_CURVE('',#405,#405,#56,.T.);
#332=EDGE_CURVE('',#406,#406,#57,.T.);
#333=EDGE_CURVE('',#407,#407,#58,.T.);
#334=EDGE_CURVE('',#408,#408,#59,.T.);
#335=EDGE_CURVE('',#353,#365,#470,.T.);
#336=EDGE_CURVE('',#402,#364,#471,.T.);
#337=EDGE_CURVE('',#409,#409,#60,.T.);
#338=EDGE_CURVE('',#410,#410,#61,.T.);
#339=EDGE_CURVE('',#411,#411,#62,.T.);
#340=EDGE_CURVE('',#412,#412,#63,.T.);
#341=EDGE_CURVE('',#413,#413,#64,.T.);
#342=EDGE_CURVE('',#414,#414,#65,.T.);
#343=EDGE_CURVE('',#415,#415,#66,.T.);
#344=EDGE_CURVE('',#416,#416,#67,.T.);
#345=EDGE_CURVE('',#417,#417,#68,.T.);
#346=EDGE_CURVE('',#418,#418,#69,.T.);
#347=EDGE_CURVE('',#419,#419,#70,.T.);
#348=EDGE_CURVE('',#420,#420,#71,.T.);
#349=EDGE_CURVE('',#351,#357,#472,.T.);
#350=EDGE_CURVE('',#401,#363,#473,.T.);
#351=VERTEX_POINT('',#1069);
#352=VERTEX_POINT('',#1070);
#353=VERTEX_POINT('',#1072);
#354=VERTEX_POINT('',#1074);
#355=VERTEX_POINT('',#1076);
#356=VERTEX_POINT('',#1080);
#357=VERTEX_POINT('',#1081);
#358=VERTEX_POINT('',#1083);
#359=VERTEX_POINT('',#1085);
#360=VERTEX_POINT('',#1087);
#361=VERTEX_POINT('',#1089);
#362=VERTEX_POINT('',#1091);
#363=VERTEX_POINT('',#1093);
#364=VERTEX_POINT('',#1095);
#365=VERTEX_POINT('',#1097);
#366=VERTEX_POINT('',#1101);
#367=VERTEX_POINT('',#1103);
#368=VERTEX_POINT('',#1105);
#369=VERTEX_POINT('',#1107);
#370=VERTEX_POINT('',#1109);
#371=VERTEX_POINT('',#1110);
#372=VERTEX_POINT('',#1113);
#373=VERTEX_POINT('',#1115);
#374=VERTEX_POINT('',#1117);
#375=VERTEX_POINT('',#1119);
#376=VERTEX_POINT('',#1121);
#377=VERTEX_POINT('',#1123);
#378=VERTEX_POINT('',#1125);
#379=VERTEX_POINT('',#1127);
#380=VERTEX_POINT('',#1129);
#381=VERTEX_POINT('',#1131);
#382=VERTEX_POINT('',#1133);
#383=VERTEX_POINT('',#1137);
#384=VERTEX_POINT('',#1139);
#385=VERTEX_POINT('',#1143);
#386=VERTEX_POINT('',#1145);
#387=VERTEX_POINT('',#1147);
#388=VERTEX_POINT('',#1149);
#389=VERTEX_POINT('',#1151);
#390=VERTEX_POINT('',#1152);
#391=VERTEX_POINT('',#1154);
#392=VERTEX_POINT('',#1156);
#393=VERTEX_POINT('',#1158);
#394=VERTEX_POINT('',#1160);
#395=VERTEX_POINT('',#1162);
#396=VERTEX_POINT('',#1164);
#397=VERTEX_POINT('',#1166);
#398=VERTEX_POINT('',#1169);
#399=VERTEX_POINT('',#1171);
#400=VERTEX_POINT('',#1175);
#401=VERTEX_POINT('',#1179);
#402=VERTEX_POINT('',#1180);
#403=VERTEX_POINT('',#1183);
#404=VERTEX_POINT('',#1187);
#405=VERTEX_POINT('',#1216);
#406=VERTEX_POINT('',#1219);
#407=VERTEX_POINT('',#1222);
#408=VERTEX_POINT('',#1225);
#409=VERTEX_POINT('',#1231);
#410=VERTEX_POINT('',#1233);
#411=VERTEX_POINT('',#1237);
#412=VERTEX_POINT('',#1239);
#413=VERTEX_POINT('',#1243);
#414=VERTEX_POINT('',#1245);
#415=VERTEX_POINT('',#1249);
#416=VERTEX_POINT('',#1251);
#417=VERTEX_POINT('',#1255);
#418=VERTEX_POINT('',#1259);
#419=VERTEX_POINT('',#1263);
#420=VERTEX_POINT('',#1267);
#421=LINE('',#1068,#474);
#422=LINE('',#1073,#475);
#423=LINE('',#1075,#476);
#424=LINE('',#1077,#477);
#425=LINE('',#1079,#478);
#426=LINE('',#1082,#479);
#427=LINE('',#1084,#480);
#428=LINE('',#1086,#481);
#429=LINE('',#1088,#482);
#430=LINE('',#1090,#483);
#431=LINE('',#1092,#484);
#432=LINE('',#1096,#485);
#433=LINE('',#1108,#486);
#434=LINE('',#1111,#487);
#435=LINE('',#1114,#488);
#436=LINE('',#1118,#489);
#437=LINE('',#1122,#490);
#438=LINE('',#1126,#491);
#439=LINE('',#1128,#492);
#440=LINE('',#1132,#493);
#441=LINE('',#1135,#494);
#442=LINE('',#1136,#495);
#443=LINE('',#1138,#496);
#444=LINE('',#1140,#497);
#445=LINE('',#1150,#498);
#446=LINE('',#1153,#499);
#447=LINE('',#1157,#500);
#448=LINE('',#1161,#501);
#449=LINE('',#1165,#502);
#450=LINE('',#1170,#503);
#451=LINE('',#1174,#504);
#452=LINE('',#1176,#505);
#453=LINE('',#1181,#506);
#454=LINE('',#1182,#507);
#455=LINE('',#1184,#508);
#456=LINE('',#1186,#509);
#457=LINE('',#1188,#510);
#458=LINE('',#1190,#511);
#459=LINE('',#1192,#512);
#460=LINE('',#1193,#513);
#461=LINE('',#1195,#514);
#462=LINE('',#1197,#515);
#463=LINE('',#1200,#516);
#464=LINE('',#1202,#517);
#465=LINE('',#1204,#518);
#466=LINE('',#1206,#519);
#467=LINE('',#1208,#520);
#468=LINE('',#1210,#521);
#469=LINE('',#1212,#522);
#470=LINE('',#1227,#523);
#471=LINE('',#1228,#524);
#472=LINE('',#1270,#525);
#473=LINE('',#1273,#526);
#474=VECTOR('',#845,1000.);
#475=VECTOR('',#848,1000.);
#476=VECTOR('',#849,1000.);
#477=VECTOR('',#850,1000.);
#478=VECTOR('',#853,1000.);
#479=VECTOR('',#854,1000.);
#480=VECTOR('',#855,1000.);
#481=VECTOR('',#856,1000.);
#482=VECTOR('',#857,1000.);
#483=VECTOR('',#858,1000.);
#484=VECTOR('',#859,1000.);
#485=VECTOR('',#862,1000.);
#486=VECTOR('',#875,1000.);
#487=VECTOR('',#876,1000.);
#488=VECTOR('',#879,1000.);
#489=VECTOR('',#882,1000.);
#490=VECTOR('',#885,1000.);
#491=VECTOR('',#888,1000.);
#492=VECTOR('',#889,1000.);
#493=VECTOR('',#892,1000.);
#494=VECTOR('',#895,1000.);
#495=VECTOR('',#896,1000.);
#496=VECTOR('',#897,1000.);
#497=VECTOR('',#898,1000.);
#498=VECTOR('',#909,1000.);
#499=VECTOR('',#910,1000.);
#500=VECTOR('',#913,1000.);
#501=VECTOR('',#916,1000.);
#502=VECTOR('',#919,1000.);
#503=VECTOR('',#924,1000.);
#504=VECTOR('',#929,1000.);
#505=VECTOR('',#930,1000.);
#506=VECTOR('',#935,1000.);
#507=VECTOR('',#936,1000.);
#508=VECTOR('',#937,1000.);
#509=VECTOR('',#940,1000.);
#510=VECTOR('',#941,1000.);
#511=VECTOR('',#944,1000.);
#512=VECTOR('',#947,1000.);
#513=VECTOR('',#948,1000.);
#514=VECTOR('',#951,1000.);
#515=VECTOR('',#954,1000.);
#516=VECTOR('',#959,1000.);
#517=VECTOR('',#962,1000.);
#518=VECTOR('',#965,1000.);
#519=VECTOR('',#968,1000.);
#520=VECTOR('',#971,1000.);
#521=VECTOR('',#974,1000.);
#522=VECTOR('',#977,1000.);
#523=VECTOR('',#998,1000.);
#524=VECTOR('',#999,1000.);
#525=VECTOR('',#1058,1000.);
#526=VECTOR('',#1063,1000.);
#527=EDGE_LOOP('',(#72,#73,#74,#75,#76));
#528=EDGE_LOOP('',(#77,#78,#79,#80,#81,#82,#83,#84,#85,#86));
#529=EDGE_LOOP('',(#87));
#530=EDGE_LOOP('',(#88));
#531=EDGE_LOOP('',(#89));
#532=EDGE_LOOP('',(#90));
#533=EDGE_LOOP('',(#91,#92,#93,#94,#95,#96,#97,#98,#99,#100,#101,#102,#103,
#104,#105,#106,#107,#108,#109,#110,#111));
#534=EDGE_LOOP('',(#112));
#535=EDGE_LOOP('',(#113));
#536=EDGE_LOOP('',(#114));
#537=EDGE_LOOP('',(#115));
#538=EDGE_LOOP('',(#116,#117,#118,#119,#120,#121,#122,#123,#124,#125,#126,
#127,#128));
#539=EDGE_LOOP('',(#129,#130,#131,#132));
#540=EDGE_LOOP('',(#133,#134,#135,#136,#137));
#541=EDGE_LOOP('',(#138,#139,#140,#141));
#542=EDGE_LOOP('',(#142,#143,#144,#145));
#543=EDGE_LOOP('',(#146,#147,#148,#149));
#544=EDGE_LOOP('',(#150,#151,#152,#153));
#545=EDGE_LOOP('',(#154,#155,#156,#157));
#546=EDGE_LOOP('',(#158,#159,#160,#161));
#547=EDGE_LOOP('',(#162,#163,#164,#165));
#548=EDGE_LOOP('',(#166,#167,#168,#169));
#549=EDGE_LOOP('',(#170,#171,#172,#173));
#550=EDGE_LOOP('',(#174,#175,#176,#177));
#551=EDGE_LOOP('',(#178,#179,#180,#181));
#552=EDGE_LOOP('',(#182,#183,#184,#185));
#553=EDGE_LOOP('',(#186,#187,#188,#189));
#554=EDGE_LOOP('',(#190,#191,#192,#193));
#555=EDGE_LOOP('',(#194));
#556=EDGE_LOOP('',(#195));
#557=EDGE_LOOP('',(#196));
#558=EDGE_LOOP('',(#197));
#559=EDGE_LOOP('',(#198));
#560=EDGE_LOOP('',(#199));
#561=EDGE_LOOP('',(#200));
#562=EDGE_LOOP('',(#201));
#563=EDGE_LOOP('',(#202,#203,#204,#205,#206,#207,#208,#209));
#564=EDGE_LOOP('',(#210));
#565=EDGE_LOOP('',(#211));
#566=EDGE_LOOP('',(#212));
#567=EDGE_LOOP('',(#213));
#568=EDGE_LOOP('',(#214));
#569=EDGE_LOOP('',(#215));
#570=EDGE_LOOP('',(#216));
#571=EDGE_LOOP('',(#217));
#572=EDGE_LOOP('',(#218));
#573=EDGE_LOOP('',(#219));
#574=EDGE_LOOP('',(#220));
#575=EDGE_LOOP('',(#221));
#576=EDGE_LOOP('',(#222));
#577=EDGE_LOOP('',(#223));
#578=EDGE_LOOP('',(#224));
#579=EDGE_LOOP('',(#225));
#580=EDGE_LOOP('',(#226));
#581=EDGE_LOOP('',(#227));
#582=EDGE_LOOP('',(#228));
#583=EDGE_LOOP('',(#229));
#584=EDGE_LOOP('',(#230));
#585=EDGE_LOOP('',(#231));
#586=EDGE_LOOP('',(#232));
#587=EDGE_LOOP('',(#233));
#588=EDGE_LOOP('',(#234));
#589=EDGE_LOOP('',(#235));
#590=EDGE_LOOP('',(#236));
#591=EDGE_LOOP('',(#237));
#592=EDGE_LOOP('',(#238));
#593=EDGE_LOOP('',(#239));
#594=EDGE_LOOP('',(#240));
#595=EDGE_LOOP('',(#241));
#596=EDGE_LOOP('',(#242,#243,#244,#245));
#597=EDGE_LOOP('',(#246,#247,#248,#249));
#598=EDGE_LOOP('',(#250,#251,#252,#253));
#599=EDGE_LOOP('',(#254,#255,#256,#257));
#600=FACE_BOUND('',#527,.T.);
#601=FACE_BOUND('',#528,.T.);
#602=FACE_BOUND('',#529,.T.);
#603=FACE_BOUND('',#530,.T.);
#604=FACE_BOUND('',#531,.T.);
#605=FACE_BOUND('',#532,.T.);
#606=FACE_BOUND('',#533,.T.);
#607=FACE_BOUND('',#534,.T.);
#608=FACE_BOUND('',#535,.T.);
#609=FACE_BOUND('',#536,.T.);
#610=FACE_BOUND('',#537,.T.);
#611=FACE_BOUND('',#538,.T.);
#612=FACE_BOUND('',#539,.T.);
#613=FACE_BOUND('',#540,.T.);
#614=FACE_BOUND('',#541,.T.);
#615=FACE_BOUND('',#542,.T.);
#616=FACE_BOUND('',#543,.T.);
#617=FACE_BOUND('',#544,.T.);
#618=FACE_BOUND('',#545,.T.);
#619=FACE_BOUND('',#546,.T.);
#620=FACE_BOUND('',#547,.T.);
#621=FACE_BOUND('',#548,.T.);
#622=FACE_BOUND('',#549,.T.);
#623=FACE_BOUND('',#550,.T.);
#624=FACE_BOUND('',#551,.T.);
#625=FACE_BOUND('',#552,.T.);
#626=FACE_BOUND('',#553,.T.);
#627=FACE_BOUND('',#554,.T.);
#628=FACE_BOUND('',#555,.T.);
#629=FACE_BOUND('',#556,.T.);
#630=FACE_BOUND('',#557,.T.);
#631=FACE_BOUND('',#558,.T.);
#632=FACE_BOUND('',#559,.T.);
#633=FACE_BOUND('',#560,.T.);
#634=FACE_BOUND('',#561,.T.);
#635=FACE_BOUND('',#562,.T.);
#636=FACE_BOUND('',#563,.T.);
#637=FACE_BOUND('',#564,.T.);
#638=FACE_BOUND('',#565,.T.);
#639=FACE_BOUND('',#566,.T.);
#640=FACE_BOUND('',#567,.T.);
#641=FACE_BOUND('',#568,.T.);
#642=FACE_BOUND('',#569,.T.);
#643=FACE_BOUND('',#570,.T.);
#644=FACE_BOUND('',#571,.T.);
#645=FACE_BOUND('',#572,.T.);
#646=FACE_BOUND('',#573,.T.);
#647=FACE_BOUND('',#574,.T.);
#648=FACE_BOUND('',#575,.T.);
#649=FACE_BOUND('',#576,.T.);
#650=FACE_BOUND('',#577,.T.);
#651=FACE_BOUND('',#578,.T.);
#652=FACE_BOUND('',#579,.T.);
#653=FACE_BOUND('',#580,.T.);
#654=FACE_BOUND('',#581,.T.);
#655=FACE_BOUND('',#582,.T.);
#656=FACE_BOUND('',#583,.T.);
#657=FACE_BOUND('',#584,.T.);
#658=FACE_BOUND('',#585,.T.);
#659=FACE_BOUND('',#586,.T.);
#660=FACE_BOUND('',#587,.T.);
#661=FACE_BOUND('',#588,.T.);
#662=FACE_BOUND('',#589,.T.);
#663=FACE_BOUND('',#590,.T.);
#664=FACE_BOUND('',#591,.T.);
#665=FACE_BOUND('',#592,.T.);
#666=FACE_BOUND('',#593,.T.);
#667=FACE_BOUND('',#594,.T.);
#668=FACE_BOUND('',#595,.T.);
#669=FACE_BOUND('',#596,.T.);
#670=FACE_BOUND('',#597,.T.);
#671=FACE_BOUND('',#598,.T.);
#672=FACE_BOUND('',#599,.T.);
#673=PLANE('',#756);
#674=PLANE('',#758);
#675=PLANE('',#761);
#676=PLANE('',#772);
#677=PLANE('',#783);
#678=PLANE('',#784);
#679=PLANE('',#786);
#680=PLANE('',#787);
#681=PLANE('',#788);
#682=PLANE('',#790);
#683=PLANE('',#793);
#684=PLANE('',#795);
#685=PLANE('',#797);
#686=PLANE('',#799);
#687=PLANE('',#808);
#688=PLANE('',#812);
#689=PLANE('',#816);
#690=PLANE('',#820);
#691=PLANE('',#824);
#692=PLANE('',#827);
#693=PLANE('',#830);
#694=PLANE('',#833);
#695=PLANE('',#836);
#696=PLANE('',#837);
#697=PLANE('',#840);
#698=ADVANCED_FACE('',(#600),#673,.T.);
#699=ADVANCED_FACE('',(#601),#674,.F.);
#700=ADVANCED_FACE('',(#602,#603,#604,#605,#606),#675,.T.);
#701=ADVANCED_FACE('',(#607,#608,#609,#610,#611),#676,.F.);
#702=ADVANCED_FACE('',(#612),#677,.F.);
#703=ADVANCED_FACE('',(#613),#678,.T.);
#704=ADVANCED_FACE('',(#614),#679,.T.);
#705=ADVANCED_FACE('',(#615),#680,.F.);
#706=ADVANCED_FACE('',(#616),#681,.T.);
#707=ADVANCED_FACE('',(#617),#12,.T.);
#708=ADVANCED_FACE('',(#618),#682,.T.);
#709=ADVANCED_FACE('',(#619),#13,.T.);
#710=ADVANCED_FACE('',(#620),#14,.T.);
#711=ADVANCED_FACE('',(#621),#683,.F.);
#712=ADVANCED_FACE('',(#622),#15,.F.);
#713=ADVANCED_FACE('',(#623),#684,.F.);
#714=ADVANCED_FACE('',(#624),#16,.T.);
#715=ADVANCED_FACE('',(#625),#685,.F.);
#716=ADVANCED_FACE('',(#626),#17,.T.);
#717=ADVANCED_FACE('',(#627),#686,.F.);
#718=ADVANCED_FACE('',(#628,#629),#18,.F.);
#719=ADVANCED_FACE('',(#630,#631),#19,.F.);
#720=ADVANCED_FACE('',(#632,#633),#20,.F.);
#721=ADVANCED_FACE('',(#634,#635),#21,.F.);
#722=ADVANCED_FACE('',(#636),#687,.T.);
#723=ADVANCED_FACE('',(#637,#638),#22,.F.);
#724=ADVANCED_FACE('',(#639,#640),#688,.F.);
#725=ADVANCED_FACE('',(#641,#642),#23,.F.);
#726=ADVANCED_FACE('',(#643,#644),#689,.F.);
#727=ADVANCED_FACE('',(#645,#646),#24,.F.);
#728=ADVANCED_FACE('',(#647,#648),#690,.F.);
#729=ADVANCED_FACE('',(#649,#650),#25,.F.);
#730=ADVANCED_FACE('',(#651,#652),#691,.F.);
#731=ADVANCED_FACE('',(#653,#654),#26,.F.);
#732=ADVANCED_FACE('',(#655,#656),#692,.F.);
#733=ADVANCED_FACE('',(#657,#658),#27,.F.);
#734=ADVANCED_FACE('',(#659,#660),#693,.F.);
#735=ADVANCED_FACE('',(#661,#662),#28,.F.);
#736=ADVANCED_FACE('',(#663,#664),#694,.F.);
#737=ADVANCED_FACE('',(#665,#666),#29,.F.);
#738=ADVANCED_FACE('',(#667,#668),#695,.F.);
#739=ADVANCED_FACE('',(#669),#696,.F.);
#740=ADVANCED_FACE('',(#670),#30,.F.);
#741=ADVANCED_FACE('',(#671),#31,.F.);
#742=ADVANCED_FACE('',(#672),#697,.T.);
#743=CLOSED_SHELL('',(#698,#699,#700,#701,#702,#703,#704,#705,#706,#707,
#708,#709,#710,#711,#712,#713,#714,#715,#716,#717,#718,#719,#720,#721,#722,
#723,#724,#725,#726,#727,#728,#729,#730,#731,#732,#733,#734,#735,#736,#737,
#738,#739,#740,#741,#742));
#744=STYLED_ITEM('',(#745),#752);
#745=PRESENTATION_STYLE_ASSIGNMENT((#746));
#746=SURFACE_STYLE_USAGE(.BOTH.,#747);
#747=SURFACE_SIDE_STYLE('',(#748));
#748=SURFACE_STYLE_FILL_AREA(#749);
#749=FILL_AREA_STYLE('',(#750));
#750=FILL_AREA_STYLE_COLOUR('',#751);
#751=COLOUR_RGB('',0.917647058823529,0.917647058823529,0.917647058823529);
#752=MANIFOLD_SOLID_BREP('Part 1',#743);
#753=SHAPE_DEFINITION_REPRESENTATION(#1281,#754);
#754=SHAPE_REPRESENTATION('Part 1',(#755),#1276);
#755=AXIS2_PLACEMENT_3D('',#1066,#841,#842);
#756=AXIS2_PLACEMENT_3D('',#1067,#843,#844);
#757=AXIS2_PLACEMENT_3D('',#1071,#846,#847);
#758=AXIS2_PLACEMENT_3D('',#1078,#851,#852);
#759=AXIS2_PLACEMENT_3D('',#1094,#860,#861);
#760=AXIS2_PLACEMENT_3D('',#1098,#863,#864);
#761=AXIS2_PLACEMENT_3D('',#1099,#865,#866);
#762=AXIS2_PLACEMENT_3D('',#1100,#867,#868);
#763=AXIS2_PLACEMENT_3D('',#1102,#869,#870);
#764=AXIS2_PLACEMENT_3D('',#1104,#871,#872);
#765=AXIS2_PLACEMENT_3D('',#1106,#873,#874);
#766=AXIS2_PLACEMENT_3D('',#1112,#877,#878);
#767=AXIS2_PLACEMENT_3D('',#1116,#880,#881);
#768=AXIS2_PLACEMENT_3D('',#1120,#883,#884);
#769=AXIS2_PLACEMENT_3D('',#1124,#886,#887);
#770=AXIS2_PLACEMENT_3D('',#1130,#890,#891);
#771=AXIS2_PLACEMENT_3D('',#1134,#893,#894);
#772=AXIS2_PLACEMENT_3D('',#1141,#899,#900);
#773=AXIS2_PLACEMENT_3D('',#1142,#901,#902);
#774=AXIS2_PLACEMENT_3D('',#1144,#903,#904);
#775=AXIS2_PLACEMENT_3D('',#1146,#905,#906);
#776=AXIS2_PLACEMENT_3D('',#1148,#907,#908);
#777=AXIS2_PLACEMENT_3D('',#1155,#911,#912);
#778=AXIS2_PLACEMENT_3D('',#1159,#914,#915);
#779=AXIS2_PLACEMENT_3D('',#1163,#917,#918);
#780=AXIS2_PLACEMENT_3D('',#1167,#920,#921);
#781=AXIS2_PLACEMENT_3D('',#1168,#922,#923);
#782=AXIS2_PLACEMENT_3D('',#1172,#925,#926);
#783=AXIS2_PLACEMENT_3D('',#1173,#927,#928);
#784=AXIS2_PLACEMENT_3D('',#1177,#931,#932);
#785=AXIS2_PLACEMENT_3D('',#1178,#933,#934);
#786=AXIS2_PLACEMENT_3D('',#1185,#938,#939);
#787=AXIS2_PLACEMENT_3D('',#1189,#942,#943);
#788=AXIS2_PLACEMENT_3D('',#1191,#945,#946);
#789=AXIS2_PLACEMENT_3D('',#1194,#949,#950);
#790=AXIS2_PLACEMENT_3D('',#1196,#952,#953);
#791=AXIS2_PLACEMENT_3D('',#1198,#955,#956);
#792=AXIS2_PLACEMENT_3D('',#1199,#957,#958);
#793=AXIS2_PLACEMENT_3D('',#1201,#960,#961);
#794=AXIS2_PLACEMENT_3D('',#1203,#963,#964);
#795=AXIS2_PLACEMENT_3D('',#1205,#966,#967);
#796=AXIS2_PLACEMENT_3D('',#1207,#969,#970);
#797=AXIS2_PLACEMENT_3D('',#1209,#972,#973);
#798=AXIS2_PLACEMENT_3D('',#1211,#975,#976);
#799=AXIS2_PLACEMENT_3D('',#1213,#978,#979);
#800=AXIS2_PLACEMENT_3D('',#1214,#980,#981);
#801=AXIS2_PLACEMENT_3D('',#1215,#982,#983);
#802=AXIS2_PLACEMENT_3D('',#1217,#984,#985);
#803=AXIS2_PLACEMENT_3D('',#1218,#986,#987);
#804=AXIS2_PLACEMENT_3D('',#1220,#988,#989);
#805=AXIS2_PLACEMENT_3D('',#1221,#990,#991);
#806=AXIS2_PLACEMENT_3D('',#1223,#992,#993);
#807=AXIS2_PLACEMENT_3D('',#1224,#994,#995);
#808=AXIS2_PLACEMENT_3D('',#1226,#996,#997);
#809=AXIS2_PLACEMENT_3D('',#1229,#1000,#1001);
#810=AXIS2_PLACEMENT_3D('',#1230,#1002,#1003);
#811=AXIS2_PLACEMENT_3D('',#1232,#1004,#1005);
#812=AXIS2_PLACEMENT_3D('',#1234,#1006,#1007);
#813=AXIS2_PLACEMENT_3D('',#1235,#1008,#1009);
#814=AXIS2_PLACEMENT_3D('',#1236,#1010,#1011);
#815=AXIS2_PLACEMENT_3D('',#1238,#1012,#1013);
#816=AXIS2_PLACEMENT_3D('',#1240,#1014,#1015);
#817=AXIS2_PLACEMENT_3D('',#1241,#1016,#1017);
#818=AXIS2_PLACEMENT_3D('',#1242,#1018,#1019);
#819=AXIS2_PLACEMENT_3D('',#1244,#1020,#1021);
#820=AXIS2_PLACEMENT_3D('',#1246,#1022,#1023);
#821=AXIS2_PLACEMENT_3D('',#1247,#1024,#1025);
#822=AXIS2_PLACEMENT_3D('',#1248,#1026,#1027);
#823=AXIS2_PLACEMENT_3D('',#1250,#1028,#1029);
#824=AXIS2_PLACEMENT_3D('',#1252,#1030,#1031);
#825=AXIS2_PLACEMENT_3D('',#1253,#1032,#1033);
#826=AXIS2_PLACEMENT_3D('',#1254,#1034,#1035);
#827=AXIS2_PLACEMENT_3D('',#1256,#1036,#1037);
#828=AXIS2_PLACEMENT_3D('',#1257,#1038,#1039);
#829=AXIS2_PLACEMENT_3D('',#1258,#1040,#1041);
#830=AXIS2_PLACEMENT_3D('',#1260,#1042,#1043);
#831=AXIS2_PLACEMENT_3D('',#1261,#1044,#1045);
#832=AXIS2_PLACEMENT_3D('',#1262,#1046,#1047);
#833=AXIS2_PLACEMENT_3D('',#1264,#1048,#1049);
#834=AXIS2_PLACEMENT_3D('',#1265,#1050,#1051);
#835=AXIS2_PLACEMENT_3D('',#1266,#1052,#1053);
#836=AXIS2_PLACEMENT_3D('',#1268,#1054,#1055);
#837=AXIS2_PLACEMENT_3D('',#1269,#1056,#1057);
#838=AXIS2_PLACEMENT_3D('',#1271,#1059,#1060);
#839=AXIS2_PLACEMENT_3D('',#1272,#1061,#1062);
#840=AXIS2_PLACEMENT_3D('',#1274,#1064,#1065);
#841=DIRECTION('',(0.,0.,1.));
#842=DIRECTION('',(1.,0.,0.));
#843=DIRECTION('',(-1.71761176873082E-16,-1.,0.));
#844=DIRECTION('',(1.,-1.71761176873082E-16,0.));
#845=DIRECTION('',(0.,0.,1.));
#846=DIRECTION('',(-1.71761176873082E-16,-1.,0.));
#847=DIRECTION('',(1.,-1.71761176873082E-16,0.));
#848=DIRECTION('',(-1.,1.71761176873082E-16,0.));
#849=DIRECTION('',(0.,0.,-1.));
#850=DIRECTION('',(-1.,1.71761176873082E-16,0.));
#851=DIRECTION('',(1.54197642309049E-16,-1.,0.));
#852=DIRECTION('',(1.,1.54197642309049E-16,0.));
#853=DIRECTION('',(0.,0.,-1.));
#854=DIRECTION('',(-1.,-1.54197642309049E-16,0.));
#855=DIRECTION('',(0.,0.,-1.));
#856=DIRECTION('',(-1.,-1.54197642309049E-16,0.));
#857=DIRECTION('',(0.,0.,-1.));
#858=DIRECTION('',(-1.,-1.54197642309049E-16,0.));
#859=DIRECTION('',(0.,0.,-1.));
#860=DIRECTION('',(-1.54197642309049E-16,1.,0.));
#861=DIRECTION('',(-6.93889390390722E-15,0.,-1.));
#862=DIRECTION('',(-1.,-1.54197642309049E-16,0.));
#863=DIRECTION('',(-1.54197642309049E-16,1.,0.));
#864=DIRECTION('',(1.,0.,0.));
#865=DIRECTION('',(0.,0.,1.));
#866=DIRECTION('',(1.,0.,0.));
#867=DIRECTION('',(0.,0.,1.));
#868=DIRECTION('',(1.,0.,0.));
#869=DIRECTION('',(0.,0.,1.));
#870=DIRECTION('',(1.,0.,0.));
#871=DIRECTION('',(0.,0.,1.));
#872=DIRECTION('',(1.,0.,0.));
#873=DIRECTION('',(0.,0.,1.));
#874=DIRECTION('',(1.,0.,0.));
#875=DIRECTION('',(-1.,1.71761176873082E-16,0.));
#876=DIRECTION('',(-1.54197642309049E-16,1.,0.));
#877=DIRECTION('',(0.,0.,1.));
#878=DIRECTION('',(0.,1.,0.));
#879=DIRECTION('',(0.,-1.,0.));
#880=DIRECTION('',(0.,0.,1.));
#881=DIRECTION('',(0.549511146713812,-0.835486385069961,0.));
#882=DIRECTION('',(-0.83548638506996,-0.549511146713814,0.));
#883=DIRECTION('',(0.,0.,1.));
#884=DIRECTION('',(-0.549511146713811,0.835486385069962,0.));
#885=DIRECTION('',(2.9626028704491E-16,-1.,0.));
#886=DIRECTION('',(0.,0.,1.));
#887=DIRECTION('',(-1.,2.31296463463575E-15,0.));
#888=DIRECTION('',(0.999999999999976,2.21571923050912E-7,0.));
#889=DIRECTION('',(-1.,-1.44560289664734E-16,0.));
#890=DIRECTION('',(0.,0.,1.));
#891=DIRECTION('',(0.,-1.,0.));
#892=DIRECTION('',(0.,-1.,0.));
#893=DIRECTION('',(0.,0.,1.));
#894=DIRECTION('',(1.,0.,0.));
#895=DIRECTION('',(-1.54197642309049E-16,1.,0.));
#896=DIRECTION('',(-1.55681808887106E-16,-1.,0.));
#897=DIRECTION('',(-1.,1.71761176873082E-16,0.));
#898=DIRECTION('',(-1.55681808887106E-16,-1.,0.));
#899=DIRECTION('',(0.,0.,1.));
#900=DIRECTION('',(1.,0.,0.));
#901=DIRECTION('',(0.,0.,1.));
#902=DIRECTION('',(1.,0.,0.));
#903=DIRECTION('',(0.,0.,1.));
#904=DIRECTION('',(1.,0.,0.));
#905=DIRECTION('',(0.,0.,1.));
#906=DIRECTION('',(1.,0.,0.));
#907=DIRECTION('',(0.,0.,1.));
#908=DIRECTION('',(1.,0.,0.));
#909=DIRECTION('',(-1.,-1.44560289664734E-16,0.));
#910=DIRECTION('',(0.999999999999976,2.21571923050912E-7,0.));
#911=DIRECTION('',(0.,0.,1.));
#912=DIRECTION('',(-1.,2.31296463463575E-15,0.));
#913=DIRECTION('',(2.9626028704491E-16,-1.,0.));
#914=DIRECTION('',(0.,0.,1.));
#915=DIRECTION('',(-0.549511146713811,0.835486385069962,0.));
#916=DIRECTION('',(-0.83548638506996,-0.549511146713814,0.));
#917=DIRECTION('',(0.,0.,1.));
#918=DIRECTION('',(0.549511146713812,-0.835486385069961,0.));
#919=DIRECTION('',(0.,-1.,0.));
#920=DIRECTION('',(0.,0.,1.));
#921=DIRECTION('',(0.,1.,0.));
#922=DIRECTION('',(0.,0.,1.));
#923=DIRECTION('',(1.,0.,0.));
#924=DIRECTION('',(0.,-1.,0.));
#925=DIRECTION('',(0.,0.,1.));
#926=DIRECTION('',(0.,-1.,0.));
#927=DIRECTION('',(1.,-1.55681808887106E-16,0.));
#928=DIRECTION('',(1.55681808887106E-16,1.,0.));
#929=DIRECTION('',(-1.55681808887106E-16,-1.,0.));
#930=DIRECTION('',(0.,0.,-1.));
#931=DIRECTION('',(-1.71761176873082E-16,-1.,0.));
#932=DIRECTION('',(1.,-1.71761176873082E-16,0.));
#933=DIRECTION('',(-1.71761176873082E-16,-1.,0.));
#934=DIRECTION('',(1.,-1.71761176873082E-16,0.));
#935=DIRECTION('',(0.,0.,1.));
#936=DIRECTION('',(0.,0.,-1.));
#937=DIRECTION('',(-1.,1.71761176873082E-16,0.));
#938=DIRECTION('',(1.,-1.55681808887106E-16,0.));
#939=DIRECTION('',(1.55681808887106E-16,1.,0.));
#940=DIRECTION('',(-1.55681808887106E-16,-1.,0.));
#941=DIRECTION('',(0.,0.,-1.));
#942=DIRECTION('',(-1.71761176873082E-16,-1.,0.));
#943=DIRECTION('',(1.,-1.71761176873082E-16,0.));
#944=DIRECTION('',(-1.,1.71761176873082E-16,0.));
#945=DIRECTION('',(1.44560289664734E-16,-1.,0.));
#946=DIRECTION('',(1.,1.44560289664734E-16,0.));
#947=DIRECTION('',(0.,0.,-1.));
#948=DIRECTION('',(0.,0.,-1.));
#949=DIRECTION('',(0.,0.,-1.));
#950=DIRECTION('',(-1.,0.,0.));
#951=DIRECTION('',(0.,0.,-1.));
#952=DIRECTION('',(1.,0.,0.));
#953=DIRECTION('',(0.,0.,-1.));
#954=DIRECTION('',(0.,0.,-1.));
#955=DIRECTION('',(0.,0.,-1.));
#956=DIRECTION('',(-1.,0.,0.));
#957=DIRECTION('',(0.,0.,-1.));
#958=DIRECTION('',(-1.,0.,0.));
#959=DIRECTION('',(0.,0.,-1.));
#960=DIRECTION('',(1.,0.,0.));
#961=DIRECTION('',(0.,0.,-1.));
#962=DIRECTION('',(0.,0.,-1.));
#963=DIRECTION('',(0.,0.,-1.));
#964=DIRECTION('',(-1.,0.,0.));
#965=DIRECTION('',(0.,0.,-1.));
#966=DIRECTION('',(0.549511146713814,-0.83548638506996,0.));
#967=DIRECTION('',(0.83548638506996,0.549511146713814,0.));
#968=DIRECTION('',(0.,0.,-1.));
#969=DIRECTION('',(0.,0.,-1.));
#970=DIRECTION('',(-1.,0.,0.));
#971=DIRECTION('',(0.,0.,-1.));
#972=DIRECTION('',(1.,2.9626028704491E-16,0.));
#973=DIRECTION('',(-2.9626028704491E-16,1.,0.));
#974=DIRECTION('',(0.,0.,-1.));
#975=DIRECTION('',(0.,0.,-1.));
#976=DIRECTION('',(-1.,0.,0.));
#977=DIRECTION('',(0.,0.,-1.));
#978=DIRECTION('',(-2.21571923050912E-7,0.999999999999975,0.));
#979=DIRECTION('',(-0.999999999999976,-2.21571923050912E-7,0.));
#980=DIRECTION('',(0.,0.,-1.));
#981=DIRECTION('',(-1.,0.,0.));
#982=DIRECTION('',(0.,0.,1.));
#983=DIRECTION('',(1.,0.,0.));
#984=DIRECTION('',(0.,0.,-1.));
#985=DIRECTION('',(-1.,0.,0.));
#986=DIRECTION('',(0.,0.,1.));
#987=DIRECTION('',(1.,0.,0.));
#988=DIRECTION('',(0.,0.,-1.));
#989=DIRECTION('',(-1.,0.,0.));
#990=DIRECTION('',(0.,0.,1.));
#991=DIRECTION('',(1.,0.,0.));
#992=DIRECTION('',(0.,0.,-1.));
#993=DIRECTION('',(-1.,0.,0.));
#994=DIRECTION('',(0.,0.,1.));
#995=DIRECTION('',(1.,0.,0.));
#996=DIRECTION('',(0.,0.,1.));
#997=DIRECTION('',(1.,0.,0.));
#998=DIRECTION('',(-1.54197642309049E-16,1.,0.));
#999=DIRECTION('',(-1.54197642309049E-16,1.,0.));
#1000=DIRECTION('',(0.,0.,-1.));
#1001=DIRECTION('',(-1.,0.,0.));
#1002=DIRECTION('',(0.,0.,1.));
#1003=DIRECTION('',(1.,0.,0.));
#1004=DIRECTION('',(0.,0.,1.));
#1005=DIRECTION('',(1.,0.,0.));
#1006=DIRECTION('',(0.,0.,1.));
#1007=DIRECTION('',(1.,0.,0.));
#1008=DIRECTION('',(0.,0.,-1.));
#1009=DIRECTION('',(-1.,0.,0.));
#1010=DIRECTION('',(0.,0.,1.));
#1011=DIRECTION('',(1.,0.,0.));
#1012=DIRECTION('',(0.,0.,1.));
#1013=DIRECTION('',(1.,0.,0.));
#1014=DIRECTION('',(0.,0.,1.));
#1015=DIRECTION('',(1.,0.,0.));
#1016=DIRECTION('',(0.,0.,-1.));
#1017=DIRECTION('',(-1.,0.,0.));
#1018=DIRECTION('',(0.,0.,1.));
#1019=DIRECTION('',(1.,0.,0.));
#1020=DIRECTION('',(0.,0.,1.));
#1021=DIRECTION('',(1.,0.,0.));
#1022=DIRECTION('',(0.,0.,1.));
#1023=DIRECTION('',(1.,0.,0.));
#1024=DIRECTION('',(0.,0.,-1.));
#1025=DIRECTION('',(-1.,0.,0.));
#1026=DIRECTION('',(0.,0.,1.));
#1027=DIRECTION('',(1.,0.,0.));
#1028=DIRECTION('',(0.,0.,1.));
#1029=DIRECTION('',(1.,0.,0.));
#1030=DIRECTION('',(0.,0.,1.));
#1031=DIRECTION('',(1.,0.,0.));
#1032=DIRECTION('',(0.,0.,-1.));
#1033=DIRECTION('',(-1.,0.,0.));
#1034=DIRECTION('',(0.,0.,1.));
#1035=DIRECTION('',(1.,0.,0.));
#1036=DIRECTION('',(0.,0.,1.));
#1037=DIRECTION('',(1.,0.,0.));
#1038=DIRECTION('',(0.,0.,-1.));
#1039=DIRECTION('',(-1.,0.,0.));
#1040=DIRECTION('',(0.,0.,1.));
#1041=DIRECTION('',(1.,0.,0.));
#1042=DIRECTION('',(0.,0.,1.));
#1043=DIRECTION('',(1.,0.,0.));
#1044=DIRECTION('',(0.,0.,-1.));
#1045=DIRECTION('',(-1.,0.,0.));
#1046=DIRECTION('',(0.,0.,1.));
#1047=DIRECTION('',(1.,0.,0.));
#1048=DIRECTION('',(0.,0.,1.));
#1049=DIRECTION('',(1.,0.,0.));
#1050=DIRECTION('',(0.,0.,-1.));
#1051=DIRECTION('',(-1.,0.,0.));
#1052=DIRECTION('',(0.,0.,1.));
#1053=DIRECTION('',(1.,0.,0.));
#1054=DIRECTION('',(0.,0.,1.));
#1055=DIRECTION('',(1.,0.,0.));
#1056=DIRECTION('',(1.,1.54197642309049E-16,0.));
#1057=DIRECTION('',(-1.54197642309049E-16,1.,0.));
#1058=DIRECTION('',(-1.54197642309049E-16,1.,0.));
#1059=DIRECTION('',(-1.54197642309049E-16,1.,0.));
#1060=DIRECTION('',(-1.,-1.54197642309049E-16,0.));
#1061=DIRECTION('',(-1.54197642309049E-16,1.,0.));
#1062=DIRECTION('',(-1.,-1.54197642309049E-16,0.));
#1063=DIRECTION('',(-1.54197642309049E-16,1.,0.));
#1064=DIRECTION('',(1.,1.54197642309049E-16,0.));
#1065=DIRECTION('',(-1.54197642309049E-16,1.,0.));
#1066=CARTESIAN_POINT('',(0.,0.,0.));
#1067=CARTESIAN_POINT('',(6.93889390390723E-15,44.571,12.));
#1068=CARTESIAN_POINT('',(-20.6985,44.571,12.));
#1069=CARTESIAN_POINT('',(-20.6985,44.571,4.));
#1070=CARTESIAN_POINT('',(-20.6985,44.571,12.));
#1071=CARTESIAN_POINT('',(-21.6985,44.571,4.));
#1072=CARTESIAN_POINT('',(-21.6985,44.571,3.));
#1073=CARTESIAN_POINT('',(6.93889390390723E-15,44.571,3.));
#1074=CARTESIAN_POINT('',(40.3985,44.571,3.));
#1075=CARTESIAN_POINT('',(40.3985,44.571,12.));
#1076=CARTESIAN_POINT('',(40.3985,44.571,12.));
#1077=CARTESIAN_POINT('',(6.93889390390723E-15,44.571,12.));
#1078=CARTESIAN_POINT('',(0.,55.,12.));
#1079=CARTESIAN_POINT('',(-20.6985,55.,8.));
#1080=CARTESIAN_POINT('',(-20.6985,55.,12.));
#1081=CARTESIAN_POINT('',(-20.6985,55.,4.));
#1082=CARTESIAN_POINT('',(0.,55.,12.));
#1083=CARTESIAN_POINT('',(45.,55.,12.));
#1084=CARTESIAN_POINT('',(45.,55.,12.));
#1085=CARTESIAN_POINT('',(45.,55.,0.));
#1086=CARTESIAN_POINT('',(0.,55.,0.));
#1087=CARTESIAN_POINT('',(-45.,55.,0.));
#1088=CARTESIAN_POINT('',(-45.,55.,12.));
#1089=CARTESIAN_POINT('',(-45.,55.,12.));
#1090=CARTESIAN_POINT('',(0.,55.,12.));
#1091=CARTESIAN_POINT('',(-37.2591601717799,55.,12.));
#1092=CARTESIAN_POINT('',(-37.2591601717799,55.,8.));
#1093=CARTESIAN_POINT('',(-37.2591601717799,55.,4.));
#1094=CARTESIAN_POINT('',(-36.2591601717799,55.,4.));
#1095=CARTESIAN_POINT('',(-36.2591601717799,55.,3.));
#1096=CARTESIAN_POINT('',(-28.97883008589,55.,3.));
#1097=CARTESIAN_POINT('',(-21.6985,55.,3.));
#1098=CARTESIAN_POINT('',(-21.6985,55.,4.));
#1099=CARTESIAN_POINT('',(-5.,-4.43143778616761E-7,12.));
#1100=CARTESIAN_POINT('',(-54.9999986705685,-49.,12.));
#1101=CARTESIAN_POINT('',(-53.2999986705685,-49.,12.));
#1102=CARTESIAN_POINT('',(-45.,49.,12.));
#1103=CARTESIAN_POINT('',(-43.3,49.,12.));
#1104=CARTESIAN_POINT('',(45.,-49.,12.));
#1105=CARTESIAN_POINT('',(46.7,-49.,12.));
#1106=CARTESIAN_POINT('',(45.,49.,12.));
#1107=CARTESIAN_POINT('',(46.7,49.,12.));
#1108=CARTESIAN_POINT('',(6.93889390390723E-15,44.571,12.));
#1109=CARTESIAN_POINT('',(-37.2591601717799,44.571,12.));
#1110=CARTESIAN_POINT('',(-40.3985,44.571,12.));
#1111=CARTESIAN_POINT('',(-37.2591601717799,44.,12.));
#1112=CARTESIAN_POINT('',(-45.,49.,12.));
#1113=CARTESIAN_POINT('',(-51.,49.,12.));
#1114=CARTESIAN_POINT('',(-51.,28.5973606209174,12.));
#1115=CARTESIAN_POINT('',(-51.,8.19472124183493,12.));
#1116=CARTESIAN_POINT('',(-54.,8.19472124183493,12.));
#1117=CARTESIAN_POINT('',(-52.3514665598586,5.68826208662505,12.));
#1118=CARTESIAN_POINT('',(-55.7747555733569,3.43671675332468,12.));
#1119=CARTESIAN_POINT('',(-59.1980445868552,1.1851714200243,12.));
#1120=CARTESIAN_POINT('',(-57.,-2.15677412025555,12.));
#1121=CARTESIAN_POINT('',(-61.,-2.15677412025555,12.));
#1122=CARTESIAN_POINT('',(-61.,-25.5783875032715,12.));
#1123=CARTESIAN_POINT('',(-61.,-49.0000008862876,12.));
#1124=CARTESIAN_POINT('',(-55.,-49.0000008862876,12.));
#1125=CARTESIAN_POINT('',(-54.9999986705685,-55.0000008862874,12.));
#1126=CARTESIAN_POINT('',(-52.9999993352842,-55.0000004431437,12.));
#1127=CARTESIAN_POINT('',(-51.,-55.,12.));
#1128=CARTESIAN_POINT('',(-3.,-55.,12.));
#1129=CARTESIAN_POINT('',(45.,-55.,12.));
#1130=CARTESIAN_POINT('',(45.,-49.,12.));
#1131=CARTESIAN_POINT('',(51.,-49.,12.));
#1132=CARTESIAN_POINT('',(51.,6.93889390390723E-15,12.));
#1133=CARTESIAN_POINT('',(51.,49.,12.));
#1134=CARTESIAN_POINT('',(45.,49.,12.));
#1135=CARTESIAN_POINT('',(-20.6985,44.,12.));
#1136=CARTESIAN_POINT('',(40.3985,-6.93889390390723E-15,12.));
#1137=CARTESIAN_POINT('',(40.3985,-44.571,12.));
#1138=CARTESIAN_POINT('',(-6.93889390390723E-15,-44.571,12.));
#1139=CARTESIAN_POINT('',(-40.3985,-44.571,12.));
#1140=CARTESIAN_POINT('',(-40.3985,6.93889390390723E-15,12.));
#1141=CARTESIAN_POINT('',(-5.,-4.43143778616761E-7,0.));
#1142=CARTESIAN_POINT('',(-54.9999986705685,-49.,0.));
#1143=CARTESIAN_POINT('',(-51.9999986705685,-49.,0.));
#1144=CARTESIAN_POINT('',(45.,-49.,0.));
#1145=CARTESIAN_POINT('',(48.,-49.,0.));
#1146=CARTESIAN_POINT('',(45.,49.,0.));
#1147=CARTESIAN_POINT('',(48.,49.,0.));
#1148=CARTESIAN_POINT('',(-45.,49.,0.));
#1149=CARTESIAN_POINT('',(-42.,49.,0.));
#1150=CARTESIAN_POINT('',(-3.,-55.,0.));
#1151=CARTESIAN_POINT('',(45.,-55.,0.));
#1152=CARTESIAN_POINT('',(-51.,-55.,0.));
#1153=CARTESIAN_POINT('',(-52.9999993352842,-55.0000004431437,0.));
#1154=CARTESIAN_POINT('',(-54.9999986705685,-55.0000008862874,0.));
#1155=CARTESIAN_POINT('',(-55.,-49.0000008862876,0.));
#1156=CARTESIAN_POINT('',(-61.,-49.0000008862876,0.));
#1157=CARTESIAN_POINT('',(-61.,-25.5783875032715,0.));
#1158=CARTESIAN_POINT('',(-61.,-2.15677412025555,0.));
#1159=CARTESIAN_POINT('',(-57.,-2.15677412025555,0.));
#1160=CARTESIAN_POINT('',(-59.1980445868552,1.1851714200243,0.));
#1161=CARTESIAN_POINT('',(-55.7747555733569,3.43671675332468,0.));
#1162=CARTESIAN_POINT('',(-52.3514665598586,5.68826208662505,0.));
#1163=CARTESIAN_POINT('',(-54.,8.19472124183493,0.));
#1164=CARTESIAN_POINT('',(-51.,8.19472124183493,0.));
#1165=CARTESIAN_POINT('',(-51.,28.5973606209174,0.));
#1166=CARTESIAN_POINT('',(-51.,49.,0.));
#1167=CARTESIAN_POINT('',(-45.,49.,0.));
#1168=CARTESIAN_POINT('',(45.,49.,0.));
#1169=CARTESIAN_POINT('',(51.,49.,0.));
#1170=CARTESIAN_POINT('',(51.,6.93889390390723E-15,0.));
#1171=CARTESIAN_POINT('',(51.,-49.,0.));
#1172=CARTESIAN_POINT('',(45.,-49.,0.));
#1173=CARTESIAN_POINT('',(40.3985,-6.93889390390723E-15,12.));
#1174=CARTESIAN_POINT('',(40.3985,-6.93889390390723E-15,3.));
#1175=CARTESIAN_POINT('',(40.3985,-44.571,3.));
#1176=CARTESIAN_POINT('',(40.3985,-44.571,12.));
#1177=CARTESIAN_POINT('',(6.93889390390723E-15,44.571,12.));
#1178=CARTESIAN_POINT('',(-36.2591601717799,44.571,4.));
#1179=CARTESIAN_POINT('',(-37.2591601717799,44.571,4.));
#1180=CARTESIAN_POINT('',(-36.2591601717799,44.571,3.));
#1181=CARTESIAN_POINT('',(-37.2591601717799,44.571,12.));
#1182=CARTESIAN_POINT('',(-40.3985,44.571,12.));
#1183=CARTESIAN_POINT('',(-40.3985,44.571,3.));
#1184=CARTESIAN_POINT('',(6.93889390390723E-15,44.571,3.));
#1185=CARTESIAN_POINT('',(-40.3985,6.93889390390723E-15,12.));
#1186=CARTESIAN_POINT('',(-40.3985,6.93889390390723E-15,3.));
#1187=CARTESIAN_POINT('',(-40.3985,-44.571,3.));
#1188=CARTESIAN_POINT('',(-40.3985,-44.571,12.));
#1189=CARTESIAN_POINT('',(-6.93889390390723E-15,-44.571,12.));
#1190=CARTESIAN_POINT('',(-6.93889390390723E-15,-44.571,3.));
#1191=CARTESIAN_POINT('',(-3.,-55.,12.));
#1192=CARTESIAN_POINT('',(45.,-55.,12.));
#1193=CARTESIAN_POINT('',(-51.,-55.,12.));
#1194=CARTESIAN_POINT('',(45.,-49.,12.));
#1195=CARTESIAN_POINT('',(51.,-49.,12.));
#1196=CARTESIAN_POINT('',(51.,6.93889390390723E-15,12.));
#1197=CARTESIAN_POINT('',(51.,49.,12.));
#1198=CARTESIAN_POINT('',(45.,49.,12.));
#1199=CARTESIAN_POINT('',(-45.,49.,12.));
#1200=CARTESIAN_POINT('',(-51.,49.,12.));
#1201=CARTESIAN_POINT('',(-51.,28.5973606209174,12.));
#1202=CARTESIAN_POINT('',(-51.,8.19472124183493,12.));
#1203=CARTESIAN_POINT('',(-54.,8.19472124183493,12.));
#1204=CARTESIAN_POINT('',(-52.3514665598586,5.68826208662505,12.));
#1205=CARTESIAN_POINT('',(-55.7747555733569,3.43671675332468,12.));
#1206=CARTESIAN_POINT('',(-59.1980445868552,1.1851714200243,12.));
#1207=CARTESIAN_POINT('',(-57.,-2.15677412025555,12.));
#1208=CARTESIAN_POINT('',(-61.,-2.15677412025555,12.));
#1209=CARTESIAN_POINT('',(-61.,-25.5783875032715,12.));
#1210=CARTESIAN_POINT('',(-61.,-49.0000008862876,12.));
#1211=CARTESIAN_POINT('',(-55.,-49.0000008862876,12.));
#1212=CARTESIAN_POINT('',(-54.9999986705685,-55.0000008862874,12.));
#1213=CARTESIAN_POINT('',(-52.9999993352842,-55.0000004431437,12.));
#1214=CARTESIAN_POINT('',(45.,49.,12.));
#1215=CARTESIAN_POINT('',(45.,49.,7.));
#1216=CARTESIAN_POINT('',(46.7,49.,7.));
#1217=CARTESIAN_POINT('',(45.,-49.,12.));
#1218=CARTESIAN_POINT('',(45.,-49.,7.));
#1219=CARTESIAN_POINT('',(46.7,-49.,7.));
#1220=CARTESIAN_POINT('',(-45.,49.,12.));
#1221=CARTESIAN_POINT('',(-45.,49.,7.));
#1222=CARTESIAN_POINT('',(-43.3,49.,7.));
#1223=CARTESIAN_POINT('',(-54.9999986705685,-49.,12.));
#1224=CARTESIAN_POINT('',(-54.9999986705685,-49.,7.));
#1225=CARTESIAN_POINT('',(-53.2999986705685,-49.,7.));
#1226=CARTESIAN_POINT('',(-5.,-4.43143778616761E-7,3.));
#1227=CARTESIAN_POINT('',(-21.6985,44.,3.));
#1228=CARTESIAN_POINT('',(-36.2591601717799,44.,3.));
#1229=CARTESIAN_POINT('',(-54.9999986705685,-49.,7.));
#1230=CARTESIAN_POINT('',(-54.9999986705685,-49.,3.));
#1231=CARTESIAN_POINT('',(-52.6499986705685,-49.,3.));
#1232=CARTESIAN_POINT('',(-54.9999986705685,-49.,7.));
#1233=CARTESIAN_POINT('',(-52.6499986705685,-49.,7.));
#1234=CARTESIAN_POINT('',(-4.99999933528421,0.,7.));
#1235=CARTESIAN_POINT('',(-45.,49.,7.));
#1236=CARTESIAN_POINT('',(-45.,49.,3.));
#1237=CARTESIAN_POINT('',(-42.65,49.,3.));
#1238=CARTESIAN_POINT('',(-45.,49.,7.));
#1239=CARTESIAN_POINT('',(-42.65,49.,7.));
#1240=CARTESIAN_POINT('',(-4.99999933528421,0.,7.));
#1241=CARTESIAN_POINT('',(45.,-49.,7.));
#1242=CARTESIAN_POINT('',(45.,-49.,3.));
#1243=CARTESIAN_POINT('',(47.35,-49.,3.));
#1244=CARTESIAN_POINT('',(45.,-49.,7.));
#1245=CARTESIAN_POINT('',(47.35,-49.,7.));
#1246=CARTESIAN_POINT('',(-4.99999933528421,0.,7.));
#1247=CARTESIAN_POINT('',(45.,49.,7.));
#1248=CARTESIAN_POINT('',(45.,49.,3.));
#1249=CARTESIAN_POINT('',(47.35,49.,3.));
#1250=CARTESIAN_POINT('',(45.,49.,7.));
#1251=CARTESIAN_POINT('',(47.35,49.,7.));
#1252=CARTESIAN_POINT('',(-4.99999933528421,0.,7.));
#1253=CARTESIAN_POINT('',(45.,49.,3.));
#1254=CARTESIAN_POINT('',(45.,49.,3.));
#1255=CARTESIAN_POINT('',(48.,49.,3.));
#1256=CARTESIAN_POINT('',(-4.99999933528421,0.,3.));
#1257=CARTESIAN_POINT('',(45.,-49.,3.));
#1258=CARTESIAN_POINT('',(45.,-49.,3.));
#1259=CARTESIAN_POINT('',(48.,-49.,3.));
#1260=CARTESIAN_POINT('',(-4.99999933528421,0.,3.));
#1261=CARTESIAN_POINT('',(-45.,49.,3.));
#1262=CARTESIAN_POINT('',(-45.,49.,3.));
#1263=CARTESIAN_POINT('',(-42.,49.,3.));
#1264=CARTESIAN_POINT('',(-4.99999933528421,0.,3.));
#1265=CARTESIAN_POINT('',(-54.9999986705685,-49.,3.));
#1266=CARTESIAN_POINT('',(-54.9999986705685,-49.,3.));
#1267=CARTESIAN_POINT('',(-51.9999986705685,-49.,3.));
#1268=CARTESIAN_POINT('',(-4.99999933528421,0.,3.));
#1269=CARTESIAN_POINT('',(-20.6985,44.,8.));
#1270=CARTESIAN_POINT('',(-20.6985,44.,4.));
#1271=CARTESIAN_POINT('',(-21.6985,44.,4.));
#1272=CARTESIAN_POINT('',(-36.2591601717799,44.,4.));
#1273=CARTESIAN_POINT('',(-37.2591601717799,44.,4.));
#1274=CARTESIAN_POINT('',(-37.2591601717799,44.,8.));
#1275=MECHANICAL_DESIGN_GEOMETRIC_PRESENTATION_REPRESENTATION('',(#744),
#1276);
#1276=(
GEOMETRIC_REPRESENTATION_CONTEXT(3)
GLOBAL_UNCERTAINTY_ASSIGNED_CONTEXT((#1277))
GLOBAL_UNIT_ASSIGNED_CONTEXT((#1280,#1279,#1278))
REPRESENTATION_CONTEXT('Part 1','TOP_LEVEL_ASSEMBLY_PART')
);
#1277=UNCERTAINTY_MEASURE_WITH_UNIT(LENGTH_MEASURE(1.E-5),#1280,
'DISTANCE_ACCURACY_VALUE','Maximum Tolerance applied to model');
#1278=(
NAMED_UNIT(*)
SI_UNIT($,.STERADIAN.)
SOLID_ANGLE_UNIT()
);
#1279=(
NAMED_UNIT(*)
PLANE_ANGLE_UNIT()
SI_UNIT($,.RADIAN.)
);
#1280=(
LENGTH_UNIT()
NAMED_UNIT(*)
SI_UNIT(.MILLI.,.METRE.)
);
#1281=PRODUCT_DEFINITION_SHAPE('','',#1282);
#1282=PRODUCT_DEFINITION('','',#1284,#1283);
#1283=PRODUCT_DEFINITION_CONTEXT('',#1290,'design');
#1284=PRODUCT_DEFINITION_FORMATION_WITH_SPECIFIED_SOURCE('','',#1286,
 .NOT_KNOWN.);
#1285=PRODUCT_RELATED_PRODUCT_CATEGORY('','',(#1286));
#1286=PRODUCT('Part 1','Part 1','Part 1',(#1288));
#1287=PRODUCT_CATEGORY('','');
#1288=PRODUCT_CONTEXT('',#1290,'mechanical');
#1289=APPLICATION_PROTOCOL_DEFINITION('international standard',
'ap242_managed_model_based_3d_engineering',2020,#1290);
#1290=APPLICATION_CONTEXT('managed model based 3d engineering');
ENDSEC;
END-ISO-10303-21;
